{"glyphs":{"a":{"x_min":0,"x_max":664,"ha":664,"o":"m 379 556 q 411 556 432 548 q 454 540 466 527 q 479 514 486 499 q 492 484 494 469 q 500 470 506 470 q 512 471 518 471 q 541 469 548 452 q 556 436 553 416 q 550 396 542 377 q 534 358 530 350 q 521 335 503 304 q 485 274 459 238 q 451 219 445 200 q 439 180 436 163 q 432 137 444 119 q 456 101 496 100 q 520 100 548 120 q 576 140 604 170 q 633 200 659 236 q 685 272 706 304 q 726 335 739 358 q 752 380 754 383 q 760 394 770 399 q 779 404 790 404 q 801 404 812 399 q 822 394 828 386 q 835 377 836 366 q 837 354 830 341 q 821 326 802 296 q 784 266 758 230 q 731 193 698 155 q 664 117 626 86 q 587 56 544 37 q 502 18 457 21 q 428 23 396 42 q 364 62 342 96 q 300 55 255 28 q 210 1 162 -3 q 136 -3 108 6 q 79 14 56 34 q 34 53 20 86 q 7 118 10 167 q 18 229 53 297 q 88 365 140 422 q 191 480 254 518 q 316 555 379 556 z m 316 221 q 326 282 350 332 q 374 382 406 417 q 396 409 388 402 q 380 395 378 390 l 382 404 q 387 420 389 433 q 391 447 387 458 q 383 470 364 472 q 334 474 301 450 q 268 425 240 386 q 211 348 190 303 q 170 258 164 220 q 161 199 160 176 q 159 152 163 132 q 167 113 178 100 q 188 88 208 88 q 237 93 264 116 q 291 139 315 171 q 310 196 316 221 z"},"L":{"x_min":0,"x_max":761,"ha":761,"o":"m 1037 1543 q 1075 1520 1086 1463 q 1098 1406 1086 1323 q 1074 1241 1042 1138 q 1011 1036 964 922 q 918 809 859 690 q 800 571 734 456 q 668 342 597 236 q 526 131 455 46 l 522 22 q 602 -6 692 -36 q 781 -67 868 -92 q 954 -118 1032 -134 q 1109 -151 1165 -151 q 1202 -151 1224 -142 q 1247 -133 1252 -112 q 1256 -87 1270 -76 q 1283 -64 1299 -64 q 1311 -64 1322 -72 q 1334 -79 1342 -92 q 1349 -104 1351 -122 q 1353 -140 1346 -161 q 1324 -223 1268 -250 q 1212 -278 1133 -278 q 1056 -278 963 -258 q 870 -237 774 -206 q 678 -175 584 -138 q 491 -102 413 -71 l 366 -51 q 295 -123 230 -165 q 164 -207 110 -206 q 86 -206 61 -196 q 36 -187 18 -167 q 0 -147 -6 -116 q -13 -84 -1 -38 q 6 -12 24 14 q 42 41 72 62 q 103 83 146 96 q 190 108 248 107 q 260 106 284 100 q 308 94 342 83 q 392 146 443 222 q 494 298 544 381 q 594 464 642 552 q 689 639 732 726 q 775 813 812 896 q 849 980 878 1054 q 906 1129 924 1192 q 943 1256 950 1303 q 953 1327 953 1348 q 951 1377 947 1399 q 943 1421 938 1435 q 931 1454 930 1468 q 929 1480 934 1495 q 938 1510 947 1524 q 956 1537 970 1546 q 983 1555 1000 1555 q 1018 1555 1038 1543 z m 148 -110 q 174 -93 203 -68 q 232 -44 262 -12 q 240 -4 225 0 q 210 4 202 3 q 170 2 148 -6 q 125 -13 110 -24 q 96 -34 89 -46 q 82 -59 81 -70 q 78 -90 91 -104 q 104 -117 123 -117 q 135 -117 148 -110 z"},"3":{"x_min":0,"x_max":1219,"ha":1219,"o":"m 876 781 l 739 657 l 775 471 l 615 565 l 450 471 l 489 652 l 351 781 l 537 801 l 615 972 l 690 802 z m 682 576 l 639 834 l 586 834 l 541 576 l 564 562 l 583 576 l 592 634 l 631 634 l 642 576 l 663 562 z m 628 672 l 598 672 l 612 774 z m 610 21 l 631 21 l 624 39 q 622 42 622 44 q 622 46 619 49 q 619 45 616 39 z m 352 -5 l 352 3 l 363 3 l 363 -5 z m 844 -5 l 844 58 l 852 58 l 852 1 l 883 1 l 883 -5 z m 787 -5 l 787 58 l 832 58 l 832 49 l 795 49 l 795 30 l 829 30 l 829 22 l 795 22 l 795 1 l 832 1 l 832 -5 z m 565 -5 l 565 21 l 541 58 l 552 58 l 564 39 q 567 30 570 28 q 571 30 572 33 q 574 36 577 39 l 589 58 l 598 58 l 573 21 l 573 -5 z m 376 -5 l 376 58 l 400 58 q 403 58 406 56 q 408 55 409 55 q 415 54 417 49 q 420 46 420 40 q 420 36 417 34 q 415 28 411 28 q 415 27 420 22 q 423 16 423 13 q 423 10 422 8 q 421 7 421 6 q 420 0 415 0 q 414 -3 412 -3 q 411 -3 409 -5 l 400 -5 z m 205 -5 l 187 58 l 196 58 l 205 16 q 207 12 207 9 q 207 6 208 3 q 210 10 210 15 l 222 58 l 232 58 l 241 25 q 243 18 244 14 q 246 9 246 3 q 247 6 247 9 q 247 12 249 16 l 259 58 l 267 58 l 249 -5 l 241 -5 l 229 42 q 228 46 228 49 q 226 46 226 42 l 213 -5 z m 123 -5 l 105 58 l 115 58 l 123 16 q 123 9 127 3 q 129 10 129 15 l 141 58 l 150 58 l 160 25 q 162 18 162 14 q 163 9 163 3 q 166 6 166 9 q 166 12 168 16 l 177 58 l 186 58 l 168 -5 l 160 -5 l 148 42 q 147 46 147 49 q 144 46 144 42 l 130 -5 z m 384 30 l 397 30 q 403 30 405 33 q 409 33 409 34 q 411 36 411 40 q 411 45 409 46 l 408 46 q 406 46 406 47 q 406 48 405 48 q 403 49 396 49 l 384 49 z m 285 -5 l 268 58 l 277 58 l 286 16 q 288 12 288 9 q 288 6 291 3 q 291 9 292 11 q 292 13 292 15 l 304 58 l 313 58 l 324 25 q 325 18 326 14 q 327 9 327 3 q 330 6 330 9 q 330 12 331 16 l 342 58 l 349 58 l 331 -5 l 324 -5 l 312 42 q 310 46 310 49 q 307 46 307 42 l 294 -5 z m 664 28 l 682 28 q 685 28 688 29 q 690 30 693 30 q 696 30 696 34 q 697 36 697 40 q 697 45 694 48 q 693 49 684 49 l 664 49 z m 384 1 l 400 1 q 403 1 405 3 l 409 3 q 411 6 414 7 l 414 13 q 414 16 411 19 q 411 22 408 22 l 397 22 l 384 22 z m 435 -5 l 435 58 l 442 58 l 442 -5 z m 985 25 q 985 12 990 7 q 996 1 1006 1 q 1017 1 1021 7 q 1027 12 1027 27 q 1027 34 1026 39 q 1023 46 1018 48 q 1014 49 1006 49 q 997 49 993 45 q 985 39 985 25 z m 976 25 q 976 42 985 49 q 991 58 1006 58 q 1011 58 1014 56 q 1018 55 1021 54 q 1026 52 1028 49 q 1030 46 1033 42 q 1035 39 1035 27 q 1035 13 1032 9 q 1027 1 1021 -3 q 1015 -6 1006 -6 q 1002 -6 998 -6 q 994 -5 990 -3 q 987 0 984 3 q 982 6 981 9 q 979 13 978 17 q 976 21 976 25 z m 592 -5 l 616 58 l 625 58 l 651 -5 l 642 -5 l 634 13 l 609 13 l 600 -5 z m 459 -5 l 459 58 l 466 58 l 466 1 l 495 1 l 495 -5 z m 892 -5 l 892 3 l 903 3 l 903 -5 z m 748 19 l 748 27 l 774 27 l 774 3 q 768 -3 762 -5 q 759 -5 755 -6 q 751 -6 748 -6 q 739 -6 733 -3 q 729 0 726 2 q 723 4 721 9 q 720 13 718 17 q 717 21 717 25 q 717 31 718 34 q 720 37 721 42 q 724 51 732 54 q 735 55 740 56 q 744 58 748 58 q 756 58 760 55 q 766 54 768 49 q 772 45 774 40 l 766 39 q 766 40 762 45 q 762 48 756 49 l 748 49 l 739 49 q 735 48 732 45 q 732 43 727 39 q 727 36 726 33 q 726 30 726 27 q 726 16 729 13 q 735 4 736 3 q 741 1 748 1 q 754 1 759 3 q 762 6 764 6 q 765 6 766 7 l 766 19 z m 657 -5 l 657 58 l 684 58 q 688 58 691 56 q 694 55 697 55 q 702 54 703 49 q 706 46 706 40 q 706 33 702 28 q 700 27 696 26 q 693 25 688 22 q 691 22 692 22 q 693 21 694 21 q 696 18 696 16 q 697 13 700 10 l 712 -5 l 702 -5 l 693 7 q 690 10 689 12 q 688 15 687 16 q 687 19 686 19 q 684 19 682 21 l 681 21 q 679 21 679 22 q 679 22 678 22 l 675 22 l 664 22 l 664 -5 z m 505 -5 l 505 58 l 514 58 l 514 1 l 544 1 l 544 -5 z m 961 16 l 969 15 q 966 3 960 0 q 954 -6 943 -6 q 934 -6 928 -3 q 924 0 922 3 q 921 6 918 9 q 915 21 915 27 q 915 33 918 45 q 925 52 928 54 q 933 55 936 56 q 939 58 943 58 q 948 58 952 56 q 957 55 960 54 q 963 51 965 48 q 967 45 969 40 l 960 39 q 960 45 954 48 q 951 49 943 49 q 934 49 931 48 q 928 46 928 44 q 927 42 924 39 q 924 36 923 33 q 922 30 922 27 q 922 18 927 13 q 927 10 928 8 q 930 6 931 3 q 936 1 943 1 q 951 1 955 6 q 960 10 961 16 z m 1047 -5 l 1047 58 l 1059 58 l 1074 13 q 1074 10 1076 8 q 1077 6 1077 3 q 1077 4 1080 13 l 1093 58 l 1105 58 l 1105 -5 l 1098 -5 l 1098 46 l 1080 -5 l 1072 -5 l 1054 48 l 1054 -5 z m 610 21 l 631 21 l 624 39 q 622 42 622 44 q 622 46 619 49 q 619 45 616 39 z m 352 -5 l 352 3 l 363 3 l 363 -5 z m 844 -5 l 844 58 l 852 58 l 852 1 l 883 1 l 883 -5 z m 787 -5 l 787 58 l 832 58 l 832 49 l 795 49 l 795 30 l 829 30 l 829 22 l 795 22 l 795 1 l 832 1 l 832 -5 z m 565 -5 l 565 21 l 541 58 l 552 58 l 564 39 q 567 30 570 28 q 571 30 572 33 q 574 36 577 39 l 589 58 l 598 58 l 573 21 l 573 -5 z m 376 -5 l 376 58 l 400 58 q 403 58 406 56 q 408 55 409 55 q 415 54 417 49 q 420 46 420 40 q 420 36 417 34 q 415 28 411 28 q 415 27 420 22 q 423 16 423 13 q 423 10 422 8 q 421 7 421 6 q 420 0 415 0 q 414 -3 412 -3 q 411 -3 409 -5 l 400 -5 z m 205 -5 l 187 58 l 196 58 l 205 16 q 207 12 207 9 q 207 6 208 3 q 210 10 210 15 l 222 58 l 232 58 l 241 25 q 243 18 244 14 q 246 9 246 3 q 247 6 247 9 q 247 12 249 16 l 259 58 l 267 58 l 249 -5 l 241 -5 l 229 42 q 228 46 228 49 q 226 46 226 42 l 213 -5 z m 123 -5 l 105 58 l 115 58 l 123 16 q 123 9 127 3 q 129 10 129 15 l 141 58 l 150 58 l 160 25 q 162 18 162 14 q 163 9 163 3 q 166 6 166 9 q 166 12 168 16 l 177 58 l 186 58 l 168 -5 l 160 -5 l 148 42 q 147 46 147 49 q 144 46 144 42 l 130 -5 z m 384 30 l 397 30 q 403 30 405 33 q 409 33 409 34 q 411 36 411 40 q 411 45 409 46 l 408 46 q 406 46 406 47 q 406 48 405 48 q 403 49 396 49 l 384 49 z m 285 -5 l 268 58 l 277 58 l 286 16 q 288 12 288 9 q 288 6 291 3 q 291 9 292 11 q 292 13 292 15 l 304 58 l 313 58 l 324 25 q 325 18 326 14 q 327 9 327 3 q 330 6 330 9 q 330 12 331 16 l 342 58 l 349 58 l 331 -5 l 324 -5 l 312 42 q 310 46 310 49 q 307 46 307 42 l 294 -5 z m 664 28 l 682 28 q 685 28 688 29 q 690 30 693 30 q 696 30 696 34 q 697 36 697 40 q 697 45 694 48 q 693 49 684 49 l 664 49 z m 384 1 l 400 1 q 403 1 405 3 l 409 3 q 411 6 414 7 l 414 13 q 414 16 411 19 q 411 22 408 22 l 397 22 l 384 22 z m 435 -5 l 435 58 l 442 58 l 442 -5 z m 985 25 q 985 12 990 7 q 996 1 1006 1 q 1017 1 1021 7 q 1027 12 1027 27 q 1027 34 1026 39 q 1023 46 1018 48 q 1014 49 1006 49 q 997 49 993 45 q 985 39 985 25 z m 976 25 q 976 42 985 49 q 991 58 1006 58 q 1011 58 1014 56 q 1018 55 1021 54 q 1026 52 1028 49 q 1030 46 1033 42 q 1035 39 1035 27 q 1035 13 1032 9 q 1027 1 1021 -3 q 1015 -6 1006 -6 q 1002 -6 998 -6 q 994 -5 990 -3 q 987 0 984 3 q 982 6 981 9 q 979 13 978 17 q 976 21 976 25 z m 592 -5 l 616 58 l 625 58 l 651 -5 l 642 -5 l 634 13 l 609 13 l 600 -5 z m 459 -5 l 459 58 l 466 58 l 466 1 l 495 1 l 495 -5 z m 892 -5 l 892 3 l 903 3 l 903 -5 z m 748 19 l 748 27 l 774 27 l 774 3 q 768 -3 762 -5 q 759 -5 755 -6 q 751 -6 748 -6 q 739 -6 733 -3 q 729 0 726 2 q 723 4 721 9 q 720 13 718 17 q 717 21 717 25 q 717 31 718 34 q 720 37 721 42 q 724 51 732 54 q 735 55 740 56 q 744 58 748 58 q 756 58 760 55 q 766 54 768 49 q 772 45 774 40 l 766 39 q 766 40 762 45 q 762 48 756 49 l 748 49 l 739 49 q 735 48 732 45 q 732 43 727 39 q 727 36 726 33 q 726 30 726 27 q 726 16 729 13 q 735 4 736 3 q 741 1 748 1 q 754 1 759 3 q 762 6 764 6 q 765 6 766 7 l 766 19 z m 657 -5 l 657 58 l 684 58 q 688 58 691 56 q 694 55 697 55 q 702 54 703 49 q 706 46 706 40 q 706 33 702 28 q 700 27 696 26 q 693 25 688 22 q 691 22 692 22 q 693 21 694 21 q 696 18 696 16 q 697 13 700 10 l 712 -5 l 702 -5 l 693 7 q 690 10 689 12 q 688 15 687 16 q 687 19 686 19 q 684 19 682 21 l 681 21 q 679 21 679 22 q 679 22 678 22 l 675 22 l 664 22 l 664 -5 z m 505 -5 l 505 58 l 514 58 l 514 1 l 544 1 l 544 -5 z m 961 16 l 969 15 q 966 3 960 0 q 954 -6 943 -6 q 934 -6 928 -3 q 924 0 922 3 q 921 6 918 9 q 915 21 915 27 q 915 33 918 45 q 925 52 928 54 q 933 55 936 56 q 939 58 943 58 q 948 58 952 56 q 957 55 960 54 q 963 51 965 48 q 967 45 969 40 l 960 39 q 960 45 954 48 q 951 49 943 49 q 934 49 931 48 q 928 46 928 44 q 927 42 924 39 q 924 36 923 33 q 922 30 922 27 q 922 18 927 13 q 927 10 928 8 q 930 6 931 3 q 936 1 943 1 q 951 1 955 6 q 960 10 961 16 z m 1047 -5 l 1047 58 l 1059 58 l 1074 13 q 1074 10 1076 8 q 1077 6 1077 3 q 1077 4 1080 13 l 1093 58 l 1105 58 l 1105 -5 l 1098 -5 l 1098 46 l 1080 -5 l 1072 -5 l 1054 48 l 1054 -5 z m 610 21 l 631 21 l 624 39 q 622 42 622 44 q 622 46 619 49 q 619 45 616 39 z m 352 -5 l 352 3 l 363 3 l 363 -5 z m 844 -5 l 844 58 l 852 58 l 852 1 l 883 1 l 883 -5 z m 787 -5 l 787 58 l 832 58 l 832 49 l 795 49 l 795 30 l 829 30 l 829 22 l 795 22 l 795 1 l 832 1 l 832 -5 z m 565 -5 l 565 21 l 541 58 l 552 58 l 564 39 q 567 30 570 28 q 571 30 572 33 q 574 36 577 39 l 589 58 l 598 58 l 573 21 l 573 -5 z m 376 -5 l 376 58 l 400 58 q 403 58 406 56 q 408 55 409 55 q 415 54 417 49 q 420 46 420 40 q 420 36 417 34 q 415 28 411 28 q 415 27 420 22 q 423 16 423 13 q 423 10 422 8 q 421 7 421 6 q 420 0 415 0 q 414 -3 412 -3 q 411 -3 409 -5 l 400 -5 z m 205 -5 l 187 58 l 196 58 l 205 16 q 207 12 207 9 q 207 6 208 3 q 210 10 210 15 l 222 58 l 232 58 l 241 25 q 243 18 244 14 q 246 9 246 3 q 247 6 247 9 q 247 12 249 16 l 259 58 l 267 58 l 249 -5 l 241 -5 l 229 42 q 228 46 228 49 q 226 46 226 42 l 213 -5 z m 123 -5 l 105 58 l 115 58 l 123 16 q 123 9 127 3 q 129 10 129 15 l 141 58 l 150 58 l 160 25 q 162 18 162 14 q 163 9 163 3 q 166 6 166 9 q 166 12 168 16 l 177 58 l 186 58 l 168 -5 l 160 -5 l 148 42 q 147 46 147 49 q 144 46 144 42 l 130 -5 z m 384 30 l 397 30 q 403 30 405 33 q 409 33 409 34 q 411 36 411 40 q 411 45 409 46 l 408 46 q 406 46 406 47 q 406 48 405 48 q 403 49 396 49 l 384 49 z m 285 -5 l 268 58 l 277 58 l 286 16 q 288 12 288 9 q 288 6 291 3 q 291 9 292 11 q 292 13 292 15 l 304 58 l 313 58 l 324 25 q 325 18 326 14 q 327 9 327 3 q 330 6 330 9 q 330 12 331 16 l 342 58 l 349 58 l 331 -5 l 324 -5 l 312 42 q 310 46 310 49 q 307 46 307 42 l 294 -5 z m 664 28 l 682 28 q 685 28 688 29 q 690 30 693 30 q 696 30 696 34 q 697 36 697 40 q 697 45 694 48 q 693 49 684 49 l 664 49 z m 384 1 l 400 1 q 403 1 405 3 l 409 3 q 411 6 414 7 l 414 13 q 414 16 411 19 q 411 22 408 22 l 397 22 l 384 22 z m 435 -5 l 435 58 l 442 58 l 442 -5 z m 985 25 q 985 12 990 7 q 996 1 1006 1 q 1017 1 1021 7 q 1027 12 1027 27 q 1027 34 1026 39 q 1023 46 1018 48 q 1014 49 1006 49 q 997 49 993 45 q 985 39 985 25 z m 976 25 q 976 42 985 49 q 991 58 1006 58 q 1011 58 1014 56 q 1018 55 1021 54 q 1026 52 1028 49 q 1030 46 1033 42 q 1035 39 1035 27 q 1035 13 1032 9 q 1027 1 1021 -3 q 1015 -6 1006 -6 q 1002 -6 998 -6 q 994 -5 990 -3 q 987 0 984 3 q 982 6 981 9 q 979 13 978 17 q 976 21 976 25 z m 592 -5 l 616 58 l 625 58 l 651 -5 l 642 -5 l 634 13 l 609 13 l 600 -5 z m 459 -5 l 459 58 l 466 58 l 466 1 l 495 1 l 495 -5 z m 892 -5 l 892 3 l 903 3 l 903 -5 z m 748 19 l 748 27 l 774 27 l 774 3 q 768 -3 762 -5 q 759 -5 755 -6 q 751 -6 748 -6 q 739 -6 733 -3 q 729 0 726 2 q 723 4 721 9 q 720 13 718 17 q 717 21 717 25 q 717 31 718 34 q 720 37 721 42 q 724 51 732 54 q 735 55 740 56 q 744 58 748 58 q 756 58 760 55 q 766 54 768 49 q 772 45 774 40 l 766 39 q 766 40 762 45 q 762 48 756 49 l 748 49 l 739 49 q 735 48 732 45 q 732 43 727 39 q 727 36 726 33 q 726 30 726 27 q 726 16 729 13 q 735 4 736 3 q 741 1 748 1 q 754 1 759 3 q 762 6 764 6 q 765 6 766 7 l 766 19 z m 657 -5 l 657 58 l 684 58 q 688 58 691 56 q 694 55 697 55 q 702 54 703 49 q 706 46 706 40 q 706 33 702 28 q 700 27 696 26 q 693 25 688 22 q 691 22 692 22 q 693 21 694 21 q 696 18 696 16 q 697 13 700 10 l 712 -5 l 702 -5 l 693 7 q 690 10 689 12 q 688 15 687 16 q 687 19 686 19 q 684 19 682 21 l 681 21 q 679 21 679 22 q 679 22 678 22 l 675 22 l 664 22 l 664 -5 z m 505 -5 l 505 58 l 514 58 l 514 1 l 544 1 l 544 -5 z m 961 16 l 969 15 q 966 3 960 0 q 954 -6 943 -6 q 934 -6 928 -3 q 924 0 922 3 q 921 6 918 9 q 915 21 915 27 q 915 33 918 45 q 925 52 928 54 q 933 55 936 56 q 939 58 943 58 q 948 58 952 56 q 957 55 960 54 q 963 51 965 48 q 967 45 969 40 l 960 39 q 960 45 954 48 q 951 49 943 49 q 934 49 931 48 q 928 46 928 44 q 927 42 924 39 q 924 36 923 33 q 922 30 922 27 q 922 18 927 13 q 927 10 928 8 q 930 6 931 3 q 936 1 943 1 q 951 1 955 6 q 960 10 961 16 z m 1047 -5 l 1047 58 l 1059 58 l 1074 13 q 1074 10 1076 8 q 1077 6 1077 3 q 1077 4 1080 13 l 1093 58 l 1105 58 l 1105 -5 l 1098 -5 l 1098 46 l 1080 -5 l 1072 -5 l 1054 48 l 1054 -5 z m 175 111 l 187 106 q 184 93 174 84 q 162 75 148 75 q 135 75 123 81 q 111 90 109 99 q 103 109 103 124 q 103 141 109 151 q 114 162 124 166 q 135 172 148 172 q 165 172 171 165 q 181 162 186 145 l 174 144 q 168 156 163 157 q 157 163 148 163 q 136 163 130 157 q 121 151 118 144 q 117 138 117 124 q 117 111 121 105 q 124 94 130 91 q 138 85 147 85 q 159 85 166 93 q 169 96 172 100 q 174 105 175 111 z m 199 123 q 199 135 202 144 q 205 153 213 159 q 219 166 227 169 q 235 172 244 172 q 258 172 268 166 q 277 162 285 150 q 291 135 291 124 q 291 117 290 111 q 288 105 285 99 q 277 87 267 81 q 255 75 244 75 q 237 75 232 76 q 226 78 220 81 q 210 87 205 99 q 199 109 199 123 z m 213 123 q 213 105 220 94 q 231 85 244 85 q 259 85 267 97 q 277 108 277 124 q 277 130 276 134 q 274 139 273 144 q 270 154 261 157 q 256 163 244 163 q 232 163 222 153 q 213 145 213 123 z m 306 78 l 306 171 l 324 171 l 346 105 q 351 96 351 91 q 354 94 357 106 l 381 171 l 396 171 l 396 78 l 384 78 l 384 156 l 357 78 l 345 78 l 318 157 l 318 78 z m 417 78 l 417 171 l 453 171 l 466 171 q 474 171 478 166 q 480 165 486 157 q 487 154 488 151 q 489 148 489 144 q 489 135 481 124 q 474 117 453 117 l 429 117 l 429 78 z m 429 126 l 454 126 q 468 126 469 132 q 475 133 475 144 q 475 151 474 153 q 468 159 463 159 q 462 162 453 162 l 429 162 z m 505 78 l 505 171 l 517 171 l 517 87 l 564 87 l 564 78 z m 579 78 l 579 171 l 648 171 l 648 162 l 591 162 l 591 132 l 643 132 l 643 120 l 591 120 l 591 87 l 649 87 l 649 78 z m 690 78 l 690 162 l 658 162 l 658 171 l 735 171 l 735 162 l 703 162 l 703 78 z m 748 78 l 748 171 l 817 171 l 817 162 l 760 162 l 760 132 l 813 132 l 813 120 l 760 120 l 760 87 l 819 87 l 819 78 z m 870 106 l 882 108 q 882 100 885 97 q 888 91 895 88 q 898 87 909 87 q 912 87 916 87 q 919 87 922 88 q 927 88 930 94 q 931 97 931 103 q 931 108 930 111 q 928 112 926 113 q 924 114 921 117 q 919 117 904 120 q 897 123 892 124 q 888 124 885 126 q 879 129 876 136 q 873 138 872 141 q 871 144 871 147 q 871 156 877 162 q 879 165 882 166 q 885 168 889 171 q 892 172 907 172 q 918 172 924 169 q 928 166 931 164 q 934 163 936 159 q 942 154 942 145 l 930 144 q 927 156 922 157 q 918 162 907 162 q 892 162 889 157 q 885 153 885 147 q 885 142 889 139 q 889 139 907 132 q 915 130 920 128 q 925 127 928 126 q 933 124 935 122 q 937 120 940 117 q 943 112 943 103 q 943 93 940 88 q 934 82 928 79 q 924 78 920 76 q 915 75 909 75 q 903 75 897 76 q 891 78 888 79 q 880 81 873 91 q 870 97 870 106 z m 961 78 l 961 171 l 1029 171 l 1029 162 l 975 162 l 975 132 l 1027 132 l 1027 120 l 975 120 l 975 87 l 1032 87 l 1032 78 z m 1074 78 l 1074 162 l 1044 162 l 1044 171 l 1117 171 l 1117 162 l 1086 162 l 1086 78 z m 112 190 l 112 283 l 150 283 l 163 283 q 166 283 175 280 q 177 279 179 276 q 181 273 183 270 q 186 267 186 259 q 186 246 177 237 q 172 229 150 229 l 127 229 l 127 190 z m 127 241 l 150 241 q 163 241 168 244 q 174 250 174 256 q 174 259 172 262 q 171 265 169 268 q 165 273 162 273 q 160 274 150 274 l 127 274 z m 201 190 l 201 283 l 268 283 l 268 274 l 214 274 l 214 244 l 265 244 l 265 234 l 214 234 l 214 202 l 271 202 l 271 190 z m 288 190 l 288 283 l 331 283 q 345 283 351 282 q 358 279 361 274 q 364 262 364 259 q 364 249 358 243 q 352 237 337 234 q 340 231 342 231 q 343 231 345 229 q 352 222 355 216 l 372 190 l 357 190 l 343 210 q 342 214 340 217 q 337 220 336 223 q 333 225 332 227 q 331 229 330 229 q 327 231 324 231 q 322 234 316 234 l 303 234 l 303 190 z m 303 243 l 327 243 q 339 243 342 244 q 346 249 349 250 q 351 253 351 259 q 351 265 346 270 q 342 274 331 274 l 303 274 z m 381 222 l 391 222 q 391 219 392 216 q 394 213 396 210 q 397 208 400 206 q 402 204 405 204 q 414 201 420 201 q 423 201 426 201 q 429 201 430 202 q 439 205 441 208 q 441 210 442 212 q 442 214 442 216 q 442 222 441 223 q 436 226 430 229 q 429 231 425 231 q 421 231 415 234 q 402 235 396 240 q 388 246 385 249 q 384 253 384 261 q 384 264 384 268 q 385 271 388 274 q 390 280 400 283 q 403 286 417 286 q 429 286 435 283 q 444 279 447 273 q 453 264 453 259 l 441 256 q 438 267 433 270 q 427 276 417 276 q 405 276 400 270 q 396 267 396 261 q 396 255 400 253 q 402 250 417 247 q 430 241 439 241 q 442 238 445 236 q 448 234 450 231 q 454 226 454 217 q 454 210 450 204 q 447 199 444 197 q 442 195 439 192 q 427 189 420 189 q 409 189 397 192 q 393 195 390 197 q 387 199 384 204 q 382 208 382 212 q 381 216 381 222 z m 468 237 q 468 258 480 273 q 493 286 513 286 q 519 286 524 284 q 529 283 537 280 q 543 277 546 272 q 549 268 552 262 q 558 252 558 237 q 558 223 552 211 q 546 201 537 195 q 525 189 513 189 q 499 189 489 196 q 475 204 474 214 q 468 222 468 237 z m 480 237 q 480 219 489 210 q 498 201 513 201 q 528 201 537 210 q 544 220 544 237 q 544 243 544 249 q 543 255 540 259 q 535 267 531 270 q 523 276 513 276 q 505 276 500 274 q 496 271 489 267 q 480 258 480 237 z m 573 190 l 573 283 l 586 283 l 636 211 l 636 283 l 648 283 l 648 190 l 636 190 l 585 264 l 585 190 z m 658 190 l 694 283 l 708 283 l 747 190 l 732 190 l 721 220 l 682 220 l 670 190 z m 684 229 l 717 229 l 708 255 q 705 261 704 266 q 702 271 700 274 q 700 270 698 266 q 697 261 696 256 z m 754 190 l 754 283 l 768 283 l 768 202 l 814 202 l 814 190 z m 922 283 l 934 283 l 934 231 q 934 214 931 208 q 928 199 921 195 q 913 189 898 189 q 883 189 877 195 q 873 196 870 200 q 867 204 864 208 q 862 211 862 231 l 862 283 l 873 283 l 873 231 q 873 216 876 211 q 879 205 883 204 q 886 202 889 202 q 892 201 897 201 q 909 201 916 205 q 922 211 922 231 z m 951 222 l 963 222 q 963 219 964 216 q 966 213 967 210 q 969 208 971 206 q 973 204 976 204 q 985 201 990 201 q 1000 201 1005 202 q 1008 204 1012 208 q 1014 210 1014 216 q 1014 222 1012 223 q 1009 225 1008 226 q 1008 228 1005 229 q 1002 231 998 231 q 993 231 987 234 q 981 235 976 236 q 970 237 969 240 q 961 243 960 249 q 955 253 955 261 q 955 267 960 274 q 961 280 970 283 q 976 286 988 286 q 993 286 998 286 q 1003 286 1006 283 q 1015 279 1020 273 q 1021 270 1022 266 q 1024 262 1024 259 l 1012 256 q 1009 261 1008 264 q 1008 268 1005 270 q 1000 276 988 276 q 975 276 973 270 q 967 268 967 261 q 967 256 970 253 q 973 250 988 247 q 1005 241 1009 241 q 1014 238 1017 236 q 1020 234 1021 231 q 1026 228 1026 217 q 1026 208 1021 204 q 1018 199 1016 197 q 1014 195 1009 192 q 1000 189 993 189 q 985 189 980 190 q 975 190 970 192 q 967 195 964 197 q 960 199 957 204 q 954 208 952 212 q 951 216 951 222 z m 1044 190 l 1044 283 l 1111 283 l 1111 274 l 1057 274 l 1057 244 l 1107 244 l 1107 234 l 1057 234 l 1057 202 l 1113 202 l 1113 190 z m 307 388 q 307 403 285 406 q 282 406 278 407 q 273 408 267 408 l 258 397 l 234 372 q 228 364 222 358 q 217 352 210 348 q 219 345 232 343 q 235 343 240 343 q 246 343 250 345 q 273 346 285 357 q 307 375 307 388 z m 324 433 q 324 439 316 439 q 313 439 291 432 l 274 417 q 271 414 268 408 l 294 412 q 300 412 310 420 q 324 429 324 433 z m 343 460 q 343 457 339 457 q 336 457 335 458 q 334 459 331 459 q 316 456 297 436 q 300 439 304 440 q 307 442 310 444 q 321 445 330 444 q 336 444 336 436 l 336 430 q 328 417 294 409 q 321 406 321 391 q 321 373 292 354 q 282 348 270 344 q 259 340 247 339 q 228 334 217 336 q 208 336 198 340 q 189 334 181 334 l 178 334 q 169 337 163 339 l 168 339 q 180 339 187 345 l 187 346 q 177 340 165 340 q 148 340 139 349 q 124 360 124 381 q 124 387 126 392 q 127 397 130 405 q 141 427 166 444 q 174 451 182 454 q 190 456 198 457 q 214 457 220 451 q 213 456 205 456 q 196 456 186 450 q 171 444 169 441 q 154 433 139 415 q 126 394 126 379 q 126 372 128 368 q 129 363 132 358 q 138 349 148 346 q 153 345 156 344 q 159 343 162 343 q 168 343 172 344 q 177 346 183 349 q 166 361 166 382 q 169 402 190 417 l 187 412 q 184 412 181 406 q 172 397 172 387 q 172 367 195 354 q 207 361 207 363 q 210 367 213 370 q 216 373 219 376 q 222 379 222 384 q 223 388 226 393 l 226 391 q 226 384 225 379 l 243 400 q 289 453 319 462 q 306 466 298 466 q 279 465 256 453 q 229 439 229 420 q 229 414 234 409 q 235 408 235 406 q 226 412 226 421 q 226 438 246 454 q 270 472 297 469 q 306 469 324 463 l 330 463 q 337 463 342 460 z m 346 363 q 345 357 334 346 q 324 340 316 340 q 309 340 309 349 q 309 357 318 369 l 316 369 q 315 367 310 367 q 310 367 309 369 q 313 369 324 379 l 325 379 l 330 385 q 334 390 334 393 l 339 393 q 343 393 343 391 q 343 385 334 375 l 324 364 q 315 351 315 346 q 315 342 321 342 q 328 342 339 357 q 340 358 342 359 q 343 360 346 363 z m 354 405 q 348 396 339 396 q 334 396 328 400 l 333 400 q 343 400 346 411 l 346 414 l 354 411 q 355 409 354 405 z m 406 433 q 406 426 360 370 l 358 370 q 345 354 345 345 q 345 340 349 340 q 358 340 369 355 q 370 357 372 358 q 373 358 375 361 q 375 354 363 345 q 355 339 346 339 q 337 340 337 348 q 336 355 367 394 l 385 417 l 394 426 q 399 432 402 441 q 406 438 406 433 z m 432 433 q 432 427 384 370 q 369 352 369 345 q 369 340 375 340 q 381 340 394 355 l 400 361 q 399 354 387 345 q 379 339 370 339 q 361 340 361 348 q 361 357 391 394 l 409 417 l 418 426 q 426 435 427 441 q 432 438 432 433 z m 403 333 q 379 328 366 315 q 355 301 355 298 q 355 292 361 292 q 363 291 372 294 q 375 297 378 300 q 382 304 387 309 z m 447 430 q 444 409 427 393 q 427 391 426 391 q 426 391 426 390 q 421 384 416 378 q 411 373 406 366 q 403 363 403 360 q 402 363 405 369 q 396 355 396 348 q 396 343 400 343 q 402 343 408 346 q 430 364 439 397 l 439 393 l 439 388 q 442 385 442 381 q 442 378 435 366 l 423 346 l 409 328 q 414 331 426 337 l 424 336 q 421 333 416 329 q 411 325 406 318 l 394 303 l 388 295 q 379 286 369 283 q 360 283 355 289 q 346 292 352 303 q 354 304 356 307 q 357 310 360 313 l 361 315 l 351 313 q 376 331 393 333 q 394 333 396 334 q 397 334 399 334 l 400 334 l 403 334 l 412 348 q 406 342 402 341 q 397 340 394 340 q 387 340 387 348 q 387 366 418 394 l 421 396 l 436 411 q 439 417 442 422 q 445 426 447 430 z m 618 453 q 609 456 603 456 q 588 456 575 452 q 562 448 549 441 q 543 438 539 434 q 535 430 531 427 q 549 426 579 408 q 612 441 636 450 z m 649 447 q 643 445 636 443 q 630 441 622 433 q 618 430 600 412 l 589 402 l 604 393 q 607 397 613 404 q 619 411 627 420 z m 663 472 q 663 471 661 469 q 661 459 657 448 l 658 447 l 657 447 q 649 429 637 417 l 613 388 q 616 387 618 387 q 619 387 622 385 q 622 382 621 382 q 618 382 616 383 q 615 384 612 385 q 594 366 592 349 q 589 343 589 340 q 589 334 595 334 q 607 334 621 354 l 627 363 q 642 384 646 400 l 646 405 q 646 403 648 402 l 648 400 q 645 379 633 361 l 613 322 q 613 328 618 342 q 600 328 591 328 q 577 328 580 346 q 580 355 586 366 q 592 378 601 391 l 586 399 l 573 385 q 568 379 560 370 q 552 361 540 346 q 516 322 498 322 l 493 322 q 489 322 480 327 q 480 327 483 327 q 496 324 510 337 q 498 331 481 331 q 465 331 454 339 l 456 339 q 441 349 441 370 q 441 385 447 393 q 456 417 481 433 q 490 441 498 443 q 507 445 516 447 q 531 447 537 441 l 535 441 q 532 444 522 444 q 507 444 484 430 q 468 418 456 405 q 442 384 442 367 q 442 343 465 336 q 474 333 478 333 q 510 334 547 375 l 576 405 q 553 418 525 418 l 523 418 q 520 412 520 405 q 522 405 528 396 q 517 402 517 411 q 517 415 519 418 q 504 415 499 412 q 472 402 475 381 q 475 367 484 357 l 487 354 q 469 372 469 385 q 469 405 487 418 q 502 429 525 429 q 546 453 577 457 q 585 459 601 459 q 609 459 624 456 l 642 451 l 651 451 l 652 450 q 658 460 661 475 l 663 475 z m 682 375 q 682 370 681 367 q 673 360 668 354 q 663 348 658 340 l 660 340 l 661 340 q 660 339 658 339 q 657 339 657 337 q 649 337 649 340 q 649 346 663 360 q 673 373 673 376 q 675 381 669 385 q 651 360 637 354 l 631 351 l 628 352 q 634 352 648 367 q 661 379 666 387 q 666 388 665 388 q 664 388 664 390 q 664 391 675 400 q 675 402 676 402 l 678 400 q 678 399 670 388 q 682 384 682 375 z m 726 379 q 726 388 720 385 q 714 385 711 382 q 706 379 697 367 q 688 355 688 348 q 687 345 691 345 q 700 348 706 355 q 712 367 712 372 q 712 375 711 375 q 717 375 717 367 l 715 364 q 718 367 720 371 q 723 375 726 378 z m 754 393 q 748 393 741 385 q 735 378 729 369 q 723 360 715 348 q 708 333 702 324 q 696 316 694 313 q 675 289 664 289 q 655 288 651 295 q 651 303 651 303 q 651 310 657 316 q 654 315 649 315 q 664 330 682 334 q 684 334 684 335 q 685 336 688 336 l 690 334 q 661 325 655 307 q 654 304 654 300 q 654 298 655 297 q 655 295 657 295 q 669 294 685 318 l 696 333 l 702 342 q 697 340 694 340 q 682 340 682 352 q 682 366 702 384 q 711 393 718 393 q 729 393 729 381 l 730 381 l 738 390 q 745 397 751 397 q 756 397 759 393 z m 781 382 q 781 373 765 364 q 763 363 762 363 l 760 363 q 756 363 751 370 q 754 367 759 367 q 769 373 772 384 l 772 387 l 772 388 l 772 390 q 766 390 753 376 l 753 375 q 748 369 748 365 q 747 361 747 358 q 745 360 745 367 q 742 361 741 357 q 738 351 738 346 q 738 345 739 343 q 739 340 745 340 q 760 346 771 355 q 774 358 778 361 q 775 357 772 353 q 769 349 762 345 q 750 337 741 340 q 741 339 739 340 q 730 340 730 349 q 730 364 747 379 q 756 393 771 393 q 774 393 775 391 q 781 387 781 382 z m 841 433 q 841 427 793 370 q 780 354 780 345 q 780 340 784 340 q 793 340 804 355 q 805 357 806 358 q 808 358 810 361 q 810 354 798 345 q 790 339 780 339 q 772 342 772 348 q 772 360 801 394 l 819 417 l 828 426 q 837 435 837 441 q 841 438 841 433 z m 922 387 q 897 396 895 415 q 888 411 880 407 q 873 403 868 399 q 840 372 840 349 q 840 340 844 339 l 847 339 l 850 339 q 873 339 892 354 q 898 360 906 368 q 915 375 922 387 z m 952 430 l 940 430 q 922 429 897 417 q 900 396 925 391 l 936 405 z m 979 457 q 960 457 944 454 q 928 451 916 444 q 924 451 935 456 q 946 460 960 463 q 930 465 907 445 q 903 442 897 430 q 907 433 917 434 q 927 436 939 435 q 942 435 946 435 q 951 435 958 433 q 961 438 966 444 q 972 450 979 457 z m 1074 459 q 1071 454 1067 450 q 1063 447 1056 444 q 1044 436 1033 436 l 1030 436 q 1029 436 1027 438 q 1029 439 1029 440 q 1029 442 1032 445 q 1018 456 994 456 l 988 448 l 973 430 q 985 429 996 428 q 1006 426 1015 426 q 1036 426 1044 430 q 1038 424 1021 421 q 1008 418 994 423 l 970 427 q 964 420 959 414 q 954 409 951 403 l 940 388 l 948 388 q 985 391 991 406 l 993 406 q 988 397 973 390 q 966 387 959 386 q 952 384 946 384 l 939 384 q 928 372 922 363 q 915 354 909 348 q 889 327 873 327 q 865 328 856 328 q 871 328 888 343 q 867 334 855 334 l 846 336 l 858 324 q 846 330 838 337 q 837 337 831 340 q 813 354 811 375 q 811 382 811 388 q 811 394 814 400 q 819 414 826 424 q 834 433 844 444 q 870 466 889 466 q 900 466 907 460 l 906 459 q 901 463 892 463 q 873 460 852 444 q 834 429 825 414 q 813 393 813 375 q 816 348 837 340 q 834 349 835 358 q 838 381 852 397 q 868 418 897 430 q 900 433 900 439 l 913 453 q 933 469 964 469 q 972 469 977 469 q 982 469 990 468 l 991 468 q 1002 475 1010 479 q 1018 483 1027 481 q 1033 481 1036 478 q 1020 475 1020 475 q 1017 474 1013 472 q 1009 471 1005 468 q 1011 466 1017 466 q 1023 465 1030 462 q 1045 457 1054 457 q 1068 457 1074 459 z m 982 354 q 978 358 978 364 q 978 367 978 370 q 979 372 979 375 q 964 355 966 346 q 966 343 969 343 q 972 343 982 354 z m 1002 385 q 1002 388 999 388 q 996 388 993 387 q 991 385 988 379 q 981 364 981 360 q 981 355 982 354 l 987 358 l 987 360 l 987 358 q 988 360 988 360 q 988 361 990 363 q 993 372 993 375 q 993 376 991 378 q 994 372 994 370 q 999 375 1002 385 z m 1008 381 q 1008 373 997 358 q 984 345 978 340 l 966 340 q 957 340 957 348 q 957 360 973 379 q 984 393 997 393 q 1008 393 1008 381 z m 1057 384 q 1059 381 1051 367 q 1042 355 1039 352 l 1021 336 q 1011 325 1008 313 q 1009 331 1021 345 q 1027 351 1030 356 q 1033 360 1036 366 q 1038 367 1039 372 l 1039 367 q 1039 367 1038 364 q 1041 367 1047 379 q 1047 381 1048 382 q 1048 382 1048 384 q 1048 391 1041 388 q 1041 388 1029 379 q 1026 372 1020 366 q 1015 361 1009 354 q 1002 345 1000 340 q 999 339 993 327 q 993 330 992 334 q 991 337 993 340 q 996 351 1006 361 l 1015 372 q 1023 382 1023 388 q 1023 390 1022 392 q 1021 393 1021 394 q 1030 391 1030 385 q 1039 393 1050 393 q 1056 390 1057 384 z m 1116 405 l 1093 405 q 1092 402 1084 393 q 1075 384 1063 367 q 1060 367 1057 360 q 1051 352 1051 345 q 1051 340 1054 340 q 1062 340 1075 355 l 1077 357 q 1078 358 1078 359 q 1078 360 1080 361 q 1080 354 1069 345 q 1062 339 1051 339 q 1044 342 1042 348 q 1042 351 1048 363 l 1066 384 l 1083 405 l 1057 408 q 1051 409 1042 409 l 1029 409 q 1011 409 993 402 l 991 402 q 1006 417 1038 417 q 1039 417 1050 414 q 1062 412 1083 409 l 1087 408 q 1092 415 1096 420 q 1099 426 1102 430 q 1105 429 1105 423 q 1105 418 1102 415 l 1096 406 l 1108 405 l 1117 405 l 1119 405 l 1123 405 z m 1126 385 q 1126 381 1116 376 l 1114 375 q 1119 379 1119 387 l 1119 393 l 1114 393 q 1107 393 1105 387 q 1105 384 1110 361 q 1111 340 1086 340 q 1072 340 1069 349 q 1068 351 1068 354 q 1068 366 1086 369 l 1092 367 l 1089 367 q 1083 367 1080 364 q 1075 357 1075 354 q 1075 342 1087 342 q 1099 342 1099 358 q 1099 366 1098 370 q 1096 375 1096 381 q 1096 396 1110 396 q 1113 396 1114 395 q 1116 394 1119 394 q 1125 391 1125 390 q 1126 388 1126 385 z"},"J":{"x_min":0,"x_max":694,"ha":694,"o":"m 1038 1525 q 1055 1548 1072 1559 q 1088 1570 1101 1570 q 1120 1570 1130 1555 q 1140 1540 1136 1512 q 1134 1495 1124 1474 q 1115 1452 1098 1428 q 1027 1328 966 1214 q 906 1099 854 978 q 801 857 754 733 q 708 609 665 490 q 627 384 588 280 q 549 177 506 80 q 531 64 554 45 q 577 26 595 7 q 613 -12 625 -30 q 637 -48 641 -61 q 645 -79 641 -94 q 637 -108 629 -118 q 621 -129 610 -134 q 600 -140 590 -140 q 567 -140 558 -117 l 559 -118 q 551 -102 528 -69 q 504 -36 466 -7 q 413 -117 352 -210 q 291 -303 219 -370 q 147 -437 62 -474 q -24 -511 -126 -509 q -195 -507 -238 -484 q -280 -462 -302 -428 q -325 -395 -331 -356 q -337 -316 -332 -280 q -326 -243 -311 -213 q -279 -145 -232 -93 q -186 -41 -132 -2 q -77 36 -17 62 q 43 88 102 104 q 162 120 218 126 q 273 133 319 133 q 347 133 373 130 q 419 232 460 339 q 502 446 544 554 q 576 637 608 718 q 639 799 670 875 q 702 951 734 1020 q 767 1088 800 1145 q 759 1105 718 1065 q 676 1025 634 987 q 586 943 542 902 q 499 860 464 823 q 429 786 406 754 q 382 723 375 699 l 375 700 q 370 683 367 670 q 364 656 362 645 q 357 613 364 602 q 370 592 381 592 q 388 592 396 594 q 404 596 413 599 l 423 602 q 445 605 462 591 q 479 577 476 555 q 474 544 466 533 q 458 522 441 511 q 431 504 415 500 q 399 496 381 496 q 357 496 331 504 q 305 512 286 530 q 266 548 256 577 q 245 606 251 649 q 253 666 258 685 q 263 704 272 725 q 285 755 320 798 q 354 840 403 890 q 452 940 510 994 q 569 1049 629 1104 q 688 1158 748 1214 q 808 1271 862 1326 q 917 1380 962 1431 q 1008 1482 1038 1525 z m -88 -427 q -27 -416 29 -376 q 85 -337 137 -276 q 189 -214 237 -134 q 285 -54 330 38 q 322 39 313 39 q 304 39 293 39 q 250 39 190 30 q 130 22 64 -7 q -3 -36 -70 -92 q -137 -147 -193 -240 q -210 -267 -215 -305 q -218 -327 -216 -349 q -213 -371 -202 -389 q -191 -407 -170 -418 q -150 -429 -117 -429 q -111 -429 -104 -428 q -96 -428 -88 -427 z"},"V":{"x_min":0,"x_max":966,"ha":966,"o":"m 570 1358 q 609 1358 633 1339 q 657 1320 668 1286 q 680 1251 680 1202 q 681 1153 673 1093 q 661 1011 634 910 q 608 809 574 702 q 540 594 502 486 q 465 379 431 285 q 409 225 390 170 q 370 114 354 68 q 339 22 329 -13 q 319 -48 316 -69 q 313 -87 314 -90 q 330 -88 375 -52 q 420 -16 482 46 q 544 109 619 194 q 694 279 772 379 q 849 479 924 590 q 998 702 1060 816 q 1121 931 1164 1046 q 1208 1160 1223 1267 q 1230 1317 1230 1365 q 1230 1413 1222 1456 q 1220 1461 1220 1470 q 1220 1480 1222 1488 q 1223 1499 1227 1510 q 1231 1522 1238 1530 q 1245 1538 1256 1542 q 1267 1547 1282 1545 q 1318 1539 1342 1521 q 1365 1503 1378 1474 q 1391 1446 1394 1408 q 1396 1369 1389 1323 q 1377 1236 1334 1125 q 1291 1014 1226 892 q 1162 769 1081 641 q 1000 513 911 392 q 822 272 730 165 q 638 58 552 -22 q 466 -102 392 -150 q 317 -197 262 -199 q 211 -194 196 -144 q 181 -93 192 -8 q 201 54 221 130 q 241 206 268 290 q 295 374 326 464 q 357 553 389 641 q 416 719 442 794 q 468 868 490 934 q 511 1001 526 1058 q 542 1115 548 1157 q 554 1199 550 1223 q 545 1247 526 1247 q 498 1247 470 1233 q 441 1219 414 1198 q 388 1177 365 1153 q 342 1129 324 1110 q 310 1096 300 1086 q 291 1075 281 1071 l 282 1071 q 250 1057 242 1072 q 235 1086 246 1113 q 249 1119 262 1140 q 274 1161 296 1188 q 317 1215 346 1245 q 375 1275 410 1300 q 445 1325 486 1342 q 526 1358 570 1358 z"},"7":{"x_min":0,"x_max":1219,"ha":1219,"o":"m 876 781 l 739 657 l 775 471 l 615 565 l 450 471 l 489 652 l 351 781 l 537 801 l 615 972 l 690 802 z m 682 576 l 639 834 l 586 834 l 541 576 l 564 562 l 583 576 l 592 634 l 631 634 l 642 576 l 663 562 z m 628 672 l 598 672 l 612 774 z m 610 21 l 631 21 l 624 39 q 622 42 622 44 q 622 46 619 49 q 619 45 616 39 z m 352 -5 l 352 3 l 363 3 l 363 -5 z m 844 -5 l 844 58 l 852 58 l 852 1 l 883 1 l 883 -5 z m 787 -5 l 787 58 l 832 58 l 832 49 l 795 49 l 795 30 l 829 30 l 829 22 l 795 22 l 795 1 l 832 1 l 832 -5 z m 565 -5 l 565 21 l 541 58 l 552 58 l 564 39 q 567 30 570 28 q 571 30 572 33 q 574 36 577 39 l 589 58 l 598 58 l 573 21 l 573 -5 z m 376 -5 l 376 58 l 400 58 q 403 58 406 56 q 408 55 409 55 q 415 54 417 49 q 420 46 420 40 q 420 36 417 34 q 415 28 411 28 q 415 27 420 22 q 423 16 423 13 q 423 10 422 8 q 421 7 421 6 q 420 0 415 0 q 414 -3 412 -3 q 411 -3 409 -5 l 400 -5 z m 205 -5 l 187 58 l 196 58 l 205 16 q 207 12 207 9 q 207 6 208 3 q 210 10 210 15 l 222 58 l 232 58 l 241 25 q 243 18 244 14 q 246 9 246 3 q 247 6 247 9 q 247 12 249 16 l 259 58 l 267 58 l 249 -5 l 241 -5 l 229 42 q 228 46 228 49 q 226 46 226 42 l 213 -5 z m 123 -5 l 105 58 l 115 58 l 123 16 q 123 9 127 3 q 129 10 129 15 l 141 58 l 150 58 l 160 25 q 162 18 162 14 q 163 9 163 3 q 166 6 166 9 q 166 12 168 16 l 177 58 l 186 58 l 168 -5 l 160 -5 l 148 42 q 147 46 147 49 q 144 46 144 42 l 130 -5 z m 384 30 l 397 30 q 403 30 405 33 q 409 33 409 34 q 411 36 411 40 q 411 45 409 46 l 408 46 q 406 46 406 47 q 406 48 405 48 q 403 49 396 49 l 384 49 z m 285 -5 l 268 58 l 277 58 l 286 16 q 288 12 288 9 q 288 6 291 3 q 291 9 292 11 q 292 13 292 15 l 304 58 l 313 58 l 324 25 q 325 18 326 14 q 327 9 327 3 q 330 6 330 9 q 330 12 331 16 l 342 58 l 349 58 l 331 -5 l 324 -5 l 312 42 q 310 46 310 49 q 307 46 307 42 l 294 -5 z m 664 28 l 682 28 q 685 28 688 29 q 690 30 693 30 q 696 30 696 34 q 697 36 697 40 q 697 45 694 48 q 693 49 684 49 l 664 49 z m 384 1 l 400 1 q 403 1 405 3 l 409 3 q 411 6 414 7 l 414 13 q 414 16 411 19 q 411 22 408 22 l 397 22 l 384 22 z m 435 -5 l 435 58 l 442 58 l 442 -5 z m 985 25 q 985 12 990 7 q 996 1 1006 1 q 1017 1 1021 7 q 1027 12 1027 27 q 1027 34 1026 39 q 1023 46 1018 48 q 1014 49 1006 49 q 997 49 993 45 q 985 39 985 25 z m 976 25 q 976 42 985 49 q 991 58 1006 58 q 1011 58 1014 56 q 1018 55 1021 54 q 1026 52 1028 49 q 1030 46 1033 42 q 1035 39 1035 27 q 1035 13 1032 9 q 1027 1 1021 -3 q 1015 -6 1006 -6 q 1002 -6 998 -6 q 994 -5 990 -3 q 987 0 984 3 q 982 6 981 9 q 979 13 978 17 q 976 21 976 25 z m 592 -5 l 616 58 l 625 58 l 651 -5 l 642 -5 l 634 13 l 609 13 l 600 -5 z m 459 -5 l 459 58 l 466 58 l 466 1 l 495 1 l 495 -5 z m 892 -5 l 892 3 l 903 3 l 903 -5 z m 748 19 l 748 27 l 774 27 l 774 3 q 768 -3 762 -5 q 759 -5 755 -6 q 751 -6 748 -6 q 739 -6 733 -3 q 729 0 726 2 q 723 4 721 9 q 720 13 718 17 q 717 21 717 25 q 717 31 718 34 q 720 37 721 42 q 724 51 732 54 q 735 55 740 56 q 744 58 748 58 q 756 58 760 55 q 766 54 768 49 q 772 45 774 40 l 766 39 q 766 40 762 45 q 762 48 756 49 l 748 49 l 739 49 q 735 48 732 45 q 732 43 727 39 q 727 36 726 33 q 726 30 726 27 q 726 16 729 13 q 735 4 736 3 q 741 1 748 1 q 754 1 759 3 q 762 6 764 6 q 765 6 766 7 l 766 19 z m 657 -5 l 657 58 l 684 58 q 688 58 691 56 q 694 55 697 55 q 702 54 703 49 q 706 46 706 40 q 706 33 702 28 q 700 27 696 26 q 693 25 688 22 q 691 22 692 22 q 693 21 694 21 q 696 18 696 16 q 697 13 700 10 l 712 -5 l 702 -5 l 693 7 q 690 10 689 12 q 688 15 687 16 q 687 19 686 19 q 684 19 682 21 l 681 21 q 679 21 679 22 q 679 22 678 22 l 675 22 l 664 22 l 664 -5 z m 505 -5 l 505 58 l 514 58 l 514 1 l 544 1 l 544 -5 z m 961 16 l 969 15 q 966 3 960 0 q 954 -6 943 -6 q 934 -6 928 -3 q 924 0 922 3 q 921 6 918 9 q 915 21 915 27 q 915 33 918 45 q 925 52 928 54 q 933 55 936 56 q 939 58 943 58 q 948 58 952 56 q 957 55 960 54 q 963 51 965 48 q 967 45 969 40 l 960 39 q 960 45 954 48 q 951 49 943 49 q 934 49 931 48 q 928 46 928 44 q 927 42 924 39 q 924 36 923 33 q 922 30 922 27 q 922 18 927 13 q 927 10 928 8 q 930 6 931 3 q 936 1 943 1 q 951 1 955 6 q 960 10 961 16 z m 1047 -5 l 1047 58 l 1059 58 l 1074 13 q 1074 10 1076 8 q 1077 6 1077 3 q 1077 4 1080 13 l 1093 58 l 1105 58 l 1105 -5 l 1098 -5 l 1098 46 l 1080 -5 l 1072 -5 l 1054 48 l 1054 -5 z m 610 21 l 631 21 l 624 39 q 622 42 622 44 q 622 46 619 49 q 619 45 616 39 z m 352 -5 l 352 3 l 363 3 l 363 -5 z m 844 -5 l 844 58 l 852 58 l 852 1 l 883 1 l 883 -5 z m 787 -5 l 787 58 l 832 58 l 832 49 l 795 49 l 795 30 l 829 30 l 829 22 l 795 22 l 795 1 l 832 1 l 832 -5 z m 565 -5 l 565 21 l 541 58 l 552 58 l 564 39 q 567 30 570 28 q 571 30 572 33 q 574 36 577 39 l 589 58 l 598 58 l 573 21 l 573 -5 z m 376 -5 l 376 58 l 400 58 q 403 58 406 56 q 408 55 409 55 q 415 54 417 49 q 420 46 420 40 q 420 36 417 34 q 415 28 411 28 q 415 27 420 22 q 423 16 423 13 q 423 10 422 8 q 421 7 421 6 q 420 0 415 0 q 414 -3 412 -3 q 411 -3 409 -5 l 400 -5 z m 205 -5 l 187 58 l 196 58 l 205 16 q 207 12 207 9 q 207 6 208 3 q 210 10 210 15 l 222 58 l 232 58 l 241 25 q 243 18 244 14 q 246 9 246 3 q 247 6 247 9 q 247 12 249 16 l 259 58 l 267 58 l 249 -5 l 241 -5 l 229 42 q 228 46 228 49 q 226 46 226 42 l 213 -5 z m 123 -5 l 105 58 l 115 58 l 123 16 q 123 9 127 3 q 129 10 129 15 l 141 58 l 150 58 l 160 25 q 162 18 162 14 q 163 9 163 3 q 166 6 166 9 q 166 12 168 16 l 177 58 l 186 58 l 168 -5 l 160 -5 l 148 42 q 147 46 147 49 q 144 46 144 42 l 130 -5 z m 384 30 l 397 30 q 403 30 405 33 q 409 33 409 34 q 411 36 411 40 q 411 45 409 46 l 408 46 q 406 46 406 47 q 406 48 405 48 q 403 49 396 49 l 384 49 z m 285 -5 l 268 58 l 277 58 l 286 16 q 288 12 288 9 q 288 6 291 3 q 291 9 292 11 q 292 13 292 15 l 304 58 l 313 58 l 324 25 q 325 18 326 14 q 327 9 327 3 q 330 6 330 9 q 330 12 331 16 l 342 58 l 349 58 l 331 -5 l 324 -5 l 312 42 q 310 46 310 49 q 307 46 307 42 l 294 -5 z m 664 28 l 682 28 q 685 28 688 29 q 690 30 693 30 q 696 30 696 34 q 697 36 697 40 q 697 45 694 48 q 693 49 684 49 l 664 49 z m 384 1 l 400 1 q 403 1 405 3 l 409 3 q 411 6 414 7 l 414 13 q 414 16 411 19 q 411 22 408 22 l 397 22 l 384 22 z m 435 -5 l 435 58 l 442 58 l 442 -5 z m 985 25 q 985 12 990 7 q 996 1 1006 1 q 1017 1 1021 7 q 1027 12 1027 27 q 1027 34 1026 39 q 1023 46 1018 48 q 1014 49 1006 49 q 997 49 993 45 q 985 39 985 25 z m 976 25 q 976 42 985 49 q 991 58 1006 58 q 1011 58 1014 56 q 1018 55 1021 54 q 1026 52 1028 49 q 1030 46 1033 42 q 1035 39 1035 27 q 1035 13 1032 9 q 1027 1 1021 -3 q 1015 -6 1006 -6 q 1002 -6 998 -6 q 994 -5 990 -3 q 987 0 984 3 q 982 6 981 9 q 979 13 978 17 q 976 21 976 25 z m 592 -5 l 616 58 l 625 58 l 651 -5 l 642 -5 l 634 13 l 609 13 l 600 -5 z m 459 -5 l 459 58 l 466 58 l 466 1 l 495 1 l 495 -5 z m 892 -5 l 892 3 l 903 3 l 903 -5 z m 748 19 l 748 27 l 774 27 l 774 3 q 768 -3 762 -5 q 759 -5 755 -6 q 751 -6 748 -6 q 739 -6 733 -3 q 729 0 726 2 q 723 4 721 9 q 720 13 718 17 q 717 21 717 25 q 717 31 718 34 q 720 37 721 42 q 724 51 732 54 q 735 55 740 56 q 744 58 748 58 q 756 58 760 55 q 766 54 768 49 q 772 45 774 40 l 766 39 q 766 40 762 45 q 762 48 756 49 l 748 49 l 739 49 q 735 48 732 45 q 732 43 727 39 q 727 36 726 33 q 726 30 726 27 q 726 16 729 13 q 735 4 736 3 q 741 1 748 1 q 754 1 759 3 q 762 6 764 6 q 765 6 766 7 l 766 19 z m 657 -5 l 657 58 l 684 58 q 688 58 691 56 q 694 55 697 55 q 702 54 703 49 q 706 46 706 40 q 706 33 702 28 q 700 27 696 26 q 693 25 688 22 q 691 22 692 22 q 693 21 694 21 q 696 18 696 16 q 697 13 700 10 l 712 -5 l 702 -5 l 693 7 q 690 10 689 12 q 688 15 687 16 q 687 19 686 19 q 684 19 682 21 l 681 21 q 679 21 679 22 q 679 22 678 22 l 675 22 l 664 22 l 664 -5 z m 505 -5 l 505 58 l 514 58 l 514 1 l 544 1 l 544 -5 z m 961 16 l 969 15 q 966 3 960 0 q 954 -6 943 -6 q 934 -6 928 -3 q 924 0 922 3 q 921 6 918 9 q 915 21 915 27 q 915 33 918 45 q 925 52 928 54 q 933 55 936 56 q 939 58 943 58 q 948 58 952 56 q 957 55 960 54 q 963 51 965 48 q 967 45 969 40 l 960 39 q 960 45 954 48 q 951 49 943 49 q 934 49 931 48 q 928 46 928 44 q 927 42 924 39 q 924 36 923 33 q 922 30 922 27 q 922 18 927 13 q 927 10 928 8 q 930 6 931 3 q 936 1 943 1 q 951 1 955 6 q 960 10 961 16 z m 1047 -5 l 1047 58 l 1059 58 l 1074 13 q 1074 10 1076 8 q 1077 6 1077 3 q 1077 4 1080 13 l 1093 58 l 1105 58 l 1105 -5 l 1098 -5 l 1098 46 l 1080 -5 l 1072 -5 l 1054 48 l 1054 -5 z m 610 21 l 631 21 l 624 39 q 622 42 622 44 q 622 46 619 49 q 619 45 616 39 z m 352 -5 l 352 3 l 363 3 l 363 -5 z m 844 -5 l 844 58 l 852 58 l 852 1 l 883 1 l 883 -5 z m 787 -5 l 787 58 l 832 58 l 832 49 l 795 49 l 795 30 l 829 30 l 829 22 l 795 22 l 795 1 l 832 1 l 832 -5 z m 565 -5 l 565 21 l 541 58 l 552 58 l 564 39 q 567 30 570 28 q 571 30 572 33 q 574 36 577 39 l 589 58 l 598 58 l 573 21 l 573 -5 z m 376 -5 l 376 58 l 400 58 q 403 58 406 56 q 408 55 409 55 q 415 54 417 49 q 420 46 420 40 q 420 36 417 34 q 415 28 411 28 q 415 27 420 22 q 423 16 423 13 q 423 10 422 8 q 421 7 421 6 q 420 0 415 0 q 414 -3 412 -3 q 411 -3 409 -5 l 400 -5 z m 205 -5 l 187 58 l 196 58 l 205 16 q 207 12 207 9 q 207 6 208 3 q 210 10 210 15 l 222 58 l 232 58 l 241 25 q 243 18 244 14 q 246 9 246 3 q 247 6 247 9 q 247 12 249 16 l 259 58 l 267 58 l 249 -5 l 241 -5 l 229 42 q 228 46 228 49 q 226 46 226 42 l 213 -5 z m 123 -5 l 105 58 l 115 58 l 123 16 q 123 9 127 3 q 129 10 129 15 l 141 58 l 150 58 l 160 25 q 162 18 162 14 q 163 9 163 3 q 166 6 166 9 q 166 12 168 16 l 177 58 l 186 58 l 168 -5 l 160 -5 l 148 42 q 147 46 147 49 q 144 46 144 42 l 130 -5 z m 384 30 l 397 30 q 403 30 405 33 q 409 33 409 34 q 411 36 411 40 q 411 45 409 46 l 408 46 q 406 46 406 47 q 406 48 405 48 q 403 49 396 49 l 384 49 z m 285 -5 l 268 58 l 277 58 l 286 16 q 288 12 288 9 q 288 6 291 3 q 291 9 292 11 q 292 13 292 15 l 304 58 l 313 58 l 324 25 q 325 18 326 14 q 327 9 327 3 q 330 6 330 9 q 330 12 331 16 l 342 58 l 349 58 l 331 -5 l 324 -5 l 312 42 q 310 46 310 49 q 307 46 307 42 l 294 -5 z m 664 28 l 682 28 q 685 28 688 29 q 690 30 693 30 q 696 30 696 34 q 697 36 697 40 q 697 45 694 48 q 693 49 684 49 l 664 49 z m 384 1 l 400 1 q 403 1 405 3 l 409 3 q 411 6 414 7 l 414 13 q 414 16 411 19 q 411 22 408 22 l 397 22 l 384 22 z m 435 -5 l 435 58 l 442 58 l 442 -5 z m 985 25 q 985 12 990 7 q 996 1 1006 1 q 1017 1 1021 7 q 1027 12 1027 27 q 1027 34 1026 39 q 1023 46 1018 48 q 1014 49 1006 49 q 997 49 993 45 q 985 39 985 25 z m 976 25 q 976 42 985 49 q 991 58 1006 58 q 1011 58 1014 56 q 1018 55 1021 54 q 1026 52 1028 49 q 1030 46 1033 42 q 1035 39 1035 27 q 1035 13 1032 9 q 1027 1 1021 -3 q 1015 -6 1006 -6 q 1002 -6 998 -6 q 994 -5 990 -3 q 987 0 984 3 q 982 6 981 9 q 979 13 978 17 q 976 21 976 25 z m 592 -5 l 616 58 l 625 58 l 651 -5 l 642 -5 l 634 13 l 609 13 l 600 -5 z m 459 -5 l 459 58 l 466 58 l 466 1 l 495 1 l 495 -5 z m 892 -5 l 892 3 l 903 3 l 903 -5 z m 748 19 l 748 27 l 774 27 l 774 3 q 768 -3 762 -5 q 759 -5 755 -6 q 751 -6 748 -6 q 739 -6 733 -3 q 729 0 726 2 q 723 4 721 9 q 720 13 718 17 q 717 21 717 25 q 717 31 718 34 q 720 37 721 42 q 724 51 732 54 q 735 55 740 56 q 744 58 748 58 q 756 58 760 55 q 766 54 768 49 q 772 45 774 40 l 766 39 q 766 40 762 45 q 762 48 756 49 l 748 49 l 739 49 q 735 48 732 45 q 732 43 727 39 q 727 36 726 33 q 726 30 726 27 q 726 16 729 13 q 735 4 736 3 q 741 1 748 1 q 754 1 759 3 q 762 6 764 6 q 765 6 766 7 l 766 19 z m 657 -5 l 657 58 l 684 58 q 688 58 691 56 q 694 55 697 55 q 702 54 703 49 q 706 46 706 40 q 706 33 702 28 q 700 27 696 26 q 693 25 688 22 q 691 22 692 22 q 693 21 694 21 q 696 18 696 16 q 697 13 700 10 l 712 -5 l 702 -5 l 693 7 q 690 10 689 12 q 688 15 687 16 q 687 19 686 19 q 684 19 682 21 l 681 21 q 679 21 679 22 q 679 22 678 22 l 675 22 l 664 22 l 664 -5 z m 505 -5 l 505 58 l 514 58 l 514 1 l 544 1 l 544 -5 z m 961 16 l 969 15 q 966 3 960 0 q 954 -6 943 -6 q 934 -6 928 -3 q 924 0 922 3 q 921 6 918 9 q 915 21 915 27 q 915 33 918 45 q 925 52 928 54 q 933 55 936 56 q 939 58 943 58 q 948 58 952 56 q 957 55 960 54 q 963 51 965 48 q 967 45 969 40 l 960 39 q 960 45 954 48 q 951 49 943 49 q 934 49 931 48 q 928 46 928 44 q 927 42 924 39 q 924 36 923 33 q 922 30 922 27 q 922 18 927 13 q 927 10 928 8 q 930 6 931 3 q 936 1 943 1 q 951 1 955 6 q 960 10 961 16 z m 1047 -5 l 1047 58 l 1059 58 l 1074 13 q 1074 10 1076 8 q 1077 6 1077 3 q 1077 4 1080 13 l 1093 58 l 1105 58 l 1105 -5 l 1098 -5 l 1098 46 l 1080 -5 l 1072 -5 l 1054 48 l 1054 -5 z m 175 111 l 187 106 q 184 93 174 84 q 162 75 148 75 q 135 75 123 81 q 111 90 109 99 q 103 109 103 124 q 103 141 109 151 q 114 162 124 166 q 135 172 148 172 q 165 172 171 165 q 181 162 186 145 l 174 144 q 168 156 163 157 q 157 163 148 163 q 136 163 130 157 q 121 151 118 144 q 117 138 117 124 q 117 111 121 105 q 124 94 130 91 q 138 85 147 85 q 159 85 166 93 q 169 96 172 100 q 174 105 175 111 z m 199 123 q 199 135 202 144 q 205 153 213 159 q 219 166 227 169 q 235 172 244 172 q 258 172 268 166 q 277 162 285 150 q 291 135 291 124 q 291 117 290 111 q 288 105 285 99 q 277 87 267 81 q 255 75 244 75 q 237 75 232 76 q 226 78 220 81 q 210 87 205 99 q 199 109 199 123 z m 213 123 q 213 105 220 94 q 231 85 244 85 q 259 85 267 97 q 277 108 277 124 q 277 130 276 134 q 274 139 273 144 q 270 154 261 157 q 256 163 244 163 q 232 163 222 153 q 213 145 213 123 z m 306 78 l 306 171 l 324 171 l 346 105 q 351 96 351 91 q 354 94 357 106 l 381 171 l 396 171 l 396 78 l 384 78 l 384 156 l 357 78 l 345 78 l 318 157 l 318 78 z m 417 78 l 417 171 l 453 171 l 466 171 q 474 171 478 166 q 480 165 486 157 q 487 154 488 151 q 489 148 489 144 q 489 135 481 124 q 474 117 453 117 l 429 117 l 429 78 z m 429 126 l 454 126 q 468 126 469 132 q 475 133 475 144 q 475 151 474 153 q 468 159 463 159 q 462 162 453 162 l 429 162 z m 505 78 l 505 171 l 517 171 l 517 87 l 564 87 l 564 78 z m 579 78 l 579 171 l 648 171 l 648 162 l 591 162 l 591 132 l 643 132 l 643 120 l 591 120 l 591 87 l 649 87 l 649 78 z m 690 78 l 690 162 l 658 162 l 658 171 l 735 171 l 735 162 l 703 162 l 703 78 z m 748 78 l 748 171 l 817 171 l 817 162 l 760 162 l 760 132 l 813 132 l 813 120 l 760 120 l 760 87 l 819 87 l 819 78 z m 870 106 l 882 108 q 882 100 885 97 q 888 91 895 88 q 898 87 909 87 q 912 87 916 87 q 919 87 922 88 q 927 88 930 94 q 931 97 931 103 q 931 108 930 111 q 928 112 926 113 q 924 114 921 117 q 919 117 904 120 q 897 123 892 124 q 888 124 885 126 q 879 129 876 136 q 873 138 872 141 q 871 144 871 147 q 871 156 877 162 q 879 165 882 166 q 885 168 889 171 q 892 172 907 172 q 918 172 924 169 q 928 166 931 164 q 934 163 936 159 q 942 154 942 145 l 930 144 q 927 156 922 157 q 918 162 907 162 q 892 162 889 157 q 885 153 885 147 q 885 142 889 139 q 889 139 907 132 q 915 130 920 128 q 925 127 928 126 q 933 124 935 122 q 937 120 940 117 q 943 112 943 103 q 943 93 940 88 q 934 82 928 79 q 924 78 920 76 q 915 75 909 75 q 903 75 897 76 q 891 78 888 79 q 880 81 873 91 q 870 97 870 106 z m 961 78 l 961 171 l 1029 171 l 1029 162 l 975 162 l 975 132 l 1027 132 l 1027 120 l 975 120 l 975 87 l 1032 87 l 1032 78 z m 1074 78 l 1074 162 l 1044 162 l 1044 171 l 1117 171 l 1117 162 l 1086 162 l 1086 78 z m 112 190 l 112 283 l 150 283 l 163 283 q 166 283 175 280 q 177 279 179 276 q 181 273 183 270 q 186 267 186 259 q 186 246 177 237 q 172 229 150 229 l 127 229 l 127 190 z m 127 241 l 150 241 q 163 241 168 244 q 174 250 174 256 q 174 259 172 262 q 171 265 169 268 q 165 273 162 273 q 160 274 150 274 l 127 274 z m 201 190 l 201 283 l 268 283 l 268 274 l 214 274 l 214 244 l 265 244 l 265 234 l 214 234 l 214 202 l 271 202 l 271 190 z m 288 190 l 288 283 l 331 283 q 345 283 351 282 q 358 279 361 274 q 364 262 364 259 q 364 249 358 243 q 352 237 337 234 q 340 231 342 231 q 343 231 345 229 q 352 222 355 216 l 372 190 l 357 190 l 343 210 q 342 214 340 217 q 337 220 336 223 q 333 225 332 227 q 331 229 330 229 q 327 231 324 231 q 322 234 316 234 l 303 234 l 303 190 z m 303 243 l 327 243 q 339 243 342 244 q 346 249 349 250 q 351 253 351 259 q 351 265 346 270 q 342 274 331 274 l 303 274 z m 381 222 l 391 222 q 391 219 392 216 q 394 213 396 210 q 397 208 400 206 q 402 204 405 204 q 414 201 420 201 q 423 201 426 201 q 429 201 430 202 q 439 205 441 208 q 441 210 442 212 q 442 214 442 216 q 442 222 441 223 q 436 226 430 229 q 429 231 425 231 q 421 231 415 234 q 402 235 396 240 q 388 246 385 249 q 384 253 384 261 q 384 264 384 268 q 385 271 388 274 q 390 280 400 283 q 403 286 417 286 q 429 286 435 283 q 444 279 447 273 q 453 264 453 259 l 441 256 q 438 267 433 270 q 427 276 417 276 q 405 276 400 270 q 396 267 396 261 q 396 255 400 253 q 402 250 417 247 q 430 241 439 241 q 442 238 445 236 q 448 234 450 231 q 454 226 454 217 q 454 210 450 204 q 447 199 444 197 q 442 195 439 192 q 427 189 420 189 q 409 189 397 192 q 393 195 390 197 q 387 199 384 204 q 382 208 382 212 q 381 216 381 222 z m 468 237 q 468 258 480 273 q 493 286 513 286 q 519 286 524 284 q 529 283 537 280 q 543 277 546 272 q 549 268 552 262 q 558 252 558 237 q 558 223 552 211 q 546 201 537 195 q 525 189 513 189 q 499 189 489 196 q 475 204 474 214 q 468 222 468 237 z m 480 237 q 480 219 489 210 q 498 201 513 201 q 528 201 537 210 q 544 220 544 237 q 544 243 544 249 q 543 255 540 259 q 535 267 531 270 q 523 276 513 276 q 505 276 500 274 q 496 271 489 267 q 480 258 480 237 z m 573 190 l 573 283 l 586 283 l 636 211 l 636 283 l 648 283 l 648 190 l 636 190 l 585 264 l 585 190 z m 658 190 l 694 283 l 708 283 l 747 190 l 732 190 l 721 220 l 682 220 l 670 190 z m 684 229 l 717 229 l 708 255 q 705 261 704 266 q 702 271 700 274 q 700 270 698 266 q 697 261 696 256 z m 754 190 l 754 283 l 768 283 l 768 202 l 814 202 l 814 190 z m 922 283 l 934 283 l 934 231 q 934 214 931 208 q 928 199 921 195 q 913 189 898 189 q 883 189 877 195 q 873 196 870 200 q 867 204 864 208 q 862 211 862 231 l 862 283 l 873 283 l 873 231 q 873 216 876 211 q 879 205 883 204 q 886 202 889 202 q 892 201 897 201 q 909 201 916 205 q 922 211 922 231 z m 951 222 l 963 222 q 963 219 964 216 q 966 213 967 210 q 969 208 971 206 q 973 204 976 204 q 985 201 990 201 q 1000 201 1005 202 q 1008 204 1012 208 q 1014 210 1014 216 q 1014 222 1012 223 q 1009 225 1008 226 q 1008 228 1005 229 q 1002 231 998 231 q 993 231 987 234 q 981 235 976 236 q 970 237 969 240 q 961 243 960 249 q 955 253 955 261 q 955 267 960 274 q 961 280 970 283 q 976 286 988 286 q 993 286 998 286 q 1003 286 1006 283 q 1015 279 1020 273 q 1021 270 1022 266 q 1024 262 1024 259 l 1012 256 q 1009 261 1008 264 q 1008 268 1005 270 q 1000 276 988 276 q 975 276 973 270 q 967 268 967 261 q 967 256 970 253 q 973 250 988 247 q 1005 241 1009 241 q 1014 238 1017 236 q 1020 234 1021 231 q 1026 228 1026 217 q 1026 208 1021 204 q 1018 199 1016 197 q 1014 195 1009 192 q 1000 189 993 189 q 985 189 980 190 q 975 190 970 192 q 967 195 964 197 q 960 199 957 204 q 954 208 952 212 q 951 216 951 222 z m 1044 190 l 1044 283 l 1111 283 l 1111 274 l 1057 274 l 1057 244 l 1107 244 l 1107 234 l 1057 234 l 1057 202 l 1113 202 l 1113 190 z m 307 388 q 307 403 285 406 q 282 406 278 407 q 273 408 267 408 l 258 397 l 234 372 q 228 364 222 358 q 217 352 210 348 q 219 345 232 343 q 235 343 240 343 q 246 343 250 345 q 273 346 285 357 q 307 375 307 388 z m 324 433 q 324 439 316 439 q 313 439 291 432 l 274 417 q 271 414 268 408 l 294 412 q 300 412 310 420 q 324 429 324 433 z m 343 460 q 343 457 339 457 q 336 457 335 458 q 334 459 331 459 q 316 456 297 436 q 300 439 304 440 q 307 442 310 444 q 321 445 330 444 q 336 444 336 436 l 336 430 q 328 417 294 409 q 321 406 321 391 q 321 373 292 354 q 282 348 270 344 q 259 340 247 339 q 228 334 217 336 q 208 336 198 340 q 189 334 181 334 l 178 334 q 169 337 163 339 l 168 339 q 180 339 187 345 l 187 346 q 177 340 165 340 q 148 340 139 349 q 124 360 124 381 q 124 387 126 392 q 127 397 130 405 q 141 427 166 444 q 174 451 182 454 q 190 456 198 457 q 214 457 220 451 q 213 456 205 456 q 196 456 186 450 q 171 444 169 441 q 154 433 139 415 q 126 394 126 379 q 126 372 128 368 q 129 363 132 358 q 138 349 148 346 q 153 345 156 344 q 159 343 162 343 q 168 343 172 344 q 177 346 183 349 q 166 361 166 382 q 169 402 190 417 l 187 412 q 184 412 181 406 q 172 397 172 387 q 172 367 195 354 q 207 361 207 363 q 210 367 213 370 q 216 373 219 376 q 222 379 222 384 q 223 388 226 393 l 226 391 q 226 384 225 379 l 243 400 q 289 453 319 462 q 306 466 298 466 q 279 465 256 453 q 229 439 229 420 q 229 414 234 409 q 235 408 235 406 q 226 412 226 421 q 226 438 246 454 q 270 472 297 469 q 306 469 324 463 l 330 463 q 337 463 342 460 z m 346 363 q 345 357 334 346 q 324 340 316 340 q 309 340 309 349 q 309 357 318 369 l 316 369 q 315 367 310 367 q 310 367 309 369 q 313 369 324 379 l 325 379 l 330 385 q 334 390 334 393 l 339 393 q 343 393 343 391 q 343 385 334 375 l 324 364 q 315 351 315 346 q 315 342 321 342 q 328 342 339 357 q 340 358 342 359 q 343 360 346 363 z m 354 405 q 348 396 339 396 q 334 396 328 400 l 333 400 q 343 400 346 411 l 346 414 l 354 411 q 355 409 354 405 z m 406 433 q 406 426 360 370 l 358 370 q 345 354 345 345 q 345 340 349 340 q 358 340 369 355 q 370 357 372 358 q 373 358 375 361 q 375 354 363 345 q 355 339 346 339 q 337 340 337 348 q 336 355 367 394 l 385 417 l 394 426 q 399 432 402 441 q 406 438 406 433 z m 432 433 q 432 427 384 370 q 369 352 369 345 q 369 340 375 340 q 381 340 394 355 l 400 361 q 399 354 387 345 q 379 339 370 339 q 361 340 361 348 q 361 357 391 394 l 409 417 l 418 426 q 426 435 427 441 q 432 438 432 433 z m 403 333 q 379 328 366 315 q 355 301 355 298 q 355 292 361 292 q 363 291 372 294 q 375 297 378 300 q 382 304 387 309 z m 447 430 q 444 409 427 393 q 427 391 426 391 q 426 391 426 390 q 421 384 416 378 q 411 373 406 366 q 403 363 403 360 q 402 363 405 369 q 396 355 396 348 q 396 343 400 343 q 402 343 408 346 q 430 364 439 397 l 439 393 l 439 388 q 442 385 442 381 q 442 378 435 366 l 423 346 l 409 328 q 414 331 426 337 l 424 336 q 421 333 416 329 q 411 325 406 318 l 394 303 l 388 295 q 379 286 369 283 q 360 283 355 289 q 346 292 352 303 q 354 304 356 307 q 357 310 360 313 l 361 315 l 351 313 q 376 331 393 333 q 394 333 396 334 q 397 334 399 334 l 400 334 l 403 334 l 412 348 q 406 342 402 341 q 397 340 394 340 q 387 340 387 348 q 387 366 418 394 l 421 396 l 436 411 q 439 417 442 422 q 445 426 447 430 z m 618 453 q 609 456 603 456 q 588 456 575 452 q 562 448 549 441 q 543 438 539 434 q 535 430 531 427 q 549 426 579 408 q 612 441 636 450 z m 649 447 q 643 445 636 443 q 630 441 622 433 q 618 430 600 412 l 589 402 l 604 393 q 607 397 613 404 q 619 411 627 420 z m 663 472 q 663 471 661 469 q 661 459 657 448 l 658 447 l 657 447 q 649 429 637 417 l 613 388 q 616 387 618 387 q 619 387 622 385 q 622 382 621 382 q 618 382 616 383 q 615 384 612 385 q 594 366 592 349 q 589 343 589 340 q 589 334 595 334 q 607 334 621 354 l 627 363 q 642 384 646 400 l 646 405 q 646 403 648 402 l 648 400 q 645 379 633 361 l 613 322 q 613 328 618 342 q 600 328 591 328 q 577 328 580 346 q 580 355 586 366 q 592 378 601 391 l 586 399 l 573 385 q 568 379 560 370 q 552 361 540 346 q 516 322 498 322 l 493 322 q 489 322 480 327 q 480 327 483 327 q 496 324 510 337 q 498 331 481 331 q 465 331 454 339 l 456 339 q 441 349 441 370 q 441 385 447 393 q 456 417 481 433 q 490 441 498 443 q 507 445 516 447 q 531 447 537 441 l 535 441 q 532 444 522 444 q 507 444 484 430 q 468 418 456 405 q 442 384 442 367 q 442 343 465 336 q 474 333 478 333 q 510 334 547 375 l 576 405 q 553 418 525 418 l 523 418 q 520 412 520 405 q 522 405 528 396 q 517 402 517 411 q 517 415 519 418 q 504 415 499 412 q 472 402 475 381 q 475 367 484 357 l 487 354 q 469 372 469 385 q 469 405 487 418 q 502 429 525 429 q 546 453 577 457 q 585 459 601 459 q 609 459 624 456 l 642 451 l 651 451 l 652 450 q 658 460 661 475 l 663 475 z m 682 375 q 682 370 681 367 q 673 360 668 354 q 663 348 658 340 l 660 340 l 661 340 q 660 339 658 339 q 657 339 657 337 q 649 337 649 340 q 649 346 663 360 q 673 373 673 376 q 675 381 669 385 q 651 360 637 354 l 631 351 l 628 352 q 634 352 648 367 q 661 379 666 387 q 666 388 665 388 q 664 388 664 390 q 664 391 675 400 q 675 402 676 402 l 678 400 q 678 399 670 388 q 682 384 682 375 z m 726 379 q 726 388 720 385 q 714 385 711 382 q 706 379 697 367 q 688 355 688 348 q 687 345 691 345 q 700 348 706 355 q 712 367 712 372 q 712 375 711 375 q 717 375 717 367 l 715 364 q 718 367 720 371 q 723 375 726 378 z m 754 393 q 748 393 741 385 q 735 378 729 369 q 723 360 715 348 q 708 333 702 324 q 696 316 694 313 q 675 289 664 289 q 655 288 651 295 q 651 303 651 303 q 651 310 657 316 q 654 315 649 315 q 664 330 682 334 q 684 334 684 335 q 685 336 688 336 l 690 334 q 661 325 655 307 q 654 304 654 300 q 654 298 655 297 q 655 295 657 295 q 669 294 685 318 l 696 333 l 702 342 q 697 340 694 340 q 682 340 682 352 q 682 366 702 384 q 711 393 718 393 q 729 393 729 381 l 730 381 l 738 390 q 745 397 751 397 q 756 397 759 393 z m 781 382 q 781 373 765 364 q 763 363 762 363 l 760 363 q 756 363 751 370 q 754 367 759 367 q 769 373 772 384 l 772 387 l 772 388 l 772 390 q 766 390 753 376 l 753 375 q 748 369 748 365 q 747 361 747 358 q 745 360 745 367 q 742 361 741 357 q 738 351 738 346 q 738 345 739 343 q 739 340 745 340 q 760 346 771 355 q 774 358 778 361 q 775 357 772 353 q 769 349 762 345 q 750 337 741 340 q 741 339 739 340 q 730 340 730 349 q 730 364 747 379 q 756 393 771 393 q 774 393 775 391 q 781 387 781 382 z m 841 433 q 841 427 793 370 q 780 354 780 345 q 780 340 784 340 q 793 340 804 355 q 805 357 806 358 q 808 358 810 361 q 810 354 798 345 q 790 339 780 339 q 772 342 772 348 q 772 360 801 394 l 819 417 l 828 426 q 837 435 837 441 q 841 438 841 433 z m 922 387 q 897 396 895 415 q 888 411 880 407 q 873 403 868 399 q 840 372 840 349 q 840 340 844 339 l 847 339 l 850 339 q 873 339 892 354 q 898 360 906 368 q 915 375 922 387 z m 952 430 l 940 430 q 922 429 897 417 q 900 396 925 391 l 936 405 z m 979 457 q 960 457 944 454 q 928 451 916 444 q 924 451 935 456 q 946 460 960 463 q 930 465 907 445 q 903 442 897 430 q 907 433 917 434 q 927 436 939 435 q 942 435 946 435 q 951 435 958 433 q 961 438 966 444 q 972 450 979 457 z m 1074 459 q 1071 454 1067 450 q 1063 447 1056 444 q 1044 436 1033 436 l 1030 436 q 1029 436 1027 438 q 1029 439 1029 440 q 1029 442 1032 445 q 1018 456 994 456 l 988 448 l 973 430 q 985 429 996 428 q 1006 426 1015 426 q 1036 426 1044 430 q 1038 424 1021 421 q 1008 418 994 423 l 970 427 q 964 420 959 414 q 954 409 951 403 l 940 388 l 948 388 q 985 391 991 406 l 993 406 q 988 397 973 390 q 966 387 959 386 q 952 384 946 384 l 939 384 q 928 372 922 363 q 915 354 909 348 q 889 327 873 327 q 865 328 856 328 q 871 328 888 343 q 867 334 855 334 l 846 336 l 858 324 q 846 330 838 337 q 837 337 831 340 q 813 354 811 375 q 811 382 811 388 q 811 394 814 400 q 819 414 826 424 q 834 433 844 444 q 870 466 889 466 q 900 466 907 460 l 906 459 q 901 463 892 463 q 873 460 852 444 q 834 429 825 414 q 813 393 813 375 q 816 348 837 340 q 834 349 835 358 q 838 381 852 397 q 868 418 897 430 q 900 433 900 439 l 913 453 q 933 469 964 469 q 972 469 977 469 q 982 469 990 468 l 991 468 q 1002 475 1010 479 q 1018 483 1027 481 q 1033 481 1036 478 q 1020 475 1020 475 q 1017 474 1013 472 q 1009 471 1005 468 q 1011 466 1017 466 q 1023 465 1030 462 q 1045 457 1054 457 q 1068 457 1074 459 z m 982 354 q 978 358 978 364 q 978 367 978 370 q 979 372 979 375 q 964 355 966 346 q 966 343 969 343 q 972 343 982 354 z m 1002 385 q 1002 388 999 388 q 996 388 993 387 q 991 385 988 379 q 981 364 981 360 q 981 355 982 354 l 987 358 l 987 360 l 987 358 q 988 360 988 360 q 988 361 990 363 q 993 372 993 375 q 993 376 991 378 q 994 372 994 370 q 999 375 1002 385 z m 1008 381 q 1008 373 997 358 q 984 345 978 340 l 966 340 q 957 340 957 348 q 957 360 973 379 q 984 393 997 393 q 1008 393 1008 381 z m 1057 384 q 1059 381 1051 367 q 1042 355 1039 352 l 1021 336 q 1011 325 1008 313 q 1009 331 1021 345 q 1027 351 1030 356 q 1033 360 1036 366 q 1038 367 1039 372 l 1039 367 q 1039 367 1038 364 q 1041 367 1047 379 q 1047 381 1048 382 q 1048 382 1048 384 q 1048 391 1041 388 q 1041 388 1029 379 q 1026 372 1020 366 q 1015 361 1009 354 q 1002 345 1000 340 q 999 339 993 327 q 993 330 992 334 q 991 337 993 340 q 996 351 1006 361 l 1015 372 q 1023 382 1023 388 q 1023 390 1022 392 q 1021 393 1021 394 q 1030 391 1030 385 q 1039 393 1050 393 q 1056 390 1057 384 z m 1116 405 l 1093 405 q 1092 402 1084 393 q 1075 384 1063 367 q 1060 367 1057 360 q 1051 352 1051 345 q 1051 340 1054 340 q 1062 340 1075 355 l 1077 357 q 1078 358 1078 359 q 1078 360 1080 361 q 1080 354 1069 345 q 1062 339 1051 339 q 1044 342 1042 348 q 1042 351 1048 363 l 1066 384 l 1083 405 l 1057 408 q 1051 409 1042 409 l 1029 409 q 1011 409 993 402 l 991 402 q 1006 417 1038 417 q 1039 417 1050 414 q 1062 412 1083 409 l 1087 408 q 1092 415 1096 420 q 1099 426 1102 430 q 1105 429 1105 423 q 1105 418 1102 415 l 1096 406 l 1108 405 l 1117 405 l 1119 405 l 1123 405 z m 1126 385 q 1126 381 1116 376 l 1114 375 q 1119 379 1119 387 l 1119 393 l 1114 393 q 1107 393 1105 387 q 1105 384 1110 361 q 1111 340 1086 340 q 1072 340 1069 349 q 1068 351 1068 354 q 1068 366 1086 369 l 1092 367 l 1089 367 q 1083 367 1080 364 q 1075 357 1075 354 q 1075 342 1087 342 q 1099 342 1099 358 q 1099 366 1098 370 q 1096 375 1096 381 q 1096 396 1110 396 q 1113 396 1114 395 q 1116 394 1119 394 q 1125 391 1125 390 q 1126 388 1126 385 z"},"S":{"x_min":0,"x_max":869,"ha":869,"o":"m 948 1528 q 1011 1524 1052 1498 q 1094 1471 1118 1430 q 1141 1389 1148 1338 q 1154 1287 1147 1235 q 1141 1191 1126 1150 q 1111 1109 1088 1074 q 1077 1057 1054 1048 q 1032 1038 1015 1038 q 995 1038 986 1048 q 978 1058 992 1077 l 991 1076 q 1011 1105 1023 1138 q 1035 1171 1040 1203 q 1046 1243 1040 1280 q 1034 1318 1016 1346 q 998 1374 968 1390 q 938 1405 896 1402 q 854 1399 814 1386 q 773 1373 738 1348 q 704 1324 678 1288 q 651 1251 637 1200 q 634 1191 632 1182 q 631 1173 629 1164 q 623 1124 629 1084 q 635 1045 649 1005 q 663 965 682 924 q 702 883 723 841 q 750 787 776 730 q 803 673 822 610 q 840 548 848 478 q 856 409 845 331 q 839 290 827 246 q 815 202 798 159 q 767 84 723 28 q 679 -28 630 -68 q 581 -108 530 -134 q 478 -160 432 -175 q 386 -190 348 -196 q 310 -202 287 -203 q 196 -205 142 -174 q 88 -143 60 -96 q 32 -48 26 8 q 21 63 27 109 q 31 143 41 169 l 41 168 q 66 238 99 289 q 132 340 166 375 q 199 410 232 431 q 264 452 288 461 q 305 468 321 468 q 349 468 363 452 q 377 435 375 418 q 372 394 341 384 q 323 378 300 361 q 277 344 253 316 q 229 287 205 246 q 181 205 161 151 q 159 145 155 132 q 151 120 149 105 q 146 80 148 50 q 151 20 169 -6 q 187 -33 224 -50 q 260 -68 324 -68 q 340 -68 375 -60 q 410 -51 454 -26 q 498 -1 546 45 q 593 91 632 166 q 677 256 687 333 q 695 390 689 442 q 683 494 668 543 q 652 592 630 639 q 608 686 586 733 q 563 779 541 826 q 519 873 504 922 q 489 971 482 1022 q 476 1073 484 1128 q 486 1143 489 1160 q 492 1177 497 1193 q 521 1258 566 1320 q 612 1383 672 1430 q 732 1478 803 1506 q 874 1533 948 1528 z"},"}":{"x_min":0,"x_max":0,"ha":0,"o":"m 1402 -146 q 1412 -150 1412 -164 q 1412 -177 1404 -192 q 1396 -206 1380 -216 q 1365 -225 1345 -222 q 1329 -219 1245 -212 q 1161 -206 1021 -199 q 881 -192 690 -187 q 498 -182 268 -182 q 97 -182 -93 -186 q -283 -190 -488 -199 q -692 -208 -908 -223 q -1124 -238 -1347 -260 q -1570 -283 -1798 -314 q -2026 -345 -2254 -385 q -2285 -387 -2296 -371 q -2306 -355 -2303 -332 q -2301 -317 -2294 -300 q -2286 -284 -2274 -270 q -2263 -257 -2250 -248 q -2237 -239 -2223 -238 q -2064 -209 -1892 -186 q -1720 -162 -1540 -144 q -1361 -127 -1177 -115 q -993 -103 -810 -96 q -628 -88 -450 -84 q -271 -81 -102 -81 q 100 -81 288 -85 q 475 -89 638 -95 q 802 -101 938 -108 q 1074 -116 1174 -123 q 1273 -130 1332 -136 q 1391 -143 1402 -146 z"},"Z":{"x_min":0,"x_max":1466,"ha":1466,"o":"m 621 1228 q 608 1228 596 1231 q 583 1234 575 1240 q 567 1247 566 1259 q 565 1271 575 1289 q 574 1313 607 1332 q 640 1350 698 1363 q 755 1376 832 1386 q 908 1395 994 1400 q 1080 1405 1170 1408 q 1261 1410 1346 1410 q 1486 1410 1582 1405 q 1678 1400 1725 1393 q 1737 1394 1746 1389 q 1786 1381 1752 1375 q 1752 1364 1744 1350 q 1737 1335 1725 1319 q 1713 1303 1698 1288 q 1684 1273 1670 1261 q 1563 1181 1442 1084 q 1320 986 1194 881 q 1068 776 942 669 q 816 562 701 462 q 431 228 158 -16 q 177 -14 196 -13 q 214 -12 235 -12 q 285 -12 349 -20 q 413 -27 472 -36 q 509 -41 549 -46 q 589 -52 630 -56 q 671 -61 712 -64 q 753 -67 792 -67 q 865 -67 940 -55 q 1015 -43 1088 -14 q 1161 16 1231 66 q 1301 115 1365 189 q 1376 201 1386 203 q 1395 205 1402 199 q 1408 193 1410 180 q 1413 168 1411 152 q 1409 136 1400 118 q 1392 100 1375 83 q 1286 -1 1202 -56 q 1118 -110 1038 -142 q 958 -175 882 -188 q 806 -201 734 -201 q 643 -201 558 -186 q 474 -171 392 -154 q 316 -138 243 -125 q 170 -112 98 -112 q 78 -112 57 -114 q 36 -115 16 -118 q -10 -121 -18 -109 q -27 -97 -25 -79 q -22 -60 -12 -40 q -3 -21 4 -13 q 76 74 172 170 q 267 266 376 364 q 486 463 604 562 q 722 661 838 754 q 954 846 1063 929 q 1172 1012 1264 1080 q 1356 1148 1426 1198 q 1495 1248 1532 1274 q 1506 1268 1466 1266 q 1427 1264 1376 1264 q 1344 1264 1310 1264 q 1275 1264 1237 1265 q 1200 1266 1152 1266 q 1105 1266 1066 1266 q 1005 1266 944 1264 q 884 1263 830 1259 q 776 1255 730 1249 q 685 1243 654 1233 q 643 1228 621 1228 z"},"x":{"x_min":0,"x_max":749,"ha":749,"o":"m 579 590 q 581 602 594 602 q 606 601 620 594 q 634 587 645 576 q 656 566 655 557 q 651 520 622 476 q 592 431 547 383 q 502 335 446 286 q 391 236 334 189 q 366 157 408 138 q 450 120 507 124 q 535 125 566 140 q 597 156 628 179 q 658 202 687 230 q 716 259 742 288 q 768 316 788 342 q 809 367 823 384 l 822 383 q 826 388 830 392 q 834 396 838 401 q 866 434 892 434 q 909 434 919 422 q 929 410 926 391 q 924 371 908 352 l 897 338 q 885 322 862 292 q 840 263 810 228 q 779 194 742 158 q 704 121 662 90 q 620 60 575 40 q 530 19 485 17 q 413 13 354 42 q 295 72 250 120 q 207 84 168 50 q 129 17 98 -12 q 68 -41 50 -64 q 32 -88 31 -103 q 31 -111 18 -112 q 4 -112 -12 -108 q -28 -104 -41 -96 q -54 -88 -53 -79 q -50 -52 -30 -19 q -9 14 24 51 q 56 88 98 128 q 140 167 186 206 q 165 242 150 280 q 135 317 126 353 q 117 389 114 422 q 111 454 115 480 q 119 516 140 538 q 144 542 154 546 q 165 549 176 548 q 188 548 198 543 q 207 538 209 525 q 211 521 211 516 q 212 503 216 478 q 219 453 226 420 q 233 388 244 352 q 256 315 274 279 q 282 285 286 289 q 339 333 390 376 q 441 420 482 460 q 523 499 549 532 q 575 566 579 590 z"},"v":{"x_min":0,"x_max":669,"ha":669,"o":"m 169 500 q 183 515 208 522 q 232 528 255 528 q 271 528 284 525 q 298 522 306 516 q 313 510 312 502 q 312 494 301 484 l 301 485 q 281 465 262 434 q 244 402 228 364 q 213 327 202 286 q 190 246 185 209 q 181 183 181 160 q 181 138 185 122 q 189 105 198 96 q 207 87 222 87 q 245 88 270 104 q 294 120 317 145 q 340 170 362 200 q 383 229 401 256 q 388 281 387 311 q 387 330 390 350 q 396 395 420 435 q 443 475 485 489 l 484 489 q 511 497 529 485 q 547 473 557 450 q 567 428 568 399 q 570 370 563 345 q 557 323 550 303 q 543 283 534 263 q 559 247 588 247 q 612 247 637 258 q 662 269 684 287 q 707 305 724 328 q 742 352 751 378 q 756 395 770 403 q 784 411 799 411 q 816 411 830 402 q 843 394 845 380 q 846 360 827 324 q 808 288 770 253 q 733 218 679 192 q 625 167 558 167 q 524 167 491 179 q 437 94 362 48 q 286 2 198 0 q 153 0 120 20 q 87 40 67 74 q 47 109 40 155 q 34 201 41 252 q 50 315 81 380 q 112 445 169 500 z"},"O":{"x_min":0,"x_max":1233,"ha":1233,"o":"m 1058 1494 q 1168 1494 1234 1454 q 1300 1413 1332 1346 q 1365 1279 1370 1194 q 1374 1108 1361 1017 q 1349 933 1327 850 q 1305 768 1281 699 q 1257 630 1236 580 q 1216 531 1207 513 q 1135 373 1061 268 q 987 163 915 86 q 963 93 1012 114 q 1061 136 1108 166 q 1154 195 1196 229 q 1238 263 1272 294 q 1305 326 1328 352 q 1351 377 1360 390 q 1374 410 1391 419 q 1408 428 1422 428 q 1445 428 1454 410 q 1464 393 1448 365 q 1441 352 1416 321 q 1391 290 1352 250 q 1312 209 1259 164 q 1206 120 1142 82 q 1078 43 1005 14 q 932 -14 853 -22 q 824 -25 795 -25 l 793 -25 q 722 -81 656 -115 q 591 -149 535 -167 q 479 -185 434 -190 q 389 -195 359 -194 q 247 -190 178 -154 q 110 -117 74 -60 q 39 -3 32 69 q 24 141 35 217 q 41 263 54 310 q 66 357 81 401 q 96 445 112 484 q 129 523 144 554 q 179 623 217 682 q 255 741 295 795 q 314 866 348 946 q 382 1025 430 1102 q 478 1180 541 1251 q 604 1322 682 1376 q 761 1430 854 1462 q 948 1494 1058 1494 z m 394 707 q 391 650 396 588 q 401 525 416 462 q 430 400 456 341 q 483 282 524 233 q 564 184 620 148 q 675 112 749 96 q 802 147 850 204 q 897 262 936 316 q 975 371 1004 420 q 1032 469 1048 504 q 1124 672 1164 800 q 1204 929 1218 1026 q 1234 1142 1218 1216 q 1203 1291 1172 1334 q 1140 1377 1102 1394 q 1063 1411 1034 1411 q 942 1402 862 1366 q 783 1330 717 1276 q 651 1223 598 1157 q 544 1091 505 1023 q 551 1064 593 1096 q 635 1128 671 1152 q 707 1175 734 1192 q 762 1208 780 1217 l 779 1216 l 793 1223 q 810 1233 825 1232 q 840 1230 850 1220 q 860 1211 865 1196 q 870 1182 868 1166 q 866 1152 858 1140 q 850 1127 836 1119 l 837 1119 q 751 1073 684 1026 q 616 979 562 932 q 509 884 469 838 q 429 793 399 750 l 397 738 q 396 730 395 722 q 394 714 394 707 z m 636 2 q 560 29 498 80 q 437 130 392 198 q 346 265 316 346 q 287 426 276 512 q 238 425 216 354 q 195 284 187 228 q 177 155 185 104 q 193 52 212 16 q 232 -19 259 -40 q 286 -61 312 -72 q 338 -83 360 -86 q 382 -90 393 -90 q 454 -90 515 -65 q 576 -40 636 2 z"},"C":{"x_min":0,"x_max":1444,"ha":1444,"o":"m 1488 1489 q 1489 1489 1518 1489 q 1547 1489 1588 1482 q 1630 1474 1677 1456 q 1724 1438 1761 1402 q 1798 1367 1818 1310 q 1839 1254 1827 1170 q 1822 1140 1814 1104 q 1805 1068 1791 1033 q 1760 954 1716 893 q 1671 832 1620 786 q 1570 740 1517 708 q 1464 676 1416 656 q 1367 635 1327 626 q 1287 616 1263 615 l 1264 615 q 1195 612 1151 628 q 1107 643 1081 670 q 1055 697 1044 732 q 1033 766 1032 800 l 1004 803 q 917 812 847 832 q 777 851 720 874 q 664 795 614 701 q 565 607 527 493 q 524 482 518 464 q 511 445 504 420 q 497 395 490 366 q 483 336 479 304 q 473 261 473 216 q 473 170 483 126 q 493 83 516 44 q 539 5 580 -24 q 620 -54 680 -71 q 740 -88 824 -88 q 909 -88 990 -62 q 1072 -36 1146 4 q 1219 43 1282 92 q 1346 140 1395 185 q 1444 230 1476 266 q 1509 302 1521 317 q 1535 334 1552 342 q 1570 351 1585 351 q 1603 351 1614 341 q 1626 331 1623 312 q 1622 295 1601 270 q 1587 253 1552 212 q 1516 172 1462 120 q 1407 69 1336 13 q 1264 -43 1178 -91 q 1091 -139 991 -172 q 891 -205 781 -210 q 775 -210 768 -210 q 760 -211 752 -211 q 709 -211 657 -204 q 605 -196 553 -176 q 501 -155 454 -118 q 407 -81 374 -22 q 342 38 330 122 q 317 207 333 323 q 338 358 346 396 q 354 434 364 476 q 369 492 386 535 q 404 578 434 638 q 465 698 508 771 q 551 844 608 922 q 559 943 511 959 q 463 975 412 975 q 378 975 341 968 q 304 960 260 943 l 244 937 l 245 937 q 233 931 222 927 q 212 923 204 924 q 197 925 194 933 q 191 941 194 960 q 196 972 208 988 q 220 1004 242 1021 q 284 1055 332 1070 q 379 1084 429 1084 q 491 1084 556 1066 q 620 1049 686 1024 q 756 1108 841 1188 q 926 1267 1026 1330 q 1127 1394 1242 1436 q 1358 1479 1489 1489 z m 1455 1373 q 1446 1373 1414 1366 q 1382 1359 1333 1342 q 1284 1324 1222 1295 q 1159 1266 1089 1222 q 1019 1178 946 1118 q 873 1057 803 978 q 865 953 926 933 q 986 913 1043 907 l 1049 928 q 1066 980 1098 1023 q 1131 1066 1169 1096 q 1207 1126 1247 1142 q 1287 1159 1319 1159 q 1358 1159 1381 1136 q 1404 1114 1397 1064 q 1395 1047 1388 1028 q 1382 1008 1371 983 q 1333 903 1270 861 q 1208 819 1132 806 q 1136 789 1146 774 q 1155 759 1172 748 q 1189 736 1215 730 q 1241 723 1277 723 q 1287 723 1298 723 q 1309 723 1320 725 q 1356 729 1408 758 q 1459 786 1510 830 q 1562 875 1606 929 q 1651 983 1674 1038 q 1691 1078 1700 1111 q 1709 1144 1713 1171 q 1723 1240 1703 1280 q 1683 1321 1648 1342 q 1614 1363 1574 1368 q 1534 1374 1503 1374 q 1492 1374 1483 1374 q 1474 1373 1468 1373 z m 1153 942 q 1146 932 1140 910 q 1178 919 1212 942 q 1246 964 1275 1006 q 1291 1030 1292 1040 q 1294 1057 1277 1057 q 1254 1057 1218 1028 q 1183 1000 1153 942 z"},"W":{"x_min":0,"x_max":1116,"ha":1116,"o":"m 389 1209 q 417 1210 436 1198 q 454 1187 463 1164 q 472 1141 473 1108 q 474 1075 468 1035 q 459 968 434 884 q 409 799 376 708 q 344 617 307 525 q 270 433 237 350 q 210 284 187 228 q 164 171 148 130 q 132 89 125 66 q 118 42 123 43 q 152 47 188 76 q 224 104 264 150 q 303 196 344 255 q 384 314 424 378 q 463 443 500 509 q 536 575 566 634 q 597 694 620 742 q 642 791 654 822 q 655 826 669 832 q 683 837 702 842 q 722 848 744 852 q 765 855 782 855 q 805 855 816 848 q 827 842 816 823 q 812 817 798 784 q 784 752 762 702 q 741 652 715 588 q 689 524 662 455 q 634 386 608 316 q 581 245 560 182 q 538 118 522 66 q 507 14 503 -19 q 498 -53 503 -53 q 549 -57 604 -28 q 659 2 718 56 q 777 111 838 186 q 898 262 956 351 q 1013 440 1066 539 q 1118 638 1160 738 q 1202 838 1232 936 q 1261 1035 1273 1123 q 1289 1232 1274 1318 q 1259 1403 1205 1454 q 1194 1464 1200 1476 q 1205 1488 1220 1498 q 1234 1509 1253 1516 q 1272 1524 1289 1524 q 1334 1518 1364 1492 q 1394 1467 1410 1424 q 1426 1382 1428 1325 q 1431 1268 1421 1200 q 1408 1109 1376 1002 q 1344 894 1296 780 q 1249 667 1189 553 q 1129 439 1060 334 q 991 228 916 136 q 840 45 763 -22 q 686 -90 608 -129 q 531 -168 458 -168 q 437 -168 416 -165 q 380 -159 372 -118 q 363 -77 371 -19 q 376 13 387 58 q 398 102 411 144 q 425 192 443 244 q 423 214 396 178 q 370 143 340 108 q 310 72 276 38 q 243 5 208 -20 q 174 -45 140 -60 q 105 -74 72 -72 q 31 -69 18 -36 q 6 -2 14 55 q 24 124 56 220 q 88 317 129 433 q 157 512 187 598 q 217 684 244 772 q 270 859 292 946 q 313 1034 324 1118 q 323 1119 323 1120 l 323 1126 q 322 1131 321 1138 q 320 1146 322 1157 q 324 1175 338 1191 q 353 1207 388 1209 z"},"A":{"x_min":0,"x_max":1702,"ha":1702,"o":"m 1239 159 q 1145 171 1052 192 q 959 214 870 238 q 789 143 708 60 q 626 -22 549 -83 q 472 -144 402 -178 q 331 -212 271 -211 q 197 -209 146 -186 q 94 -163 64 -125 q 33 -87 22 -38 q 12 11 19 65 q 28 134 64 204 q 100 274 156 330 q 211 387 284 422 q 356 458 440 458 q 466 458 490 455 q 515 452 540 444 l 665 407 l 825 360 q 897 446 971 539 q 1045 632 1116 726 q 1188 820 1256 913 q 1325 1006 1387 1092 q 1449 1177 1502 1252 q 1556 1327 1598 1387 q 1656 1468 1690 1515 q 1725 1562 1733 1562 q 1741 1562 1754 1550 q 1766 1537 1777 1520 q 1788 1503 1795 1486 q 1802 1468 1800 1459 q 1781 1410 1750 1329 q 1720 1248 1683 1146 q 1646 1045 1606 928 q 1565 812 1527 693 q 1489 574 1456 458 q 1424 343 1402 243 q 1416 242 1430 242 q 1445 242 1460 242 q 1549 242 1622 262 q 1695 282 1742 325 q 1761 340 1783 350 q 1805 360 1819 360 q 1836 360 1847 351 q 1858 342 1856 325 q 1853 305 1826 277 l 1827 277 q 1792 240 1749 214 q 1706 189 1656 174 q 1606 158 1550 151 q 1495 144 1436 144 q 1423 144 1410 144 q 1396 144 1382 145 l 1377 111 q 1369 53 1368 7 q 1368 -39 1377 -69 q 1386 -99 1406 -111 q 1426 -123 1458 -113 q 1460 -120 1462 -127 q 1464 -133 1465 -140 q 1466 -147 1465 -154 q 1463 -171 1445 -188 q 1427 -204 1379 -204 q 1368 -204 1352 -202 q 1335 -200 1320 -198 q 1285 -191 1264 -164 q 1243 -138 1233 -96 q 1223 -55 1224 0 q 1224 55 1233 120 z m 446 348 q 429 351 416 351 q 365 351 320 326 q 275 300 240 260 q 205 219 182 169 q 158 119 151 70 q 146 35 150 4 q 155 -28 171 -52 q 187 -77 214 -92 q 241 -107 282 -109 q 318 -110 368 -82 q 418 -54 478 -4 q 538 47 606 117 q 675 187 749 271 l 717 280 q 636 303 567 321 q 498 339 446 348 z m 945 327 q 1025 307 1104 288 q 1183 270 1260 259 q 1284 361 1319 476 q 1354 591 1394 704 q 1433 818 1472 923 q 1512 1028 1544 1110 q 1577 1192 1599 1244 q 1621 1295 1624 1303 q 1620 1297 1592 1252 q 1565 1206 1518 1133 q 1472 1060 1409 964 q 1346 869 1272 762 q 1198 656 1115 544 q 1032 433 945 327 z"},"f":{"x_min":0,"x_max":466,"ha":466,"o":"m 556 1031 q 568 1035 588 1035 q 601 1035 614 1031 q 627 1027 637 1018 q 647 1008 652 992 q 657 976 655 952 q 650 893 626 826 q 603 758 566 690 q 530 622 483 557 q 436 492 384 438 q 331 384 276 346 q 220 307 167 291 l 158 273 q 170 245 178 207 q 236 213 297 228 q 358 242 409 258 q 460 275 495 290 q 530 306 535 314 q 545 327 560 330 q 574 334 586 328 q 597 323 602 310 q 606 297 596 277 q 588 263 550 241 q 511 219 454 196 q 397 173 328 154 q 258 134 189 126 q 192 91 191 62 q 190 32 186 13 q 172 -55 138 -118 q 103 -182 58 -232 q 13 -281 -38 -310 q -90 -340 -138 -340 q -163 -340 -183 -332 q -192 -329 -203 -324 q -214 -318 -222 -308 q -231 -299 -234 -284 q -238 -270 -232 -250 q -228 -238 -210 -200 q -193 -162 -166 -105 q -138 -48 -101 24 q -64 96 -22 176 q -35 203 -29 230 q -19 272 5 294 q 29 316 57 322 q 102 404 150 487 q 197 570 244 647 q 291 724 336 792 q 382 859 422 910 q 463 962 497 994 q 531 1026 557 1032 z m 530 911 q 511 881 480 829 q 448 777 409 710 q 370 644 325 566 q 280 489 234 408 q 300 455 354 523 q 407 591 447 662 q 487 733 512 799 q 537 865 545 908 q 551 937 550 937 q 545 937 530 911 z m 73 125 q 36 59 4 0 q -29 -58 -54 -104 q -79 -149 -94 -178 q -109 -208 -112 -216 q -113 -227 -112 -236 q -111 -244 -106 -244 q -91 -244 -65 -221 q -39 -198 -12 -160 q 16 -122 40 -73 q 65 -24 77 27 q 78 32 80 44 q 82 55 84 69 q 86 80 88 94 q 89 108 91 123 z"},"Q":{"x_min":0,"x_max":1190,"ha":1190,"o":"m 1064 1474 q 1166 1468 1227 1424 q 1288 1381 1318 1315 q 1348 1249 1352 1167 q 1357 1085 1345 1003 q 1339 959 1330 916 q 1320 873 1308 834 q 1296 794 1283 760 q 1270 725 1258 698 q 1192 553 1110 434 q 1029 316 940 222 q 851 127 759 56 q 667 -14 579 -62 q 637 -88 684 -106 q 732 -125 760 -126 q 857 -129 919 -114 q 981 -98 1018 -74 q 1054 -51 1070 -25 q 1087 1 1094 20 q 1098 30 1104 38 q 1109 46 1115 49 q 1129 53 1138 48 q 1147 42 1152 30 q 1156 18 1157 2 q 1158 -15 1155 -33 q 1153 -50 1148 -66 q 1143 -83 1138 -94 q 1121 -127 1094 -156 q 1067 -184 1030 -206 q 992 -228 944 -240 q 897 -253 839 -253 q 789 -253 735 -244 q 675 -234 610 -201 q 544 -168 479 -132 l 460 -120 q 386 -151 322 -164 q 259 -178 211 -176 q 167 -175 134 -162 q 101 -149 82 -129 q 62 -109 58 -84 q 53 -60 65 -36 q 84 1 132 30 q 179 59 249 59 q 286 59 341 39 q 396 19 459 -9 q 554 38 638 105 q 722 172 793 247 q 864 322 922 398 q 979 474 1022 539 q 1064 604 1090 651 q 1116 698 1125 716 q 1165 808 1190 885 q 1214 962 1222 1022 q 1232 1093 1226 1146 q 1219 1198 1202 1235 q 1185 1272 1162 1296 q 1138 1319 1114 1332 q 1090 1346 1069 1351 q 1048 1356 1037 1357 q 952 1360 876 1338 q 800 1316 733 1277 q 666 1238 608 1186 q 549 1134 500 1076 q 451 1018 412 958 q 373 899 344 846 q 314 792 295 748 q 276 704 268 678 q 229 555 217 464 q 205 383 210 324 q 216 265 232 225 q 248 185 272 163 q 295 141 319 135 q 330 132 336 122 q 342 111 340 100 q 338 86 327 74 q 316 63 295 63 q 272 63 244 72 q 216 82 188 103 q 161 124 136 156 q 111 189 95 236 q 79 283 74 344 q 68 406 79 484 q 85 529 98 584 q 112 638 132 694 q 148 740 184 816 q 220 891 275 978 q 330 1065 404 1154 q 479 1242 572 1314 q 666 1385 779 1430 q 892 1475 1024 1475 q 1034 1475 1044 1475 q 1054 1475 1064 1474 z m 247 -80 q 270 -75 293 -70 q 316 -65 338 -57 q 314 -47 293 -41 q 272 -35 253 -35 q 242 -35 228 -36 q 213 -36 200 -38 q 186 -41 176 -44 q 166 -48 165 -54 q 162 -68 178 -75 q 193 -82 217 -82 q 224 -82 232 -82 q 239 -81 247 -80 z"},"w":{"x_min":0,"x_max":1092,"ha":1092,"o":"m 283 102 q 299 102 321 108 q 343 114 367 125 q 391 136 416 151 q 442 166 466 184 q 460 234 467 283 q 470 303 474 322 q 479 342 485 361 q 496 395 514 420 q 533 445 555 462 q 577 479 600 488 q 623 496 644 496 q 676 496 696 476 q 716 456 711 416 q 709 402 704 388 q 699 373 689 355 q 672 323 646 283 q 620 243 586 202 q 587 179 592 158 q 598 138 608 122 q 619 107 635 98 q 651 90 674 91 q 706 92 734 108 q 761 125 784 150 q 807 175 826 204 q 844 234 859 261 q 849 275 842 289 q 834 303 830 317 q 823 338 828 367 q 831 385 838 404 q 844 424 856 441 q 869 458 887 471 q 905 484 930 489 q 957 495 975 482 q 993 470 1003 448 q 1013 426 1014 398 q 1014 370 1007 344 l 1007 345 q 1001 324 994 304 q 987 284 980 265 q 994 257 1013 257 q 1040 257 1070 272 q 1100 288 1126 312 q 1153 335 1174 364 q 1195 393 1204 420 q 1210 448 1238 448 q 1247 448 1256 444 q 1264 440 1271 434 q 1278 427 1281 419 q 1284 411 1282 403 q 1280 395 1273 377 q 1266 359 1252 335 q 1239 311 1218 285 q 1198 259 1168 236 q 1139 213 1100 196 q 1061 179 1011 174 q 977 174 942 193 q 887 102 808 51 q 730 0 642 0 q 582 5 544 34 q 506 62 486 105 q 433 61 372 32 q 311 4 244 2 q 196 1 162 22 q 128 44 107 78 q 86 111 78 152 q 70 193 75 231 q 82 281 98 324 q 115 367 136 404 q 157 440 180 468 q 204 497 226 516 q 247 536 264 547 q 280 558 288 559 l 307 562 q 322 564 340 566 q 358 569 374 570 q 389 571 400 570 q 412 569 415 563 l 415 565 q 420 559 412 548 q 403 538 386 522 q 367 504 340 476 q 313 447 286 412 q 259 376 237 334 q 215 291 208 245 q 203 216 206 190 q 208 165 218 146 q 227 126 244 114 q 260 102 283 102 z m 622 408 q 618 408 612 388 q 605 369 598 339 q 611 364 620 386 q 628 407 623 408 z"},"E":{"x_min":0,"x_max":1017,"ha":1017,"o":"m 891 1442 q 902 1443 912 1443 q 922 1443 932 1443 q 1017 1443 1080 1428 q 1142 1414 1186 1390 q 1231 1367 1258 1337 q 1286 1307 1300 1275 q 1315 1243 1318 1212 q 1322 1180 1319 1154 q 1316 1135 1311 1122 q 1287 1058 1249 1016 q 1211 974 1166 950 q 1120 925 1070 915 q 1019 905 971 905 q 933 905 898 910 q 862 916 832 924 q 803 932 782 942 q 761 951 752 959 q 741 971 734 984 q 728 998 730 1009 q 733 1028 749 1040 q 765 1051 788 1051 q 796 1051 806 1050 q 815 1048 824 1043 q 869 1026 912 1016 q 956 1006 992 1006 q 1031 1006 1064 1015 q 1098 1024 1124 1040 q 1149 1057 1166 1080 q 1182 1103 1188 1130 q 1193 1155 1186 1190 q 1178 1225 1151 1257 q 1124 1289 1075 1312 q 1026 1335 948 1335 q 936 1335 922 1334 q 907 1334 893 1332 q 803 1320 714 1279 q 624 1238 548 1175 q 471 1112 414 1031 q 357 950 331 857 q 328 845 326 832 q 323 819 321 809 q 311 737 328 686 q 346 635 380 601 q 441 629 512 646 q 582 662 666 665 q 708 666 740 657 q 772 648 792 632 q 813 616 822 594 q 831 573 828 549 q 824 523 805 497 q 786 471 751 450 q 716 429 664 414 q 612 400 543 398 q 531 398 512 400 q 493 402 470 408 q 446 413 418 422 q 391 432 363 446 q 328 420 294 388 q 261 357 233 322 q 205 286 184 247 q 162 208 152 167 q 148 134 157 92 q 166 51 197 14 q 228 -24 285 -50 q 342 -75 434 -76 q 518 -77 596 -53 q 675 -29 745 8 q 815 46 875 92 q 935 139 982 184 q 1029 228 1061 266 q 1093 303 1108 323 q 1120 341 1136 352 q 1152 364 1165 364 q 1176 364 1183 356 q 1190 348 1188 329 q 1186 321 1182 308 q 1178 295 1170 280 q 1151 244 1112 198 q 1074 151 1020 102 q 965 52 896 4 q 828 -45 750 -86 q 671 -126 584 -154 q 497 -183 406 -192 q 399 -193 390 -193 q 382 -193 374 -193 q 331 -193 282 -185 q 234 -177 188 -160 q 141 -142 100 -116 q 58 -89 29 -52 q 0 -15 -14 32 q -28 80 -20 140 q -18 151 -16 165 q -13 179 -9 190 q 2 223 24 266 q 45 308 78 354 q 110 399 154 444 q 198 490 254 530 q 208 581 183 656 q 158 730 172 837 q 181 906 215 977 q 249 1048 302 1114 q 355 1180 423 1238 q 491 1297 568 1341 q 645 1385 728 1412 q 810 1438 892 1442 z m 591 548 q 559 548 510 529 q 533 524 552 522 q 572 520 587 522 q 635 525 664 530 q 694 535 694 540 q 695 543 670 546 q 646 548 591 548 z"},"s":{"x_min":0,"x_max":420,"ha":420,"o":"m 340 617 q 352 615 364 603 q 375 591 381 576 q 387 561 386 548 q 386 536 374 535 q 348 532 326 520 q 304 508 288 492 q 271 475 262 456 q 252 436 253 418 q 254 401 261 376 q 268 352 278 323 l 295 269 q 367 307 442 351 q 518 395 588 457 q 599 467 614 464 q 629 461 640 451 q 651 441 654 426 q 656 412 643 397 q 611 363 571 334 q 531 304 488 278 q 446 251 402 227 q 357 203 316 182 q 320 158 321 135 q 322 112 319 89 q 314 59 306 40 q 290 3 268 -22 q 245 -47 220 -62 q 194 -77 166 -84 q 139 -90 112 -90 q 91 -90 73 -87 q 43 -82 28 -66 q 12 -50 7 -30 q 2 -10 3 10 q 4 29 7 42 q 21 87 61 124 q 101 160 160 195 l 149 239 q 138 273 130 308 q 122 344 124 373 q 127 427 151 473 q 175 519 208 552 q 241 585 277 602 q 313 620 340 617 z m 168 62 q 174 84 174 107 q 141 87 119 68 q 97 50 92 32 q 85 12 92 0 q 98 -13 111 -13 q 125 -13 141 4 q 157 21 168 62 z"},"l":{"x_min":0,"x_max":466,"ha":466,"o":"m 610 1042 q 628 1047 645 1047 q 684 1047 702 1022 q 721 997 714 952 q 712 938 708 924 q 704 911 699 897 q 670 833 630 772 q 590 710 544 652 q 498 595 448 542 q 398 489 350 442 q 302 396 257 356 q 212 317 176 286 q 174 284 174 280 q 166 254 165 237 q 159 192 165 164 q 171 136 183 120 q 195 105 210 99 q 224 93 235 92 q 262 90 291 102 q 320 115 349 136 q 378 158 405 186 q 432 214 457 242 q 482 271 502 299 q 523 327 539 348 q 553 365 560 376 q 568 387 572 389 q 582 395 596 396 q 610 398 620 392 q 629 386 632 371 q 634 356 622 330 q 620 325 603 298 q 586 272 558 234 q 530 197 492 155 q 455 113 410 78 q 365 42 315 18 q 265 -5 213 -5 q 205 -5 196 -4 q 187 -4 179 -2 q 138 5 111 28 q 84 51 69 85 q 54 119 50 162 q 47 206 54 256 q 64 328 92 410 q 121 491 163 574 q 205 656 258 734 q 310 811 368 874 q 427 938 488 982 q 550 1026 610 1042 z m 560 903 q 528 870 486 826 q 443 782 398 726 q 352 669 308 598 q 263 528 227 443 q 293 508 384 614 q 476 720 586 881 q 596 896 602 908 q 609 921 610 929 q 612 940 598 934 q 584 929 560 903 z"},"8":{"x_min":0,"x_max":1219,"ha":1219,"o":"m 876 781 l 739 657 l 775 471 l 615 565 l 450 471 l 489 652 l 351 781 l 537 801 l 615 972 l 690 802 z m 682 576 l 639 834 l 586 834 l 541 576 l 564 562 l 583 576 l 592 634 l 631 634 l 642 576 l 663 562 z m 628 672 l 598 672 l 612 774 z m 610 21 l 631 21 l 624 39 q 622 42 622 44 q 622 46 619 49 q 619 45 616 39 z m 352 -5 l 352 3 l 363 3 l 363 -5 z m 844 -5 l 844 58 l 852 58 l 852 1 l 883 1 l 883 -5 z m 787 -5 l 787 58 l 832 58 l 832 49 l 795 49 l 795 30 l 829 30 l 829 22 l 795 22 l 795 1 l 832 1 l 832 -5 z m 565 -5 l 565 21 l 541 58 l 552 58 l 564 39 q 567 30 570 28 q 571 30 572 33 q 574 36 577 39 l 589 58 l 598 58 l 573 21 l 573 -5 z m 376 -5 l 376 58 l 400 58 q 403 58 406 56 q 408 55 409 55 q 415 54 417 49 q 420 46 420 40 q 420 36 417 34 q 415 28 411 28 q 415 27 420 22 q 423 16 423 13 q 423 10 422 8 q 421 7 421 6 q 420 0 415 0 q 414 -3 412 -3 q 411 -3 409 -5 l 400 -5 z m 205 -5 l 187 58 l 196 58 l 205 16 q 207 12 207 9 q 207 6 208 3 q 210 10 210 15 l 222 58 l 232 58 l 241 25 q 243 18 244 14 q 246 9 246 3 q 247 6 247 9 q 247 12 249 16 l 259 58 l 267 58 l 249 -5 l 241 -5 l 229 42 q 228 46 228 49 q 226 46 226 42 l 213 -5 z m 123 -5 l 105 58 l 115 58 l 123 16 q 123 9 127 3 q 129 10 129 15 l 141 58 l 150 58 l 160 25 q 162 18 162 14 q 163 9 163 3 q 166 6 166 9 q 166 12 168 16 l 177 58 l 186 58 l 168 -5 l 160 -5 l 148 42 q 147 46 147 49 q 144 46 144 42 l 130 -5 z m 384 30 l 397 30 q 403 30 405 33 q 409 33 409 34 q 411 36 411 40 q 411 45 409 46 l 408 46 q 406 46 406 47 q 406 48 405 48 q 403 49 396 49 l 384 49 z m 285 -5 l 268 58 l 277 58 l 286 16 q 288 12 288 9 q 288 6 291 3 q 291 9 292 11 q 292 13 292 15 l 304 58 l 313 58 l 324 25 q 325 18 326 14 q 327 9 327 3 q 330 6 330 9 q 330 12 331 16 l 342 58 l 349 58 l 331 -5 l 324 -5 l 312 42 q 310 46 310 49 q 307 46 307 42 l 294 -5 z m 664 28 l 682 28 q 685 28 688 29 q 690 30 693 30 q 696 30 696 34 q 697 36 697 40 q 697 45 694 48 q 693 49 684 49 l 664 49 z m 384 1 l 400 1 q 403 1 405 3 l 409 3 q 411 6 414 7 l 414 13 q 414 16 411 19 q 411 22 408 22 l 397 22 l 384 22 z m 435 -5 l 435 58 l 442 58 l 442 -5 z m 985 25 q 985 12 990 7 q 996 1 1006 1 q 1017 1 1021 7 q 1027 12 1027 27 q 1027 34 1026 39 q 1023 46 1018 48 q 1014 49 1006 49 q 997 49 993 45 q 985 39 985 25 z m 976 25 q 976 42 985 49 q 991 58 1006 58 q 1011 58 1014 56 q 1018 55 1021 54 q 1026 52 1028 49 q 1030 46 1033 42 q 1035 39 1035 27 q 1035 13 1032 9 q 1027 1 1021 -3 q 1015 -6 1006 -6 q 1002 -6 998 -6 q 994 -5 990 -3 q 987 0 984 3 q 982 6 981 9 q 979 13 978 17 q 976 21 976 25 z m 592 -5 l 616 58 l 625 58 l 651 -5 l 642 -5 l 634 13 l 609 13 l 600 -5 z m 459 -5 l 459 58 l 466 58 l 466 1 l 495 1 l 495 -5 z m 892 -5 l 892 3 l 903 3 l 903 -5 z m 748 19 l 748 27 l 774 27 l 774 3 q 768 -3 762 -5 q 759 -5 755 -6 q 751 -6 748 -6 q 739 -6 733 -3 q 729 0 726 2 q 723 4 721 9 q 720 13 718 17 q 717 21 717 25 q 717 31 718 34 q 720 37 721 42 q 724 51 732 54 q 735 55 740 56 q 744 58 748 58 q 756 58 760 55 q 766 54 768 49 q 772 45 774 40 l 766 39 q 766 40 762 45 q 762 48 756 49 l 748 49 l 739 49 q 735 48 732 45 q 732 43 727 39 q 727 36 726 33 q 726 30 726 27 q 726 16 729 13 q 735 4 736 3 q 741 1 748 1 q 754 1 759 3 q 762 6 764 6 q 765 6 766 7 l 766 19 z m 657 -5 l 657 58 l 684 58 q 688 58 691 56 q 694 55 697 55 q 702 54 703 49 q 706 46 706 40 q 706 33 702 28 q 700 27 696 26 q 693 25 688 22 q 691 22 692 22 q 693 21 694 21 q 696 18 696 16 q 697 13 700 10 l 712 -5 l 702 -5 l 693 7 q 690 10 689 12 q 688 15 687 16 q 687 19 686 19 q 684 19 682 21 l 681 21 q 679 21 679 22 q 679 22 678 22 l 675 22 l 664 22 l 664 -5 z m 505 -5 l 505 58 l 514 58 l 514 1 l 544 1 l 544 -5 z m 961 16 l 969 15 q 966 3 960 0 q 954 -6 943 -6 q 934 -6 928 -3 q 924 0 922 3 q 921 6 918 9 q 915 21 915 27 q 915 33 918 45 q 925 52 928 54 q 933 55 936 56 q 939 58 943 58 q 948 58 952 56 q 957 55 960 54 q 963 51 965 48 q 967 45 969 40 l 960 39 q 960 45 954 48 q 951 49 943 49 q 934 49 931 48 q 928 46 928 44 q 927 42 924 39 q 924 36 923 33 q 922 30 922 27 q 922 18 927 13 q 927 10 928 8 q 930 6 931 3 q 936 1 943 1 q 951 1 955 6 q 960 10 961 16 z m 1047 -5 l 1047 58 l 1059 58 l 1074 13 q 1074 10 1076 8 q 1077 6 1077 3 q 1077 4 1080 13 l 1093 58 l 1105 58 l 1105 -5 l 1098 -5 l 1098 46 l 1080 -5 l 1072 -5 l 1054 48 l 1054 -5 z m 610 21 l 631 21 l 624 39 q 622 42 622 44 q 622 46 619 49 q 619 45 616 39 z m 352 -5 l 352 3 l 363 3 l 363 -5 z m 844 -5 l 844 58 l 852 58 l 852 1 l 883 1 l 883 -5 z m 787 -5 l 787 58 l 832 58 l 832 49 l 795 49 l 795 30 l 829 30 l 829 22 l 795 22 l 795 1 l 832 1 l 832 -5 z m 565 -5 l 565 21 l 541 58 l 552 58 l 564 39 q 567 30 570 28 q 571 30 572 33 q 574 36 577 39 l 589 58 l 598 58 l 573 21 l 573 -5 z m 376 -5 l 376 58 l 400 58 q 403 58 406 56 q 408 55 409 55 q 415 54 417 49 q 420 46 420 40 q 420 36 417 34 q 415 28 411 28 q 415 27 420 22 q 423 16 423 13 q 423 10 422 8 q 421 7 421 6 q 420 0 415 0 q 414 -3 412 -3 q 411 -3 409 -5 l 400 -5 z m 205 -5 l 187 58 l 196 58 l 205 16 q 207 12 207 9 q 207 6 208 3 q 210 10 210 15 l 222 58 l 232 58 l 241 25 q 243 18 244 14 q 246 9 246 3 q 247 6 247 9 q 247 12 249 16 l 259 58 l 267 58 l 249 -5 l 241 -5 l 229 42 q 228 46 228 49 q 226 46 226 42 l 213 -5 z m 123 -5 l 105 58 l 115 58 l 123 16 q 123 9 127 3 q 129 10 129 15 l 141 58 l 150 58 l 160 25 q 162 18 162 14 q 163 9 163 3 q 166 6 166 9 q 166 12 168 16 l 177 58 l 186 58 l 168 -5 l 160 -5 l 148 42 q 147 46 147 49 q 144 46 144 42 l 130 -5 z m 384 30 l 397 30 q 403 30 405 33 q 409 33 409 34 q 411 36 411 40 q 411 45 409 46 l 408 46 q 406 46 406 47 q 406 48 405 48 q 403 49 396 49 l 384 49 z m 285 -5 l 268 58 l 277 58 l 286 16 q 288 12 288 9 q 288 6 291 3 q 291 9 292 11 q 292 13 292 15 l 304 58 l 313 58 l 324 25 q 325 18 326 14 q 327 9 327 3 q 330 6 330 9 q 330 12 331 16 l 342 58 l 349 58 l 331 -5 l 324 -5 l 312 42 q 310 46 310 49 q 307 46 307 42 l 294 -5 z m 664 28 l 682 28 q 685 28 688 29 q 690 30 693 30 q 696 30 696 34 q 697 36 697 40 q 697 45 694 48 q 693 49 684 49 l 664 49 z m 384 1 l 400 1 q 403 1 405 3 l 409 3 q 411 6 414 7 l 414 13 q 414 16 411 19 q 411 22 408 22 l 397 22 l 384 22 z m 435 -5 l 435 58 l 442 58 l 442 -5 z m 985 25 q 985 12 990 7 q 996 1 1006 1 q 1017 1 1021 7 q 1027 12 1027 27 q 1027 34 1026 39 q 1023 46 1018 48 q 1014 49 1006 49 q 997 49 993 45 q 985 39 985 25 z m 976 25 q 976 42 985 49 q 991 58 1006 58 q 1011 58 1014 56 q 1018 55 1021 54 q 1026 52 1028 49 q 1030 46 1033 42 q 1035 39 1035 27 q 1035 13 1032 9 q 1027 1 1021 -3 q 1015 -6 1006 -6 q 1002 -6 998 -6 q 994 -5 990 -3 q 987 0 984 3 q 982 6 981 9 q 979 13 978 17 q 976 21 976 25 z m 592 -5 l 616 58 l 625 58 l 651 -5 l 642 -5 l 634 13 l 609 13 l 600 -5 z m 459 -5 l 459 58 l 466 58 l 466 1 l 495 1 l 495 -5 z m 892 -5 l 892 3 l 903 3 l 903 -5 z m 748 19 l 748 27 l 774 27 l 774 3 q 768 -3 762 -5 q 759 -5 755 -6 q 751 -6 748 -6 q 739 -6 733 -3 q 729 0 726 2 q 723 4 721 9 q 720 13 718 17 q 717 21 717 25 q 717 31 718 34 q 720 37 721 42 q 724 51 732 54 q 735 55 740 56 q 744 58 748 58 q 756 58 760 55 q 766 54 768 49 q 772 45 774 40 l 766 39 q 766 40 762 45 q 762 48 756 49 l 748 49 l 739 49 q 735 48 732 45 q 732 43 727 39 q 727 36 726 33 q 726 30 726 27 q 726 16 729 13 q 735 4 736 3 q 741 1 748 1 q 754 1 759 3 q 762 6 764 6 q 765 6 766 7 l 766 19 z m 657 -5 l 657 58 l 684 58 q 688 58 691 56 q 694 55 697 55 q 702 54 703 49 q 706 46 706 40 q 706 33 702 28 q 700 27 696 26 q 693 25 688 22 q 691 22 692 22 q 693 21 694 21 q 696 18 696 16 q 697 13 700 10 l 712 -5 l 702 -5 l 693 7 q 690 10 689 12 q 688 15 687 16 q 687 19 686 19 q 684 19 682 21 l 681 21 q 679 21 679 22 q 679 22 678 22 l 675 22 l 664 22 l 664 -5 z m 505 -5 l 505 58 l 514 58 l 514 1 l 544 1 l 544 -5 z m 961 16 l 969 15 q 966 3 960 0 q 954 -6 943 -6 q 934 -6 928 -3 q 924 0 922 3 q 921 6 918 9 q 915 21 915 27 q 915 33 918 45 q 925 52 928 54 q 933 55 936 56 q 939 58 943 58 q 948 58 952 56 q 957 55 960 54 q 963 51 965 48 q 967 45 969 40 l 960 39 q 960 45 954 48 q 951 49 943 49 q 934 49 931 48 q 928 46 928 44 q 927 42 924 39 q 924 36 923 33 q 922 30 922 27 q 922 18 927 13 q 927 10 928 8 q 930 6 931 3 q 936 1 943 1 q 951 1 955 6 q 960 10 961 16 z m 1047 -5 l 1047 58 l 1059 58 l 1074 13 q 1074 10 1076 8 q 1077 6 1077 3 q 1077 4 1080 13 l 1093 58 l 1105 58 l 1105 -5 l 1098 -5 l 1098 46 l 1080 -5 l 1072 -5 l 1054 48 l 1054 -5 z m 610 21 l 631 21 l 624 39 q 622 42 622 44 q 622 46 619 49 q 619 45 616 39 z m 352 -5 l 352 3 l 363 3 l 363 -5 z m 844 -5 l 844 58 l 852 58 l 852 1 l 883 1 l 883 -5 z m 787 -5 l 787 58 l 832 58 l 832 49 l 795 49 l 795 30 l 829 30 l 829 22 l 795 22 l 795 1 l 832 1 l 832 -5 z m 565 -5 l 565 21 l 541 58 l 552 58 l 564 39 q 567 30 570 28 q 571 30 572 33 q 574 36 577 39 l 589 58 l 598 58 l 573 21 l 573 -5 z m 376 -5 l 376 58 l 400 58 q 403 58 406 56 q 408 55 409 55 q 415 54 417 49 q 420 46 420 40 q 420 36 417 34 q 415 28 411 28 q 415 27 420 22 q 423 16 423 13 q 423 10 422 8 q 421 7 421 6 q 420 0 415 0 q 414 -3 412 -3 q 411 -3 409 -5 l 400 -5 z m 205 -5 l 187 58 l 196 58 l 205 16 q 207 12 207 9 q 207 6 208 3 q 210 10 210 15 l 222 58 l 232 58 l 241 25 q 243 18 244 14 q 246 9 246 3 q 247 6 247 9 q 247 12 249 16 l 259 58 l 267 58 l 249 -5 l 241 -5 l 229 42 q 228 46 228 49 q 226 46 226 42 l 213 -5 z m 123 -5 l 105 58 l 115 58 l 123 16 q 123 9 127 3 q 129 10 129 15 l 141 58 l 150 58 l 160 25 q 162 18 162 14 q 163 9 163 3 q 166 6 166 9 q 166 12 168 16 l 177 58 l 186 58 l 168 -5 l 160 -5 l 148 42 q 147 46 147 49 q 144 46 144 42 l 130 -5 z m 384 30 l 397 30 q 403 30 405 33 q 409 33 409 34 q 411 36 411 40 q 411 45 409 46 l 408 46 q 406 46 406 47 q 406 48 405 48 q 403 49 396 49 l 384 49 z m 285 -5 l 268 58 l 277 58 l 286 16 q 288 12 288 9 q 288 6 291 3 q 291 9 292 11 q 292 13 292 15 l 304 58 l 313 58 l 324 25 q 325 18 326 14 q 327 9 327 3 q 330 6 330 9 q 330 12 331 16 l 342 58 l 349 58 l 331 -5 l 324 -5 l 312 42 q 310 46 310 49 q 307 46 307 42 l 294 -5 z m 664 28 l 682 28 q 685 28 688 29 q 690 30 693 30 q 696 30 696 34 q 697 36 697 40 q 697 45 694 48 q 693 49 684 49 l 664 49 z m 384 1 l 400 1 q 403 1 405 3 l 409 3 q 411 6 414 7 l 414 13 q 414 16 411 19 q 411 22 408 22 l 397 22 l 384 22 z m 435 -5 l 435 58 l 442 58 l 442 -5 z m 985 25 q 985 12 990 7 q 996 1 1006 1 q 1017 1 1021 7 q 1027 12 1027 27 q 1027 34 1026 39 q 1023 46 1018 48 q 1014 49 1006 49 q 997 49 993 45 q 985 39 985 25 z m 976 25 q 976 42 985 49 q 991 58 1006 58 q 1011 58 1014 56 q 1018 55 1021 54 q 1026 52 1028 49 q 1030 46 1033 42 q 1035 39 1035 27 q 1035 13 1032 9 q 1027 1 1021 -3 q 1015 -6 1006 -6 q 1002 -6 998 -6 q 994 -5 990 -3 q 987 0 984 3 q 982 6 981 9 q 979 13 978 17 q 976 21 976 25 z m 592 -5 l 616 58 l 625 58 l 651 -5 l 642 -5 l 634 13 l 609 13 l 600 -5 z m 459 -5 l 459 58 l 466 58 l 466 1 l 495 1 l 495 -5 z m 892 -5 l 892 3 l 903 3 l 903 -5 z m 748 19 l 748 27 l 774 27 l 774 3 q 768 -3 762 -5 q 759 -5 755 -6 q 751 -6 748 -6 q 739 -6 733 -3 q 729 0 726 2 q 723 4 721 9 q 720 13 718 17 q 717 21 717 25 q 717 31 718 34 q 720 37 721 42 q 724 51 732 54 q 735 55 740 56 q 744 58 748 58 q 756 58 760 55 q 766 54 768 49 q 772 45 774 40 l 766 39 q 766 40 762 45 q 762 48 756 49 l 748 49 l 739 49 q 735 48 732 45 q 732 43 727 39 q 727 36 726 33 q 726 30 726 27 q 726 16 729 13 q 735 4 736 3 q 741 1 748 1 q 754 1 759 3 q 762 6 764 6 q 765 6 766 7 l 766 19 z m 657 -5 l 657 58 l 684 58 q 688 58 691 56 q 694 55 697 55 q 702 54 703 49 q 706 46 706 40 q 706 33 702 28 q 700 27 696 26 q 693 25 688 22 q 691 22 692 22 q 693 21 694 21 q 696 18 696 16 q 697 13 700 10 l 712 -5 l 702 -5 l 693 7 q 690 10 689 12 q 688 15 687 16 q 687 19 686 19 q 684 19 682 21 l 681 21 q 679 21 679 22 q 679 22 678 22 l 675 22 l 664 22 l 664 -5 z m 505 -5 l 505 58 l 514 58 l 514 1 l 544 1 l 544 -5 z m 961 16 l 969 15 q 966 3 960 0 q 954 -6 943 -6 q 934 -6 928 -3 q 924 0 922 3 q 921 6 918 9 q 915 21 915 27 q 915 33 918 45 q 925 52 928 54 q 933 55 936 56 q 939 58 943 58 q 948 58 952 56 q 957 55 960 54 q 963 51 965 48 q 967 45 969 40 l 960 39 q 960 45 954 48 q 951 49 943 49 q 934 49 931 48 q 928 46 928 44 q 927 42 924 39 q 924 36 923 33 q 922 30 922 27 q 922 18 927 13 q 927 10 928 8 q 930 6 931 3 q 936 1 943 1 q 951 1 955 6 q 960 10 961 16 z m 1047 -5 l 1047 58 l 1059 58 l 1074 13 q 1074 10 1076 8 q 1077 6 1077 3 q 1077 4 1080 13 l 1093 58 l 1105 58 l 1105 -5 l 1098 -5 l 1098 46 l 1080 -5 l 1072 -5 l 1054 48 l 1054 -5 z m 175 111 l 187 106 q 184 93 174 84 q 162 75 148 75 q 135 75 123 81 q 111 90 109 99 q 103 109 103 124 q 103 141 109 151 q 114 162 124 166 q 135 172 148 172 q 165 172 171 165 q 181 162 186 145 l 174 144 q 168 156 163 157 q 157 163 148 163 q 136 163 130 157 q 121 151 118 144 q 117 138 117 124 q 117 111 121 105 q 124 94 130 91 q 138 85 147 85 q 159 85 166 93 q 169 96 172 100 q 174 105 175 111 z m 199 123 q 199 135 202 144 q 205 153 213 159 q 219 166 227 169 q 235 172 244 172 q 258 172 268 166 q 277 162 285 150 q 291 135 291 124 q 291 117 290 111 q 288 105 285 99 q 277 87 267 81 q 255 75 244 75 q 237 75 232 76 q 226 78 220 81 q 210 87 205 99 q 199 109 199 123 z m 213 123 q 213 105 220 94 q 231 85 244 85 q 259 85 267 97 q 277 108 277 124 q 277 130 276 134 q 274 139 273 144 q 270 154 261 157 q 256 163 244 163 q 232 163 222 153 q 213 145 213 123 z m 306 78 l 306 171 l 324 171 l 346 105 q 351 96 351 91 q 354 94 357 106 l 381 171 l 396 171 l 396 78 l 384 78 l 384 156 l 357 78 l 345 78 l 318 157 l 318 78 z m 417 78 l 417 171 l 453 171 l 466 171 q 474 171 478 166 q 480 165 486 157 q 487 154 488 151 q 489 148 489 144 q 489 135 481 124 q 474 117 453 117 l 429 117 l 429 78 z m 429 126 l 454 126 q 468 126 469 132 q 475 133 475 144 q 475 151 474 153 q 468 159 463 159 q 462 162 453 162 l 429 162 z m 505 78 l 505 171 l 517 171 l 517 87 l 564 87 l 564 78 z m 579 78 l 579 171 l 648 171 l 648 162 l 591 162 l 591 132 l 643 132 l 643 120 l 591 120 l 591 87 l 649 87 l 649 78 z m 690 78 l 690 162 l 658 162 l 658 171 l 735 171 l 735 162 l 703 162 l 703 78 z m 748 78 l 748 171 l 817 171 l 817 162 l 760 162 l 760 132 l 813 132 l 813 120 l 760 120 l 760 87 l 819 87 l 819 78 z m 870 106 l 882 108 q 882 100 885 97 q 888 91 895 88 q 898 87 909 87 q 912 87 916 87 q 919 87 922 88 q 927 88 930 94 q 931 97 931 103 q 931 108 930 111 q 928 112 926 113 q 924 114 921 117 q 919 117 904 120 q 897 123 892 124 q 888 124 885 126 q 879 129 876 136 q 873 138 872 141 q 871 144 871 147 q 871 156 877 162 q 879 165 882 166 q 885 168 889 171 q 892 172 907 172 q 918 172 924 169 q 928 166 931 164 q 934 163 936 159 q 942 154 942 145 l 930 144 q 927 156 922 157 q 918 162 907 162 q 892 162 889 157 q 885 153 885 147 q 885 142 889 139 q 889 139 907 132 q 915 130 920 128 q 925 127 928 126 q 933 124 935 122 q 937 120 940 117 q 943 112 943 103 q 943 93 940 88 q 934 82 928 79 q 924 78 920 76 q 915 75 909 75 q 903 75 897 76 q 891 78 888 79 q 880 81 873 91 q 870 97 870 106 z m 961 78 l 961 171 l 1029 171 l 1029 162 l 975 162 l 975 132 l 1027 132 l 1027 120 l 975 120 l 975 87 l 1032 87 l 1032 78 z m 1074 78 l 1074 162 l 1044 162 l 1044 171 l 1117 171 l 1117 162 l 1086 162 l 1086 78 z m 112 190 l 112 283 l 150 283 l 163 283 q 166 283 175 280 q 177 279 179 276 q 181 273 183 270 q 186 267 186 259 q 186 246 177 237 q 172 229 150 229 l 127 229 l 127 190 z m 127 241 l 150 241 q 163 241 168 244 q 174 250 174 256 q 174 259 172 262 q 171 265 169 268 q 165 273 162 273 q 160 274 150 274 l 127 274 z m 201 190 l 201 283 l 268 283 l 268 274 l 214 274 l 214 244 l 265 244 l 265 234 l 214 234 l 214 202 l 271 202 l 271 190 z m 288 190 l 288 283 l 331 283 q 345 283 351 282 q 358 279 361 274 q 364 262 364 259 q 364 249 358 243 q 352 237 337 234 q 340 231 342 231 q 343 231 345 229 q 352 222 355 216 l 372 190 l 357 190 l 343 210 q 342 214 340 217 q 337 220 336 223 q 333 225 332 227 q 331 229 330 229 q 327 231 324 231 q 322 234 316 234 l 303 234 l 303 190 z m 303 243 l 327 243 q 339 243 342 244 q 346 249 349 250 q 351 253 351 259 q 351 265 346 270 q 342 274 331 274 l 303 274 z m 381 222 l 391 222 q 391 219 392 216 q 394 213 396 210 q 397 208 400 206 q 402 204 405 204 q 414 201 420 201 q 423 201 426 201 q 429 201 430 202 q 439 205 441 208 q 441 210 442 212 q 442 214 442 216 q 442 222 441 223 q 436 226 430 229 q 429 231 425 231 q 421 231 415 234 q 402 235 396 240 q 388 246 385 249 q 384 253 384 261 q 384 264 384 268 q 385 271 388 274 q 390 280 400 283 q 403 286 417 286 q 429 286 435 283 q 444 279 447 273 q 453 264 453 259 l 441 256 q 438 267 433 270 q 427 276 417 276 q 405 276 400 270 q 396 267 396 261 q 396 255 400 253 q 402 250 417 247 q 430 241 439 241 q 442 238 445 236 q 448 234 450 231 q 454 226 454 217 q 454 210 450 204 q 447 199 444 197 q 442 195 439 192 q 427 189 420 189 q 409 189 397 192 q 393 195 390 197 q 387 199 384 204 q 382 208 382 212 q 381 216 381 222 z m 468 237 q 468 258 480 273 q 493 286 513 286 q 519 286 524 284 q 529 283 537 280 q 543 277 546 272 q 549 268 552 262 q 558 252 558 237 q 558 223 552 211 q 546 201 537 195 q 525 189 513 189 q 499 189 489 196 q 475 204 474 214 q 468 222 468 237 z m 480 237 q 480 219 489 210 q 498 201 513 201 q 528 201 537 210 q 544 220 544 237 q 544 243 544 249 q 543 255 540 259 q 535 267 531 270 q 523 276 513 276 q 505 276 500 274 q 496 271 489 267 q 480 258 480 237 z m 573 190 l 573 283 l 586 283 l 636 211 l 636 283 l 648 283 l 648 190 l 636 190 l 585 264 l 585 190 z m 658 190 l 694 283 l 708 283 l 747 190 l 732 190 l 721 220 l 682 220 l 670 190 z m 684 229 l 717 229 l 708 255 q 705 261 704 266 q 702 271 700 274 q 700 270 698 266 q 697 261 696 256 z m 754 190 l 754 283 l 768 283 l 768 202 l 814 202 l 814 190 z m 922 283 l 934 283 l 934 231 q 934 214 931 208 q 928 199 921 195 q 913 189 898 189 q 883 189 877 195 q 873 196 870 200 q 867 204 864 208 q 862 211 862 231 l 862 283 l 873 283 l 873 231 q 873 216 876 211 q 879 205 883 204 q 886 202 889 202 q 892 201 897 201 q 909 201 916 205 q 922 211 922 231 z m 951 222 l 963 222 q 963 219 964 216 q 966 213 967 210 q 969 208 971 206 q 973 204 976 204 q 985 201 990 201 q 1000 201 1005 202 q 1008 204 1012 208 q 1014 210 1014 216 q 1014 222 1012 223 q 1009 225 1008 226 q 1008 228 1005 229 q 1002 231 998 231 q 993 231 987 234 q 981 235 976 236 q 970 237 969 240 q 961 243 960 249 q 955 253 955 261 q 955 267 960 274 q 961 280 970 283 q 976 286 988 286 q 993 286 998 286 q 1003 286 1006 283 q 1015 279 1020 273 q 1021 270 1022 266 q 1024 262 1024 259 l 1012 256 q 1009 261 1008 264 q 1008 268 1005 270 q 1000 276 988 276 q 975 276 973 270 q 967 268 967 261 q 967 256 970 253 q 973 250 988 247 q 1005 241 1009 241 q 1014 238 1017 236 q 1020 234 1021 231 q 1026 228 1026 217 q 1026 208 1021 204 q 1018 199 1016 197 q 1014 195 1009 192 q 1000 189 993 189 q 985 189 980 190 q 975 190 970 192 q 967 195 964 197 q 960 199 957 204 q 954 208 952 212 q 951 216 951 222 z m 1044 190 l 1044 283 l 1111 283 l 1111 274 l 1057 274 l 1057 244 l 1107 244 l 1107 234 l 1057 234 l 1057 202 l 1113 202 l 1113 190 z m 307 388 q 307 403 285 406 q 282 406 278 407 q 273 408 267 408 l 258 397 l 234 372 q 228 364 222 358 q 217 352 210 348 q 219 345 232 343 q 235 343 240 343 q 246 343 250 345 q 273 346 285 357 q 307 375 307 388 z m 324 433 q 324 439 316 439 q 313 439 291 432 l 274 417 q 271 414 268 408 l 294 412 q 300 412 310 420 q 324 429 324 433 z m 343 460 q 343 457 339 457 q 336 457 335 458 q 334 459 331 459 q 316 456 297 436 q 300 439 304 440 q 307 442 310 444 q 321 445 330 444 q 336 444 336 436 l 336 430 q 328 417 294 409 q 321 406 321 391 q 321 373 292 354 q 282 348 270 344 q 259 340 247 339 q 228 334 217 336 q 208 336 198 340 q 189 334 181 334 l 178 334 q 169 337 163 339 l 168 339 q 180 339 187 345 l 187 346 q 177 340 165 340 q 148 340 139 349 q 124 360 124 381 q 124 387 126 392 q 127 397 130 405 q 141 427 166 444 q 174 451 182 454 q 190 456 198 457 q 214 457 220 451 q 213 456 205 456 q 196 456 186 450 q 171 444 169 441 q 154 433 139 415 q 126 394 126 379 q 126 372 128 368 q 129 363 132 358 q 138 349 148 346 q 153 345 156 344 q 159 343 162 343 q 168 343 172 344 q 177 346 183 349 q 166 361 166 382 q 169 402 190 417 l 187 412 q 184 412 181 406 q 172 397 172 387 q 172 367 195 354 q 207 361 207 363 q 210 367 213 370 q 216 373 219 376 q 222 379 222 384 q 223 388 226 393 l 226 391 q 226 384 225 379 l 243 400 q 289 453 319 462 q 306 466 298 466 q 279 465 256 453 q 229 439 229 420 q 229 414 234 409 q 235 408 235 406 q 226 412 226 421 q 226 438 246 454 q 270 472 297 469 q 306 469 324 463 l 330 463 q 337 463 342 460 z m 346 363 q 345 357 334 346 q 324 340 316 340 q 309 340 309 349 q 309 357 318 369 l 316 369 q 315 367 310 367 q 310 367 309 369 q 313 369 324 379 l 325 379 l 330 385 q 334 390 334 393 l 339 393 q 343 393 343 391 q 343 385 334 375 l 324 364 q 315 351 315 346 q 315 342 321 342 q 328 342 339 357 q 340 358 342 359 q 343 360 346 363 z m 354 405 q 348 396 339 396 q 334 396 328 400 l 333 400 q 343 400 346 411 l 346 414 l 354 411 q 355 409 354 405 z m 406 433 q 406 426 360 370 l 358 370 q 345 354 345 345 q 345 340 349 340 q 358 340 369 355 q 370 357 372 358 q 373 358 375 361 q 375 354 363 345 q 355 339 346 339 q 337 340 337 348 q 336 355 367 394 l 385 417 l 394 426 q 399 432 402 441 q 406 438 406 433 z m 432 433 q 432 427 384 370 q 369 352 369 345 q 369 340 375 340 q 381 340 394 355 l 400 361 q 399 354 387 345 q 379 339 370 339 q 361 340 361 348 q 361 357 391 394 l 409 417 l 418 426 q 426 435 427 441 q 432 438 432 433 z m 403 333 q 379 328 366 315 q 355 301 355 298 q 355 292 361 292 q 363 291 372 294 q 375 297 378 300 q 382 304 387 309 z m 447 430 q 444 409 427 393 q 427 391 426 391 q 426 391 426 390 q 421 384 416 378 q 411 373 406 366 q 403 363 403 360 q 402 363 405 369 q 396 355 396 348 q 396 343 400 343 q 402 343 408 346 q 430 364 439 397 l 439 393 l 439 388 q 442 385 442 381 q 442 378 435 366 l 423 346 l 409 328 q 414 331 426 337 l 424 336 q 421 333 416 329 q 411 325 406 318 l 394 303 l 388 295 q 379 286 369 283 q 360 283 355 289 q 346 292 352 303 q 354 304 356 307 q 357 310 360 313 l 361 315 l 351 313 q 376 331 393 333 q 394 333 396 334 q 397 334 399 334 l 400 334 l 403 334 l 412 348 q 406 342 402 341 q 397 340 394 340 q 387 340 387 348 q 387 366 418 394 l 421 396 l 436 411 q 439 417 442 422 q 445 426 447 430 z m 618 453 q 609 456 603 456 q 588 456 575 452 q 562 448 549 441 q 543 438 539 434 q 535 430 531 427 q 549 426 579 408 q 612 441 636 450 z m 649 447 q 643 445 636 443 q 630 441 622 433 q 618 430 600 412 l 589 402 l 604 393 q 607 397 613 404 q 619 411 627 420 z m 663 472 q 663 471 661 469 q 661 459 657 448 l 658 447 l 657 447 q 649 429 637 417 l 613 388 q 616 387 618 387 q 619 387 622 385 q 622 382 621 382 q 618 382 616 383 q 615 384 612 385 q 594 366 592 349 q 589 343 589 340 q 589 334 595 334 q 607 334 621 354 l 627 363 q 642 384 646 400 l 646 405 q 646 403 648 402 l 648 400 q 645 379 633 361 l 613 322 q 613 328 618 342 q 600 328 591 328 q 577 328 580 346 q 580 355 586 366 q 592 378 601 391 l 586 399 l 573 385 q 568 379 560 370 q 552 361 540 346 q 516 322 498 322 l 493 322 q 489 322 480 327 q 480 327 483 327 q 496 324 510 337 q 498 331 481 331 q 465 331 454 339 l 456 339 q 441 349 441 370 q 441 385 447 393 q 456 417 481 433 q 490 441 498 443 q 507 445 516 447 q 531 447 537 441 l 535 441 q 532 444 522 444 q 507 444 484 430 q 468 418 456 405 q 442 384 442 367 q 442 343 465 336 q 474 333 478 333 q 510 334 547 375 l 576 405 q 553 418 525 418 l 523 418 q 520 412 520 405 q 522 405 528 396 q 517 402 517 411 q 517 415 519 418 q 504 415 499 412 q 472 402 475 381 q 475 367 484 357 l 487 354 q 469 372 469 385 q 469 405 487 418 q 502 429 525 429 q 546 453 577 457 q 585 459 601 459 q 609 459 624 456 l 642 451 l 651 451 l 652 450 q 658 460 661 475 l 663 475 z m 682 375 q 682 370 681 367 q 673 360 668 354 q 663 348 658 340 l 660 340 l 661 340 q 660 339 658 339 q 657 339 657 337 q 649 337 649 340 q 649 346 663 360 q 673 373 673 376 q 675 381 669 385 q 651 360 637 354 l 631 351 l 628 352 q 634 352 648 367 q 661 379 666 387 q 666 388 665 388 q 664 388 664 390 q 664 391 675 400 q 675 402 676 402 l 678 400 q 678 399 670 388 q 682 384 682 375 z m 726 379 q 726 388 720 385 q 714 385 711 382 q 706 379 697 367 q 688 355 688 348 q 687 345 691 345 q 700 348 706 355 q 712 367 712 372 q 712 375 711 375 q 717 375 717 367 l 715 364 q 718 367 720 371 q 723 375 726 378 z m 754 393 q 748 393 741 385 q 735 378 729 369 q 723 360 715 348 q 708 333 702 324 q 696 316 694 313 q 675 289 664 289 q 655 288 651 295 q 651 303 651 303 q 651 310 657 316 q 654 315 649 315 q 664 330 682 334 q 684 334 684 335 q 685 336 688 336 l 690 334 q 661 325 655 307 q 654 304 654 300 q 654 298 655 297 q 655 295 657 295 q 669 294 685 318 l 696 333 l 702 342 q 697 340 694 340 q 682 340 682 352 q 682 366 702 384 q 711 393 718 393 q 729 393 729 381 l 730 381 l 738 390 q 745 397 751 397 q 756 397 759 393 z m 781 382 q 781 373 765 364 q 763 363 762 363 l 760 363 q 756 363 751 370 q 754 367 759 367 q 769 373 772 384 l 772 387 l 772 388 l 772 390 q 766 390 753 376 l 753 375 q 748 369 748 365 q 747 361 747 358 q 745 360 745 367 q 742 361 741 357 q 738 351 738 346 q 738 345 739 343 q 739 340 745 340 q 760 346 771 355 q 774 358 778 361 q 775 357 772 353 q 769 349 762 345 q 750 337 741 340 q 741 339 739 340 q 730 340 730 349 q 730 364 747 379 q 756 393 771 393 q 774 393 775 391 q 781 387 781 382 z m 841 433 q 841 427 793 370 q 780 354 780 345 q 780 340 784 340 q 793 340 804 355 q 805 357 806 358 q 808 358 810 361 q 810 354 798 345 q 790 339 780 339 q 772 342 772 348 q 772 360 801 394 l 819 417 l 828 426 q 837 435 837 441 q 841 438 841 433 z m 922 387 q 897 396 895 415 q 888 411 880 407 q 873 403 868 399 q 840 372 840 349 q 840 340 844 339 l 847 339 l 850 339 q 873 339 892 354 q 898 360 906 368 q 915 375 922 387 z m 952 430 l 940 430 q 922 429 897 417 q 900 396 925 391 l 936 405 z m 979 457 q 960 457 944 454 q 928 451 916 444 q 924 451 935 456 q 946 460 960 463 q 930 465 907 445 q 903 442 897 430 q 907 433 917 434 q 927 436 939 435 q 942 435 946 435 q 951 435 958 433 q 961 438 966 444 q 972 450 979 457 z m 1074 459 q 1071 454 1067 450 q 1063 447 1056 444 q 1044 436 1033 436 l 1030 436 q 1029 436 1027 438 q 1029 439 1029 440 q 1029 442 1032 445 q 1018 456 994 456 l 988 448 l 973 430 q 985 429 996 428 q 1006 426 1015 426 q 1036 426 1044 430 q 1038 424 1021 421 q 1008 418 994 423 l 970 427 q 964 420 959 414 q 954 409 951 403 l 940 388 l 948 388 q 985 391 991 406 l 993 406 q 988 397 973 390 q 966 387 959 386 q 952 384 946 384 l 939 384 q 928 372 922 363 q 915 354 909 348 q 889 327 873 327 q 865 328 856 328 q 871 328 888 343 q 867 334 855 334 l 846 336 l 858 324 q 846 330 838 337 q 837 337 831 340 q 813 354 811 375 q 811 382 811 388 q 811 394 814 400 q 819 414 826 424 q 834 433 844 444 q 870 466 889 466 q 900 466 907 460 l 906 459 q 901 463 892 463 q 873 460 852 444 q 834 429 825 414 q 813 393 813 375 q 816 348 837 340 q 834 349 835 358 q 838 381 852 397 q 868 418 897 430 q 900 433 900 439 l 913 453 q 933 469 964 469 q 972 469 977 469 q 982 469 990 468 l 991 468 q 1002 475 1010 479 q 1018 483 1027 481 q 1033 481 1036 478 q 1020 475 1020 475 q 1017 474 1013 472 q 1009 471 1005 468 q 1011 466 1017 466 q 1023 465 1030 462 q 1045 457 1054 457 q 1068 457 1074 459 z m 982 354 q 978 358 978 364 q 978 367 978 370 q 979 372 979 375 q 964 355 966 346 q 966 343 969 343 q 972 343 982 354 z m 1002 385 q 1002 388 999 388 q 996 388 993 387 q 991 385 988 379 q 981 364 981 360 q 981 355 982 354 l 987 358 l 987 360 l 987 358 q 988 360 988 360 q 988 361 990 363 q 993 372 993 375 q 993 376 991 378 q 994 372 994 370 q 999 375 1002 385 z m 1008 381 q 1008 373 997 358 q 984 345 978 340 l 966 340 q 957 340 957 348 q 957 360 973 379 q 984 393 997 393 q 1008 393 1008 381 z m 1057 384 q 1059 381 1051 367 q 1042 355 1039 352 l 1021 336 q 1011 325 1008 313 q 1009 331 1021 345 q 1027 351 1030 356 q 1033 360 1036 366 q 1038 367 1039 372 l 1039 367 q 1039 367 1038 364 q 1041 367 1047 379 q 1047 381 1048 382 q 1048 382 1048 384 q 1048 391 1041 388 q 1041 388 1029 379 q 1026 372 1020 366 q 1015 361 1009 354 q 1002 345 1000 340 q 999 339 993 327 q 993 330 992 334 q 991 337 993 340 q 996 351 1006 361 l 1015 372 q 1023 382 1023 388 q 1023 390 1022 392 q 1021 393 1021 394 q 1030 391 1030 385 q 1039 393 1050 393 q 1056 390 1057 384 z m 1116 405 l 1093 405 q 1092 402 1084 393 q 1075 384 1063 367 q 1060 367 1057 360 q 1051 352 1051 345 q 1051 340 1054 340 q 1062 340 1075 355 l 1077 357 q 1078 358 1078 359 q 1078 360 1080 361 q 1080 354 1069 345 q 1062 339 1051 339 q 1044 342 1042 348 q 1042 351 1048 363 l 1066 384 l 1083 405 l 1057 408 q 1051 409 1042 409 l 1029 409 q 1011 409 993 402 l 991 402 q 1006 417 1038 417 q 1039 417 1050 414 q 1062 412 1083 409 l 1087 408 q 1092 415 1096 420 q 1099 426 1102 430 q 1105 429 1105 423 q 1105 418 1102 415 l 1096 406 l 1108 405 l 1117 405 l 1119 405 l 1123 405 z m 1126 385 q 1126 381 1116 376 l 1114 375 q 1119 379 1119 387 l 1119 393 l 1114 393 q 1107 393 1105 387 q 1105 384 1110 361 q 1111 340 1086 340 q 1072 340 1069 349 q 1068 351 1068 354 q 1068 366 1086 369 l 1092 367 l 1089 367 q 1083 367 1080 364 q 1075 357 1075 354 q 1075 342 1087 342 q 1099 342 1099 358 q 1099 366 1098 370 q 1096 375 1096 381 q 1096 396 1110 396 q 1113 396 1114 395 q 1116 394 1119 394 q 1125 391 1125 390 q 1126 388 1126 385 z"},"e":{"x_min":0,"x_max":517,"ha":517,"o":"m 387 551 q 421 551 441 538 q 461 525 471 506 q 481 487 483 466 q 485 446 483 432 q 468 380 434 340 q 399 301 356 273 q 314 245 268 227 q 221 209 181 200 q 179 165 184 141 q 190 117 202 102 q 213 88 230 82 q 247 76 268 78 q 306 80 346 100 q 385 120 422 149 q 460 178 494 212 q 528 247 554 278 q 581 309 598 332 q 616 355 621 363 q 629 376 644 386 q 659 395 672 395 q 692 395 704 380 q 715 365 700 333 q 698 328 679 302 q 660 276 627 238 q 594 201 550 158 q 506 116 453 79 q 400 42 340 17 q 281 -8 218 -11 q 189 -10 154 3 q 118 16 88 44 q 59 73 44 117 q 29 161 43 223 q 50 248 64 282 q 78 317 100 353 q 121 389 150 424 q 179 459 215 487 q 251 515 294 532 q 337 550 387 551 z m 352 468 q 335 467 314 450 q 292 432 271 406 q 250 379 231 346 q 212 314 199 283 q 222 289 246 299 q 270 309 292 326 q 314 342 333 366 q 352 391 364 425 q 371 447 367 458 q 363 469 352 468 z"},"b":{"x_min":0,"x_max":672,"ha":672,"o":"m 602 348 q 602 345 602 342 q 601 339 601 336 q 646 340 694 358 q 742 377 788 414 q 807 430 820 428 q 834 427 840 416 q 847 405 846 388 q 844 372 834 358 q 806 325 768 303 q 730 281 692 268 q 653 254 619 248 q 585 241 565 238 q 545 196 514 152 q 484 109 443 74 q 402 38 350 15 q 297 -8 233 -8 q 203 -8 172 -2 q 127 5 98 31 q 68 57 52 97 q 37 137 34 188 q 31 240 40 299 q 50 372 76 454 q 102 536 140 616 q 177 697 224 772 q 272 848 326 909 q 379 970 436 1012 q 494 1055 552 1070 q 563 1073 575 1075 q 587 1077 598 1077 q 636 1077 658 1055 q 679 1033 672 985 q 668 957 655 924 q 613 823 550 729 q 488 635 420 553 q 351 471 284 404 q 217 336 165 288 l 162 272 q 153 217 160 180 q 168 144 183 122 q 198 101 216 91 q 235 81 247 80 q 284 76 315 88 q 346 99 371 122 q 396 145 414 176 q 433 207 447 242 q 400 256 374 292 q 348 327 349 387 q 350 415 362 448 q 374 480 394 508 q 414 535 440 553 q 467 571 499 571 q 525 571 548 558 q 574 545 588 526 q 603 506 610 484 q 616 461 616 438 q 616 416 613 397 q 611 383 608 371 q 606 359 604 352 q 604 352 602 348 z m 547 959 q 512 929 470 880 q 427 830 382 766 q 338 701 296 624 q 254 547 220 462 q 255 499 294 545 q 334 591 378 648 q 423 706 472 777 q 520 848 574 937 l 574 936 q 578 944 581 950 q 584 956 585 962 q 587 975 577 975 q 566 975 547 959 z m 442 393 q 451 371 478 356 l 483 395 q 488 443 482 462 q 477 481 468 481 q 459 481 450 467 q 440 453 437 433 q 436 423 436 412 q 437 402 442 393 z"},"m":{"x_min":0,"x_max":1178,"ha":1178,"o":"m 9 143 q 13 176 24 212 q 36 248 50 284 q 64 320 80 352 q 95 385 108 411 q 122 437 132 454 q 141 470 143 473 q 153 484 182 491 q 212 498 241 498 q 272 498 288 489 q 305 480 286 455 q 267 432 246 388 q 225 345 206 295 q 187 245 172 196 q 158 148 154 117 q 149 89 153 87 q 162 82 190 106 q 219 130 258 172 q 297 214 341 269 q 385 324 426 381 q 437 397 460 405 q 483 413 506 413 q 522 413 536 410 q 551 406 560 400 q 569 394 571 385 q 573 376 566 364 q 561 357 554 342 q 548 327 542 307 q 536 287 530 264 q 525 241 522 219 q 517 182 520 154 q 523 126 541 123 q 548 121 576 140 q 604 158 642 196 q 680 233 724 290 q 767 346 805 420 q 809 428 824 432 q 839 436 858 436 q 876 436 895 433 q 914 430 928 423 q 941 416 946 406 q 951 396 942 381 q 932 366 918 340 q 905 313 892 281 q 879 249 868 215 q 858 181 854 151 q 849 118 856 96 q 863 75 890 77 q 923 78 970 106 q 1016 133 1066 176 q 1115 219 1164 272 q 1212 324 1249 375 q 1258 387 1273 389 q 1288 391 1301 386 q 1314 380 1320 369 q 1326 358 1318 346 q 1276 283 1218 220 q 1159 157 1094 106 q 1030 55 966 23 q 901 -9 848 -10 q 801 -5 772 22 q 744 48 728 77 q 710 111 702 154 q 687 136 663 110 q 639 85 609 62 q 579 38 545 22 q 511 6 475 6 q 434 6 412 22 q 389 39 379 64 q 369 88 368 116 q 368 144 371 167 q 354 144 327 116 q 300 87 266 62 q 233 37 194 20 q 154 2 111 2 q 101 2 92 3 q 83 4 75 6 q 28 16 15 54 q 2 91 9 143 z"},"n":{"x_min":0,"x_max":683,"ha":683,"o":"m 811 245 q 772 193 736 150 q 701 106 662 74 q 624 42 580 24 q 536 6 481 6 q 460 6 444 13 q 428 20 416 32 q 404 44 396 60 q 387 75 381 91 q 367 128 363 176 q 348 153 324 123 q 300 93 268 66 q 236 40 198 22 q 159 3 116 3 q 97 3 81 6 q 32 16 18 54 q 4 91 11 142 q 15 174 26 208 q 37 243 50 276 q 64 310 78 340 q 93 371 106 394 q 118 417 126 430 q 134 444 134 445 l 134 444 q 137 450 148 455 q 158 460 172 464 q 187 468 203 470 q 219 472 234 472 q 250 472 262 470 q 275 468 282 463 q 289 458 289 450 q 289 441 279 429 q 263 411 246 380 q 228 348 210 311 q 193 274 178 236 q 162 198 152 166 q 141 134 136 112 q 132 89 136 85 q 149 80 179 104 q 209 129 248 171 q 288 213 332 268 q 377 324 418 383 q 429 398 453 406 q 477 413 504 413 q 523 413 541 410 q 559 406 572 399 q 584 392 588 382 q 593 373 585 361 q 579 353 568 332 q 557 312 546 286 q 535 260 525 232 q 515 203 512 179 q 508 154 514 138 q 521 121 544 123 q 562 124 580 130 q 597 135 624 156 q 650 178 688 223 q 727 268 787 349 l 785 348 q 796 363 808 369 q 821 375 832 375 q 843 375 852 369 q 861 363 865 353 q 869 343 866 330 q 864 317 854 303 z"},"h":{"x_min":0,"x_max":686,"ha":686,"o":"m 771 1068 q 786 1068 800 1064 q 814 1059 824 1049 q 835 1039 840 1022 q 846 1006 843 984 q 841 974 838 965 q 836 956 832 946 q 807 883 768 822 q 728 761 678 702 q 629 644 572 590 q 515 537 455 490 q 395 444 334 405 q 273 366 217 338 q 191 281 172 232 q 154 182 145 144 q 150 152 162 168 q 173 183 187 205 q 211 239 241 280 q 271 321 304 356 q 338 391 374 414 q 409 436 445 433 q 460 431 466 416 q 471 402 472 378 q 472 354 468 324 q 465 294 461 261 q 457 228 453 195 q 449 162 449 136 q 449 111 454 95 q 459 79 473 79 q 483 79 504 94 q 524 108 550 132 q 575 157 604 188 q 632 218 660 250 q 687 281 711 312 q 735 342 752 365 q 768 387 791 387 q 800 387 808 382 q 816 378 820 370 q 823 362 822 352 q 821 341 812 329 l 813 330 q 804 316 794 303 q 783 290 774 277 q 741 232 701 180 q 661 127 616 82 q 572 38 526 8 q 481 -22 438 -22 q 390 -22 364 -8 q 337 6 325 29 q 313 52 312 80 q 311 109 315 138 q 317 151 320 164 q 322 176 324 188 q 326 198 328 207 q 330 216 331 224 q 334 241 329 246 q 324 245 316 238 q 308 230 298 218 q 289 206 278 190 q 268 175 256 157 q 239 133 222 108 q 204 83 186 62 q 167 40 148 24 q 129 7 109 1 q 105 -1 93 2 q 81 4 69 10 q 57 17 48 28 q 38 40 38 57 q 37 71 38 87 q 40 103 42 120 q 53 199 88 299 q 123 399 176 504 q 229 608 297 708 q 365 808 442 887 q 520 966 604 1016 q 687 1065 771 1068 z m 722 950 q 672 946 614 902 q 557 858 498 790 q 440 721 384 636 q 327 550 280 464 q 347 508 413 559 q 479 610 538 668 q 596 727 644 792 q 693 856 726 927 q 731 938 728 944 q 726 951 722 950 z"},"z":{"x_min":0,"x_max":544,"ha":544,"o":"m 414 588 q 442 587 466 578 q 491 568 507 548 q 523 528 528 496 q 533 464 522 417 q 506 344 458 287 q 411 230 351 192 q 441 236 519 284 q 597 333 651 393 q 668 413 694 413 q 708 413 720 406 q 731 399 737 388 q 743 377 741 364 q 739 351 726 338 q 674 288 620 248 q 566 207 510 174 q 455 140 400 112 q 345 84 291 59 q 291 56 290 52 q 290 48 290 43 q 269 -88 220 -187 q 172 -286 113 -354 q 54 -421 -6 -457 q -67 -493 -113 -497 q -122 -498 -130 -498 q -139 -499 -148 -499 q -202 -499 -234 -482 q -266 -466 -282 -444 q -299 -421 -304 -398 q -309 -374 -310 -360 q -311 -347 -310 -334 q -309 -322 -307 -308 q -297 -233 -252 -173 q -207 -113 -141 -64 q -75 -14 7 28 q 89 70 175 109 q 174 112 174 117 q 166 116 160 116 q 153 115 146 115 q 132 114 117 118 q 102 121 90 129 q 78 137 72 151 q 65 165 68 185 q 69 198 78 214 q 87 229 103 242 q 119 254 142 260 q 166 267 196 261 q 215 258 241 232 q 259 245 282 263 q 305 281 326 304 q 347 326 364 352 q 381 378 388 405 l 391 419 q 393 426 396 435 q 398 444 399 451 q 401 465 397 478 q 393 490 376 492 q 338 493 308 473 q 277 453 254 426 q 232 398 219 372 q 206 345 202 335 q 194 313 177 302 q 160 290 143 290 q 125 290 112 303 q 100 316 105 344 q 109 363 121 389 q 133 415 154 442 q 174 470 201 497 q 228 524 262 545 q 295 566 333 578 q 371 590 414 588 z m -107 -402 q -78 -396 -38 -360 q 3 -325 43 -270 q 83 -214 117 -142 q 151 -71 167 6 q 95 -26 32 -57 q -32 -88 -82 -125 q -133 -162 -168 -208 q -202 -253 -215 -313 q -216 -321 -213 -338 q -210 -354 -198 -370 q -187 -385 -165 -396 q -143 -406 -107 -402 z"},"B":{"x_min":0,"x_max":1324,"ha":1324,"o":"m 880 1183 q 884 1186 893 1191 q 902 1196 914 1202 q 926 1207 938 1211 q 951 1215 962 1215 q 990 1215 993 1190 q 994 1182 976 1133 q 957 1084 926 1008 q 895 933 856 839 q 816 745 774 648 q 731 551 690 458 q 648 365 614 292 q 580 218 557 172 q 534 125 529 121 l 529 122 q 518 114 499 106 q 480 99 460 95 q 441 91 424 90 q 407 90 400 95 q 399 102 418 150 q 437 198 468 272 q 500 347 540 440 q 581 533 625 630 q 616 615 599 604 q 582 593 560 594 q 494 595 427 560 q 360 524 302 466 q 244 408 201 336 q 158 264 139 193 q 136 182 134 174 q 132 165 130 156 q 122 96 140 49 q 159 2 198 -30 q 237 -62 294 -78 q 350 -95 418 -95 q 500 -95 594 -69 q 687 -43 780 12 q 873 66 960 150 q 1046 234 1115 350 q 1140 391 1155 432 q 1170 472 1175 510 q 1183 570 1172 620 q 1161 670 1135 708 q 1087 680 1043 666 q 999 652 964 649 q 956 648 948 648 q 941 647 933 647 q 872 647 850 676 q 827 706 844 751 q 854 775 878 794 q 902 813 931 826 q 960 840 992 847 q 1024 854 1051 854 q 1077 854 1098 850 q 1120 847 1140 841 q 1188 887 1236 946 q 1283 1005 1315 1072 q 1330 1105 1336 1151 q 1342 1192 1335 1234 q 1328 1276 1306 1310 q 1283 1343 1244 1364 q 1206 1386 1149 1386 q 1069 1383 1007 1368 q 945 1353 898 1333 q 851 1313 818 1290 q 784 1268 760 1249 q 743 1235 729 1224 q 715 1214 702 1209 l 703 1209 q 673 1196 657 1203 q 641 1210 634 1226 q 628 1241 630 1260 q 631 1278 638 1287 l 637 1286 q 641 1291 662 1311 q 683 1331 718 1358 q 754 1384 803 1414 q 852 1443 911 1468 q 970 1494 1038 1511 q 1106 1528 1181 1530 q 1270 1532 1334 1504 q 1399 1476 1438 1428 q 1478 1380 1494 1318 q 1509 1255 1499 1187 q 1494 1150 1481 1112 q 1468 1073 1448 1038 q 1398 950 1344 886 q 1289 821 1235 776 q 1275 725 1286 652 q 1298 579 1287 501 q 1273 408 1234 322 q 1193 234 1134 159 q 1076 84 1006 23 q 935 -38 856 -84 q 776 -131 694 -162 q 613 -194 531 -210 q 449 -226 374 -226 q 284 -226 208 -203 q 131 -180 78 -133 q 26 -86 1 -15 q -24 56 -10 153 q -8 164 -6 176 q -4 187 -2 199 q 12 261 44 323 q 77 385 124 441 q 170 497 226 545 q 283 593 345 627 q 407 661 471 679 q 535 697 597 694 q 620 692 628 681 q 636 670 634 653 l 632 645 q 662 712 692 778 q 721 843 748 902 q 775 962 798 1013 q 822 1064 840 1102 q 857 1139 868 1160 q 878 1182 880 1183 z m 979 725 q 987 725 1009 737 q 1031 749 1059 770 q 1038 779 1012 779 q 1005 779 992 776 q 980 772 966 766 q 953 761 940 753 q 928 745 921 736 q 917 732 921 730 q 925 727 934 726 q 943 725 955 725 q 967 725 979 725 z"},"K":{"x_min":0,"x_max":783,"ha":783,"o":"m 1544 1575 q 1563 1576 1580 1559 q 1597 1542 1607 1520 q 1617 1499 1618 1480 q 1619 1461 1606 1460 q 1573 1457 1524 1428 q 1475 1399 1414 1350 q 1353 1301 1282 1234 q 1211 1168 1134 1090 q 1057 1012 976 926 q 896 839 816 750 q 735 660 658 570 q 580 481 509 398 q 515 342 534 274 q 553 206 578 137 q 604 68 634 3 q 663 -62 690 -112 q 717 -162 738 -192 q 759 -223 768 -223 q 798 -223 809 -232 q 820 -240 818 -251 q 817 -259 810 -267 q 804 -275 795 -282 q 786 -289 777 -294 q 768 -299 762 -300 q 717 -305 678 -276 q 639 -246 606 -194 q 573 -142 547 -74 q 521 -7 501 64 q 481 135 467 202 q 453 270 445 323 q 361 224 294 144 q 228 64 185 10 q 169 -36 155 -74 q 141 -113 130 -142 q 119 -170 112 -187 q 105 -204 103 -207 q 89 -222 70 -227 q 50 -232 31 -232 q 17 -232 6 -231 q -5 -230 -10 -228 q -14 -227 -1 -176 q 12 -126 37 -42 q 62 42 96 152 q 130 262 168 384 q 207 506 248 632 q 288 758 325 873 q 362 988 393 1084 q 424 1181 445 1244 q 454 1271 460 1289 q 466 1307 466 1305 q 471 1321 471 1330 q 471 1340 469 1345 q 467 1350 462 1352 q 458 1354 454 1355 q 446 1359 440 1362 q 434 1366 439 1380 q 442 1386 451 1392 q 460 1399 474 1404 q 487 1410 504 1413 q 521 1416 538 1416 q 557 1416 576 1411 q 594 1406 606 1394 q 619 1383 624 1364 q 630 1346 624 1319 q 617 1298 598 1242 q 580 1186 554 1105 q 527 1024 494 924 q 461 823 424 714 q 388 606 350 494 q 313 383 278 279 q 339 352 418 446 q 496 540 586 644 q 675 747 771 856 q 867 964 962 1066 q 1056 1169 1146 1260 q 1236 1351 1312 1420 q 1389 1489 1449 1530 q 1509 1572 1544 1575 z"},"R":{"x_min":0,"x_max":1090,"ha":1090,"o":"m 1062 1427 q 1185 1429 1260 1394 q 1336 1360 1375 1303 q 1414 1246 1422 1172 q 1431 1099 1420 1024 q 1413 975 1400 928 q 1387 881 1372 838 q 1356 796 1338 761 q 1321 726 1305 701 q 1227 583 1141 492 q 1055 401 968 333 q 882 265 798 219 q 714 173 639 146 q 666 113 706 67 q 745 21 785 -23 q 825 -67 859 -100 q 893 -134 910 -140 l 909 -140 q 928 -146 935 -157 q 942 -168 940 -179 q 938 -199 916 -215 q 893 -231 860 -231 q 852 -231 844 -230 q 837 -229 829 -227 q 813 -221 787 -200 q 761 -180 730 -150 q 698 -121 664 -86 q 629 -51 596 -16 q 563 19 534 50 q 506 82 486 105 q 472 103 459 102 q 446 101 435 101 q 406 100 380 102 q 354 103 331 106 q 303 48 278 -2 q 253 -51 234 -89 q 214 -127 201 -150 q 188 -174 182 -179 q 170 -184 155 -188 q 140 -191 128 -191 q 109 -191 96 -186 q 82 -181 77 -171 q 76 -168 86 -144 q 95 -119 112 -78 q 130 -37 154 18 q 178 74 207 139 q 151 163 112 198 q 74 233 49 273 q 24 313 10 354 q -3 395 -9 430 q -15 466 -15 493 q -15 520 -14 532 q -10 557 3 570 q 16 582 33 582 q 52 582 67 566 q 82 550 79 521 q 77 505 82 469 q 87 433 105 391 q 123 349 158 308 q 193 267 251 240 q 289 326 330 418 q 372 510 412 598 q 451 685 487 764 q 523 843 551 904 l 603 1019 l 603 1020 q 609 1034 630 1043 q 650 1052 673 1052 q 688 1052 702 1048 q 715 1045 724 1036 q 734 1028 737 1014 q 740 1001 734 981 q 733 977 717 941 q 701 905 674 847 q 648 789 614 713 q 579 637 540 552 q 501 468 460 380 q 418 291 379 208 q 388 207 397 207 q 406 207 416 207 q 429 207 444 208 q 460 208 474 210 q 557 220 635 254 q 713 287 783 334 q 853 380 914 434 q 975 489 1023 542 q 1071 594 1105 640 q 1139 686 1156 715 l 1156 714 q 1216 817 1247 896 q 1278 976 1287 1039 q 1296 1103 1285 1150 q 1274 1196 1251 1228 q 1228 1260 1196 1279 q 1165 1298 1134 1308 q 1103 1317 1076 1320 q 1048 1322 1033 1321 q 920 1312 837 1289 q 754 1266 696 1238 q 637 1209 600 1180 q 562 1152 540 1133 q 517 1113 504 1108 q 482 1100 471 1109 q 460 1118 463 1139 q 466 1164 496 1200 q 509 1213 535 1235 q 561 1257 598 1282 q 636 1307 685 1332 q 734 1358 792 1378 q 851 1399 918 1412 q 986 1426 1062 1427 z"},"T":{"x_min":0,"x_max":517,"ha":517,"o":"m 887 1461 q 889 1455 889 1445 q 980 1449 1072 1454 q 1164 1458 1250 1462 q 1337 1467 1414 1470 q 1490 1474 1550 1476 q 1609 1479 1648 1480 q 1687 1482 1698 1482 q 1724 1482 1734 1470 q 1743 1459 1741 1442 q 1739 1428 1730 1412 q 1720 1397 1708 1384 q 1695 1370 1682 1361 q 1668 1352 1658 1352 l 1618 1352 q 1573 1352 1492 1352 q 1410 1352 1308 1352 q 1206 1352 1091 1352 q 976 1351 865 1350 q 845 1284 809 1189 q 773 1094 728 982 q 684 870 632 748 q 581 625 529 504 q 477 384 427 272 q 377 159 336 68 q 294 -24 263 -88 q 232 -153 218 -178 q 213 -186 198 -192 q 183 -198 164 -198 q 141 -198 123 -184 q 105 -170 108 -145 q 124 -74 154 24 q 185 121 221 230 q 249 315 278 406 q 308 496 334 586 q 361 677 382 765 q 403 853 414 933 q 426 1016 424 1087 q 423 1158 404 1211 q 385 1264 346 1296 q 306 1328 242 1332 q 217 1334 207 1345 q 197 1356 199 1369 q 201 1385 219 1400 q 237 1415 262 1415 q 269 1415 308 1416 q 348 1418 411 1421 q 474 1424 556 1428 q 638 1432 731 1437 q 735 1447 735 1448 q 742 1477 758 1488 q 774 1500 795 1500 q 810 1500 826 1495 q 842 1490 855 1484 q 868 1477 877 1470 q 886 1464 887 1462 z m 315 311 q 343 381 378 470 q 412 558 448 654 q 484 751 521 850 q 558 950 591 1042 q 624 1134 652 1212 q 681 1291 700 1347 q 618 1345 548 1344 q 479 1342 431 1339 q 461 1319 480 1284 q 498 1249 506 1202 q 513 1156 512 1100 q 511 1044 502 982 q 490 899 468 810 q 447 720 420 632 q 394 543 366 460 q 339 378 315 311 z"},"P":{"x_min":0,"x_max":1155,"ha":1155,"o":"m 1062 1427 q 1185 1429 1260 1394 q 1336 1360 1375 1303 q 1414 1246 1422 1172 q 1431 1099 1420 1024 q 1413 975 1400 928 q 1387 881 1372 838 q 1356 796 1338 761 q 1321 726 1305 701 q 1232 591 1152 504 q 1072 417 991 350 q 910 284 830 238 q 750 191 678 161 q 606 131 544 116 q 481 102 435 101 q 406 100 380 102 q 354 103 331 106 q 303 48 278 -2 q 253 -51 234 -89 q 214 -127 201 -150 q 188 -174 182 -179 q 170 -184 155 -188 q 140 -191 128 -191 q 109 -191 96 -186 q 82 -181 77 -171 q 76 -168 86 -144 q 95 -119 112 -78 q 130 -37 154 18 q 178 74 207 139 q 151 163 112 198 q 74 233 49 273 q 24 313 10 354 q -3 395 -9 430 q -15 466 -15 493 q -15 520 -14 532 q -10 557 3 570 q 16 582 33 582 q 52 582 67 566 q 82 550 79 521 q 77 505 82 469 q 87 433 105 391 q 123 349 158 308 q 193 267 251 240 q 289 326 330 418 q 372 510 412 598 q 451 685 487 764 q 523 843 551 904 l 603 1019 l 603 1020 q 609 1034 630 1043 q 650 1052 673 1052 q 688 1052 702 1048 q 715 1045 724 1036 q 734 1028 737 1014 q 740 1001 734 981 q 733 977 717 941 q 701 905 674 847 q 648 789 614 713 q 579 637 540 552 q 501 468 460 380 q 418 291 379 208 q 388 207 397 207 q 406 207 416 207 q 429 207 444 208 q 460 208 474 210 q 557 220 635 254 q 713 287 783 334 q 853 380 914 434 q 975 489 1023 542 q 1071 594 1105 640 q 1139 686 1156 715 l 1156 714 q 1216 817 1247 896 q 1278 976 1287 1039 q 1296 1103 1285 1150 q 1274 1196 1251 1228 q 1228 1260 1196 1279 q 1165 1298 1134 1308 q 1103 1317 1076 1320 q 1048 1322 1033 1321 q 920 1312 837 1289 q 754 1266 696 1238 q 637 1209 600 1180 q 562 1152 540 1133 q 517 1113 504 1108 q 482 1100 471 1109 q 460 1118 463 1139 q 466 1164 496 1200 q 509 1213 535 1235 q 561 1257 598 1282 q 636 1307 685 1332 q 734 1358 792 1378 q 851 1399 918 1412 q 986 1426 1062 1427 z"},"|":{"x_min":0,"x_max":666,"ha":666,"o":"m 302 693 q 299 694 300 699 q 302 704 308 709 q 314 714 325 718 q 336 723 351 723 q 364 723 374 719 q 383 715 388 705 q 390 699 386 668 q 383 638 376 589 q 368 534 357 462 q 346 389 333 312 q 320 234 308 158 q 295 83 284 23 q 274 -37 267 -76 q 260 -114 259 -118 q 254 -131 242 -136 q 229 -142 214 -142 q 203 -142 191 -138 q 179 -134 171 -126 q 170 -125 174 -97 q 178 -69 185 -21 q 191 20 198 73 q 206 126 215 184 q 224 243 234 304 q 244 366 253 423 q 262 479 270 528 q 277 578 283 615 q 289 652 293 673 q 297 694 300 693 z"},"t":{"x_min":0,"x_max":388,"ha":388,"o":"m 124 829 q 130 831 154 836 q 179 841 218 848 q 257 855 308 862 q 358 870 414 876 q 445 918 465 942 q 485 967 490 971 q 505 982 524 986 q 544 991 562 991 q 592 991 608 979 q 624 967 610 945 l 611 948 l 605 939 l 572 890 q 603 892 634 893 q 664 894 694 894 q 742 894 786 890 q 830 887 866 880 q 903 872 931 860 q 959 848 975 830 l 974 830 q 983 828 988 814 q 993 801 990 787 q 987 773 974 765 q 962 757 937 767 q 924 781 872 788 q 821 795 747 795 q 691 795 628 792 q 566 789 502 784 q 472 738 438 684 q 403 630 368 574 q 332 519 299 464 q 266 408 238 358 q 209 308 188 266 q 168 225 159 197 q 156 187 154 174 q 151 161 149 150 q 146 128 148 109 q 150 90 167 85 q 182 80 206 92 q 229 103 258 126 q 288 150 321 183 q 354 216 388 252 q 423 289 457 328 q 491 367 522 402 l 522 401 q 551 434 574 444 q 596 454 605 445 q 614 436 605 410 q 596 383 563 344 q 546 324 518 290 q 489 255 454 216 q 418 177 377 137 q 336 97 292 66 q 249 34 204 14 q 160 -5 119 -2 q 87 3 67 20 q 47 37 36 62 q 26 86 24 115 q 22 144 26 173 q 36 234 68 310 q 101 386 146 466 q 190 545 240 624 q 290 702 337 769 q 289 764 247 760 q 205 755 174 751 q 143 747 124 744 q 106 742 104 741 q 89 737 78 748 q 67 759 70 777 q 72 791 84 804 q 95 818 124 829 z"},"M":{"x_min":0,"x_max":1062,"ha":1062,"o":"m 726 1376 q 736 1408 760 1422 q 783 1437 809 1437 q 827 1437 844 1431 q 860 1425 872 1414 q 883 1403 888 1388 q 892 1373 886 1355 q 843 1239 802 1120 q 760 1002 723 888 q 686 774 654 668 q 623 562 598 472 q 574 382 558 312 q 541 241 535 198 q 532 174 532 160 q 532 147 537 148 q 537 147 555 180 q 573 213 604 271 q 634 329 675 408 q 716 486 762 576 q 809 666 858 762 q 906 858 953 952 q 1000 1047 1042 1134 q 1085 1221 1118 1292 q 1150 1363 1171 1413 q 1192 1463 1196 1484 q 1199 1500 1219 1504 q 1239 1507 1264 1500 q 1289 1494 1312 1480 q 1335 1466 1343 1447 q 1345 1440 1330 1401 q 1316 1362 1290 1295 q 1264 1229 1230 1140 q 1195 1051 1158 948 q 1120 846 1082 736 q 1045 625 1012 515 q 979 405 954 302 q 928 198 916 110 q 902 7 908 -66 q 914 -139 949 -171 q 960 -182 960 -191 q 959 -200 950 -206 q 941 -213 926 -217 q 910 -221 891 -221 q 874 -221 856 -216 q 837 -212 823 -201 l 824 -201 q 800 -182 786 -151 q 773 -120 767 -81 q 761 -42 762 5 q 764 52 771 105 q 782 182 803 267 q 824 352 850 437 q 876 522 904 603 q 932 684 957 753 q 926 689 892 622 q 858 554 824 487 q 789 420 756 356 q 722 293 693 238 q 657 169 628 115 q 600 61 586 32 q 579 18 566 8 q 553 -3 536 -10 q 519 -16 500 -19 q 482 -22 465 -22 q 436 -22 414 -14 q 393 -6 388 11 q 380 47 380 96 q 380 146 388 203 q 399 283 422 377 q 446 471 477 568 q 508 666 543 761 q 578 856 613 939 q 593 897 570 850 q 547 804 521 755 q 481 676 438 592 q 396 509 353 429 q 310 349 268 276 q 227 204 189 147 q 151 90 118 52 q 85 15 59 5 q 38 -3 22 -6 q 5 -10 -7 -10 q -25 -10 -38 -5 q -51 0 -60 7 q -71 14 -77 24 q -55 42 -18 90 q 18 138 64 207 q 109 276 161 362 q 213 448 268 542 q 323 635 378 732 q 433 829 484 920 q 534 1011 578 1092 q 621 1172 654 1234 q 686 1295 706 1332 q 725 1370 726 1375 z"},"g":{"x_min":0,"x_max":688,"ha":688,"o":"m 565 426 q 564 408 557 392 q 550 375 539 362 q 566 360 574 342 q 583 323 578 286 q 575 265 558 232 q 542 198 513 160 q 484 123 444 86 q 403 50 352 24 l 339 -6 q 409 35 478 80 q 546 125 605 173 q 664 221 710 272 q 755 322 780 375 l 780 374 q 792 399 810 411 q 829 423 846 423 q 866 423 877 408 q 888 393 879 363 q 855 293 796 227 q 736 161 654 98 q 573 35 478 -24 q 382 -84 286 -139 q 251 -228 210 -312 q 168 -397 114 -464 q 61 -531 -8 -574 q -78 -617 -169 -623 q -195 -622 -218 -612 q -241 -601 -256 -582 q -272 -563 -280 -538 q -287 -512 -282 -481 q -280 -470 -278 -460 q -275 -450 -271 -439 q -256 -396 -214 -354 q -171 -311 -110 -268 q -49 -226 25 -184 q 99 -141 176 -99 l 196 -87 l 208 -57 l 226 -15 q 212 -17 198 -18 q 183 -18 169 -18 q 151 -18 122 -12 q 94 -6 68 12 q 41 29 22 60 q 4 91 6 142 q 15 233 60 310 q 106 388 170 444 q 234 501 306 532 q 378 563 440 563 q 483 560 508 543 q 533 526 546 505 q 559 484 562 462 q 566 440 565 426 z m 193 78 q 180 83 188 95 q 195 107 216 122 q 236 138 266 157 q 297 176 330 194 q 359 245 392 284 q 424 323 461 343 q 459 345 459 348 q 459 350 458 352 q 460 357 462 364 q 463 372 464 380 q 466 392 465 406 q 464 419 457 430 q 450 442 436 450 q 421 457 396 459 q 381 460 345 443 q 309 426 270 390 q 231 355 198 300 q 164 245 152 171 q 143 139 156 112 q 169 86 193 78 z m -120 -515 q -83 -506 -49 -480 q -15 -454 16 -416 q 47 -378 76 -330 q 104 -282 131 -229 q 73 -264 22 -296 q -30 -329 -70 -360 q -110 -391 -136 -418 q -163 -446 -171 -470 q -173 -490 -160 -505 q -148 -520 -120 -515 z"},"j":{"x_min":0,"x_max":378,"ha":378,"o":"m 116 433 q 122 445 136 455 q 151 465 168 472 q 186 478 204 482 q 223 486 238 486 q 258 486 268 478 q 277 471 272 457 q 271 455 270 452 q 270 449 268 446 q 261 422 239 354 q 217 286 184 195 q 259 242 334 292 q 409 343 481 397 q 490 403 500 402 q 510 402 518 397 q 526 392 530 383 q 535 374 533 362 q 532 354 528 346 q 523 337 518 330 q 498 309 462 281 q 426 253 380 220 q 334 188 280 152 q 225 116 167 79 q 156 72 147 66 q 138 59 128 54 q 100 -14 66 -84 q 33 -154 -4 -219 q -42 -284 -83 -340 q -124 -397 -168 -439 q -212 -481 -259 -505 q -306 -529 -355 -528 q -369 -528 -393 -520 q -417 -512 -439 -494 q -461 -476 -476 -448 q -490 -419 -485 -377 q -477 -313 -437 -256 q -397 -198 -334 -143 q -270 -88 -186 -34 q -101 20 -5 79 q 16 135 34 188 q 53 240 68 284 q 83 329 94 362 q 104 396 110 414 q 111 418 112 421 q 113 424 114 426 q 115 429 115 430 z m 195 530 q 175 537 166 550 q 158 563 156 577 q 154 591 156 604 q 159 616 162 621 l 161 621 q 166 633 172 640 q 179 648 186 651 q 180 659 178 670 q 175 681 182 693 q 194 715 214 734 q 233 754 256 767 q 279 780 302 786 q 324 791 342 784 q 358 778 367 767 q 376 756 380 744 q 385 731 386 717 q 386 703 384 690 q 382 675 378 662 q 373 648 370 642 q 356 615 337 592 q 318 568 296 552 q 273 535 248 528 q 222 521 195 529 z m -335 -422 q -302 -420 -268 -392 q -233 -363 -200 -316 q -166 -269 -134 -208 q -101 -146 -71 -79 q -134 -122 -190 -164 q -247 -206 -290 -244 q -333 -283 -358 -316 q -384 -349 -385 -375 q -387 -401 -372 -410 q -356 -420 -335 -422 z m 226 639 l 226 634 q 224 628 224 620 q 225 613 235 610 q 238 608 246 611 q 253 614 262 620 q 271 627 280 637 q 290 647 296 660 l 295 659 q 297 664 298 671 q 298 678 287 681 q 280 683 264 671 q 249 659 238 648 z"},"i":{"x_min":0,"x_max":383,"ha":383,"o":"m 136 462 q 143 471 156 478 q 168 485 183 490 q 198 495 214 498 q 230 500 245 500 q 269 500 284 492 q 299 483 296 466 q 294 455 280 432 q 267 408 247 376 q 232 351 214 323 q 197 295 182 266 q 167 238 155 212 q 143 185 138 164 q 129 122 138 106 q 146 90 161 90 q 189 90 222 106 q 256 121 289 145 q 322 169 354 198 q 386 226 412 252 q 438 279 456 299 q 473 319 479 327 q 491 342 510 350 q 528 358 541 354 q 554 350 556 332 q 558 314 538 278 q 526 261 502 234 q 478 206 446 175 q 414 144 376 112 q 338 81 298 56 q 258 30 218 14 q 178 -2 142 -2 q 114 -2 88 5 q 62 12 42 28 q 23 45 12 72 q 0 99 2 138 q 8 181 24 228 q 41 276 61 321 q 81 366 101 403 q 121 440 136 462 z m 254 529 q 233 536 224 549 q 216 562 214 576 q 213 590 216 602 q 218 615 221 620 l 220 620 q 224 632 230 640 q 237 647 245 650 q 237 658 235 669 q 233 680 240 692 q 252 714 272 734 q 291 753 314 766 q 337 779 360 784 q 383 790 401 783 q 417 777 426 766 q 435 755 439 742 q 443 730 444 716 q 444 702 442 689 q 440 674 436 660 q 431 647 429 641 q 415 615 396 592 q 377 568 354 552 q 332 535 306 528 q 281 520 254 528 z m 285 638 l 284 633 q 282 627 284 620 q 285 612 297 607 q 300 606 306 610 q 313 613 322 620 q 330 626 339 636 q 348 647 354 660 l 354 659 q 356 664 356 670 q 357 677 345 680 q 337 682 322 670 q 307 658 296 648 z"},"y":{"x_min":0,"x_max":711,"ha":711,"o":"m 205 490 q 206 490 206 490 q 206 491 208 491 q 220 494 242 499 q 263 504 283 504 q 304 504 314 496 q 324 487 311 465 q 297 443 278 412 q 258 380 239 345 q 220 310 206 274 q 191 238 187 208 q 182 174 194 150 q 207 127 247 122 q 279 117 309 124 q 339 132 365 148 q 393 213 415 268 q 437 322 453 364 l 453 363 l 477 427 q 497 475 524 496 q 551 516 576 516 q 592 516 606 508 q 619 501 628 488 q 637 476 640 458 q 643 440 637 419 q 620 352 582 278 q 544 205 487 145 q 540 179 590 213 q 641 247 685 280 q 729 314 766 346 q 802 379 828 410 q 852 437 877 437 q 896 437 908 423 q 920 409 917 387 q 915 378 912 369 q 908 360 900 351 q 862 308 808 264 q 754 219 690 174 q 626 129 556 85 q 485 41 414 -2 q 386 -70 352 -140 q 319 -209 278 -273 q 238 -337 191 -392 q 144 -448 90 -489 q 35 -530 -28 -554 q -90 -577 -161 -576 q -184 -576 -204 -566 q -225 -555 -240 -536 q -255 -518 -262 -492 q -269 -467 -265 -436 q -263 -424 -260 -412 q -257 -401 -252 -390 q -234 -346 -184 -298 q -134 -250 -62 -199 q 9 -148 96 -94 q 182 -41 273 13 l 307 34 q 273 24 232 24 q 218 24 205 26 q 192 27 179 29 q 140 36 115 54 q 90 73 78 99 q 65 125 62 158 q 60 190 65 225 q 71 270 88 316 q 105 361 125 398 q 145 436 166 461 q 187 486 202 490 z m -112 -468 q -62 -456 -14 -422 q 33 -388 78 -340 q 122 -291 163 -230 q 204 -170 241 -104 q 164 -150 94 -194 q 25 -237 -30 -278 q -84 -318 -119 -355 q -154 -392 -163 -423 q -165 -443 -152 -458 q -140 -473 -112 -468 z"},"p":{"x_min":0,"x_max":725,"ha":725,"o":"m 114 426 q 115 431 128 440 q 140 448 158 456 q 176 465 196 472 q 217 480 234 484 q 252 487 263 486 q 274 485 273 477 q 272 472 264 438 q 255 403 239 347 q 302 404 358 442 q 415 481 459 492 q 469 494 478 495 q 488 496 497 496 q 560 496 584 452 q 608 409 597 331 q 596 324 594 314 q 593 305 591 298 q 567 195 525 128 q 576 149 623 186 q 670 223 706 260 q 743 298 766 327 q 789 356 792 361 q 803 376 814 382 q 825 388 834 388 q 846 388 855 380 q 864 373 868 362 q 873 350 872 338 q 872 325 865 315 l 866 316 l 860 307 q 850 293 831 269 q 812 245 784 216 q 756 186 720 155 q 685 124 642 96 q 598 69 548 48 q 497 28 440 20 q 436 19 428 19 q 389 -8 356 -17 q 323 -26 307 -26 q 269 -26 242 -14 q 216 -3 200 16 q 183 34 176 56 q 169 79 171 102 q 149 30 124 -46 q 99 -122 72 -195 q 44 -268 15 -334 q -14 -400 -44 -452 q -73 -503 -103 -538 q -133 -572 -162 -582 q -182 -589 -198 -589 q -228 -589 -248 -572 q -267 -556 -275 -533 q -288 -498 -280 -446 q -273 -391 -244 -322 q -215 -252 -172 -176 q -128 -100 -74 -22 q -19 57 41 131 q 55 182 67 228 q 79 274 88 312 q 98 351 104 380 q 111 409 114 426 z m 449 369 q 425 367 396 352 q 367 337 334 312 q 302 287 266 253 q 231 219 194 180 l 187 156 q 198 174 214 186 q 229 199 249 204 q 281 210 307 194 q 333 179 353 159 q 364 150 374 141 q 384 132 395 125 q 410 148 427 182 q 444 215 460 262 q 465 277 468 290 q 472 302 473 312 q 478 341 470 354 q 462 368 449 369 z m -184 -467 q -170 -464 -152 -434 q -134 -403 -113 -353 q -92 -303 -70 -238 q -48 -173 -26 -102 q -61 -153 -90 -202 q -120 -251 -142 -294 q -165 -338 -180 -374 q -194 -409 -197 -434 q -202 -466 -184 -467 z m 285 64 q 287 62 291 60 q 295 59 302 58 q 292 65 288 72 q 282 78 276 83 q 269 88 267 87 q 262 86 268 78 q 275 70 285 64 z"},"X":{"x_min":0,"x_max":1150,"ha":1150,"o":"m 675 1244 q 649 1264 639 1280 q 629 1295 631 1307 q 636 1338 682 1338 q 700 1338 723 1332 q 746 1326 770 1313 q 806 1293 831 1236 q 856 1180 874 1100 q 893 1020 906 922 q 919 824 930 721 q 1023 790 1114 860 q 1206 930 1290 998 q 1373 1065 1446 1128 q 1519 1191 1575 1246 q 1631 1302 1666 1348 q 1702 1395 1711 1430 q 1715 1444 1731 1438 q 1747 1432 1762 1412 q 1778 1391 1786 1361 q 1795 1331 1784 1297 q 1770 1255 1703 1188 q 1636 1122 1533 1038 q 1430 954 1300 856 q 1169 758 1029 654 l 944 591 q 953 514 963 438 q 973 363 986 292 q 999 222 1015 160 q 1031 99 1052 50 q 1073 2 1098 -32 q 1124 -65 1157 -77 l 1156 -77 q 1170 -81 1176 -90 q 1183 -100 1181 -111 q 1178 -130 1154 -146 q 1129 -161 1087 -156 q 1027 -148 984 -90 q 940 -33 908 57 q 877 147 855 261 q 833 375 816 496 q 684 397 560 300 q 436 204 334 116 q 233 28 161 -48 q 89 -125 61 -182 l 61 -181 q 53 -199 38 -192 q 22 -186 8 -168 q -5 -150 -12 -126 q -19 -103 -11 -86 q 9 -46 51 3 q 93 52 152 108 q 212 164 286 226 q 360 288 444 354 q 527 419 617 487 q 707 555 799 623 l 787 725 q 776 821 765 908 q 754 995 741 1064 q 728 1134 712 1182 q 696 1229 675 1244 z"},"Y":{"x_min":0,"x_max":1350,"ha":1350,"o":"m 1608 1432 q 1584 1354 1560 1270 q 1535 1187 1510 1098 q 1470 960 1427 816 q 1384 671 1336 526 q 1289 382 1236 242 q 1183 102 1123 -27 q 1173 -52 1211 -78 q 1249 -105 1276 -129 q 1302 -153 1318 -172 q 1334 -191 1340 -200 l 1339 -200 q 1348 -211 1351 -224 q 1354 -237 1352 -248 q 1350 -263 1342 -274 q 1335 -286 1325 -290 q 1315 -295 1304 -292 q 1293 -290 1284 -276 q 1277 -267 1261 -250 q 1245 -233 1220 -211 q 1194 -189 1159 -164 q 1124 -140 1079 -117 q 1010 -254 930 -370 q 851 -485 760 -569 q 668 -653 564 -700 q 459 -746 339 -746 q 231 -745 155 -713 q 79 -681 32 -632 q -14 -583 -34 -524 q -53 -465 -48 -410 q -36 -314 8 -241 q 51 -168 112 -115 q 173 -62 244 -27 q 315 8 382 30 q 450 51 506 60 q 561 70 592 72 q 608 73 624 73 q 639 73 654 73 q 756 73 840 60 q 923 46 992 24 q 1040 124 1082 228 q 1125 333 1162 436 q 1200 539 1232 637 q 1265 735 1292 823 q 1300 848 1304 864 q 1309 880 1312 890 q 1315 901 1317 908 q 1319 915 1322 922 q 1324 930 1328 940 q 1331 951 1338 968 q 1297 893 1248 806 q 1199 720 1146 633 q 1093 546 1039 463 q 985 380 934 310 q 882 241 836 190 q 789 139 752 116 q 729 104 704 97 q 679 90 657 90 q 629 90 609 100 q 589 111 586 130 q 581 162 582 202 q 584 243 590 290 q 600 359 620 438 q 639 518 665 602 q 691 685 721 771 q 751 857 782 938 q 812 1018 841 1092 q 870 1165 894 1225 q 913 1273 927 1309 q 941 1345 949 1368 q 966 1406 998 1425 q 1030 1444 1058 1444 q 1087 1444 1104 1428 q 1120 1411 1106 1380 l 1107 1380 q 1052 1258 1004 1139 q 955 1020 914 910 q 873 800 840 700 q 807 601 783 518 q 759 435 744 370 q 728 306 722 266 q 714 217 718 217 q 739 214 774 245 q 809 276 852 331 q 896 386 946 461 q 996 536 1048 622 q 1101 708 1154 800 q 1206 892 1254 982 q 1301 1072 1342 1155 q 1384 1238 1414 1305 q 1443 1372 1460 1418 q 1476 1465 1475 1482 q 1474 1498 1492 1500 q 1511 1503 1535 1496 q 1559 1489 1580 1474 q 1602 1458 1608 1438 z m 351 -631 q 442 -624 524 -577 q 607 -530 682 -454 q 756 -378 822 -278 q 889 -178 948 -64 q 891 -47 825 -36 q 759 -25 681 -25 q 659 -25 636 -26 q 613 -27 588 -29 q 484 -38 406 -64 q 329 -90 273 -125 q 217 -160 180 -200 q 144 -241 122 -280 q 101 -318 92 -352 q 83 -385 83 -405 q 80 -463 104 -506 q 128 -548 167 -576 q 206 -604 255 -618 q 304 -631 351 -631 z"},"c":{"x_min":0,"x_max":522,"ha":522,"o":"m 411 561 q 445 561 467 550 q 489 539 501 520 q 513 502 516 478 q 519 455 516 431 q 512 406 502 380 q 492 355 478 336 q 455 307 428 296 q 400 284 380 284 q 352 284 342 298 q 333 312 354 330 q 383 356 397 382 q 411 407 414 428 q 416 448 410 460 q 405 471 394 468 l 395 468 q 373 463 337 446 q 301 428 265 394 q 229 360 198 308 q 168 256 156 183 q 154 170 156 152 q 159 133 169 116 q 179 99 198 87 q 217 75 247 75 q 299 75 350 105 q 402 135 447 178 q 492 221 529 267 q 566 313 590 346 q 604 364 614 377 q 624 390 629 393 q 643 403 657 402 q 671 402 681 395 q 691 388 694 376 q 698 363 692 350 q 683 332 660 298 q 636 265 600 225 q 565 185 521 144 q 477 103 426 70 q 376 36 322 16 q 269 -5 215 -3 q 193 -3 158 4 q 123 11 90 32 q 58 52 36 88 q 14 125 18 184 q 22 214 38 254 q 53 293 78 334 q 103 376 138 416 q 172 456 214 488 q 256 520 306 540 q 355 560 411 561 z"},"[":{"x_min":0,"x_max":0,"ha":0,"o":"m 811 -152 q 816 -157 814 -170 q 813 -183 806 -196 q 799 -208 786 -216 q 774 -225 756 -222 q 740 -219 684 -216 q 629 -214 539 -214 q 441 -214 308 -218 q 174 -223 15 -236 q -144 -248 -325 -270 q -506 -291 -700 -326 q -893 -360 -1094 -408 q -1296 -457 -1497 -522 q -1531 -524 -1544 -500 q -1556 -475 -1551 -443 q -1549 -428 -1543 -412 q -1537 -397 -1528 -384 q -1520 -372 -1509 -364 q -1498 -356 -1486 -355 q -1323 -313 -1146 -279 q -970 -245 -792 -219 q -613 -193 -437 -174 q -261 -155 -100 -143 q 62 -131 205 -126 q 348 -120 462 -120 q 612 -120 704 -128 q 795 -137 811 -152 z"},"6":{"x_min":0,"x_max":1219,"ha":1219,"o":"m 876 781 l 739 657 l 775 471 l 615 565 l 450 471 l 489 652 l 351 781 l 537 801 l 615 972 l 690 802 z m 682 576 l 639 834 l 586 834 l 541 576 l 564 562 l 583 576 l 592 634 l 631 634 l 642 576 l 663 562 z m 628 672 l 598 672 l 612 774 z m 610 21 l 631 21 l 624 39 q 622 42 622 44 q 622 46 619 49 q 619 45 616 39 z m 352 -5 l 352 3 l 363 3 l 363 -5 z m 844 -5 l 844 58 l 852 58 l 852 1 l 883 1 l 883 -5 z m 787 -5 l 787 58 l 832 58 l 832 49 l 795 49 l 795 30 l 829 30 l 829 22 l 795 22 l 795 1 l 832 1 l 832 -5 z m 565 -5 l 565 21 l 541 58 l 552 58 l 564 39 q 567 30 570 28 q 571 30 572 33 q 574 36 577 39 l 589 58 l 598 58 l 573 21 l 573 -5 z m 376 -5 l 376 58 l 400 58 q 403 58 406 56 q 408 55 409 55 q 415 54 417 49 q 420 46 420 40 q 420 36 417 34 q 415 28 411 28 q 415 27 420 22 q 423 16 423 13 q 423 10 422 8 q 421 7 421 6 q 420 0 415 0 q 414 -3 412 -3 q 411 -3 409 -5 l 400 -5 z m 205 -5 l 187 58 l 196 58 l 205 16 q 207 12 207 9 q 207 6 208 3 q 210 10 210 15 l 222 58 l 232 58 l 241 25 q 243 18 244 14 q 246 9 246 3 q 247 6 247 9 q 247 12 249 16 l 259 58 l 267 58 l 249 -5 l 241 -5 l 229 42 q 228 46 228 49 q 226 46 226 42 l 213 -5 z m 123 -5 l 105 58 l 115 58 l 123 16 q 123 9 127 3 q 129 10 129 15 l 141 58 l 150 58 l 160 25 q 162 18 162 14 q 163 9 163 3 q 166 6 166 9 q 166 12 168 16 l 177 58 l 186 58 l 168 -5 l 160 -5 l 148 42 q 147 46 147 49 q 144 46 144 42 l 130 -5 z m 384 30 l 397 30 q 403 30 405 33 q 409 33 409 34 q 411 36 411 40 q 411 45 409 46 l 408 46 q 406 46 406 47 q 406 48 405 48 q 403 49 396 49 l 384 49 z m 285 -5 l 268 58 l 277 58 l 286 16 q 288 12 288 9 q 288 6 291 3 q 291 9 292 11 q 292 13 292 15 l 304 58 l 313 58 l 324 25 q 325 18 326 14 q 327 9 327 3 q 330 6 330 9 q 330 12 331 16 l 342 58 l 349 58 l 331 -5 l 324 -5 l 312 42 q 310 46 310 49 q 307 46 307 42 l 294 -5 z m 664 28 l 682 28 q 685 28 688 29 q 690 30 693 30 q 696 30 696 34 q 697 36 697 40 q 697 45 694 48 q 693 49 684 49 l 664 49 z m 384 1 l 400 1 q 403 1 405 3 l 409 3 q 411 6 414 7 l 414 13 q 414 16 411 19 q 411 22 408 22 l 397 22 l 384 22 z m 435 -5 l 435 58 l 442 58 l 442 -5 z m 985 25 q 985 12 990 7 q 996 1 1006 1 q 1017 1 1021 7 q 1027 12 1027 27 q 1027 34 1026 39 q 1023 46 1018 48 q 1014 49 1006 49 q 997 49 993 45 q 985 39 985 25 z m 976 25 q 976 42 985 49 q 991 58 1006 58 q 1011 58 1014 56 q 1018 55 1021 54 q 1026 52 1028 49 q 1030 46 1033 42 q 1035 39 1035 27 q 1035 13 1032 9 q 1027 1 1021 -3 q 1015 -6 1006 -6 q 1002 -6 998 -6 q 994 -5 990 -3 q 987 0 984 3 q 982 6 981 9 q 979 13 978 17 q 976 21 976 25 z m 592 -5 l 616 58 l 625 58 l 651 -5 l 642 -5 l 634 13 l 609 13 l 600 -5 z m 459 -5 l 459 58 l 466 58 l 466 1 l 495 1 l 495 -5 z m 892 -5 l 892 3 l 903 3 l 903 -5 z m 748 19 l 748 27 l 774 27 l 774 3 q 768 -3 762 -5 q 759 -5 755 -6 q 751 -6 748 -6 q 739 -6 733 -3 q 729 0 726 2 q 723 4 721 9 q 720 13 718 17 q 717 21 717 25 q 717 31 718 34 q 720 37 721 42 q 724 51 732 54 q 735 55 740 56 q 744 58 748 58 q 756 58 760 55 q 766 54 768 49 q 772 45 774 40 l 766 39 q 766 40 762 45 q 762 48 756 49 l 748 49 l 739 49 q 735 48 732 45 q 732 43 727 39 q 727 36 726 33 q 726 30 726 27 q 726 16 729 13 q 735 4 736 3 q 741 1 748 1 q 754 1 759 3 q 762 6 764 6 q 765 6 766 7 l 766 19 z m 657 -5 l 657 58 l 684 58 q 688 58 691 56 q 694 55 697 55 q 702 54 703 49 q 706 46 706 40 q 706 33 702 28 q 700 27 696 26 q 693 25 688 22 q 691 22 692 22 q 693 21 694 21 q 696 18 696 16 q 697 13 700 10 l 712 -5 l 702 -5 l 693 7 q 690 10 689 12 q 688 15 687 16 q 687 19 686 19 q 684 19 682 21 l 681 21 q 679 21 679 22 q 679 22 678 22 l 675 22 l 664 22 l 664 -5 z m 505 -5 l 505 58 l 514 58 l 514 1 l 544 1 l 544 -5 z m 961 16 l 969 15 q 966 3 960 0 q 954 -6 943 -6 q 934 -6 928 -3 q 924 0 922 3 q 921 6 918 9 q 915 21 915 27 q 915 33 918 45 q 925 52 928 54 q 933 55 936 56 q 939 58 943 58 q 948 58 952 56 q 957 55 960 54 q 963 51 965 48 q 967 45 969 40 l 960 39 q 960 45 954 48 q 951 49 943 49 q 934 49 931 48 q 928 46 928 44 q 927 42 924 39 q 924 36 923 33 q 922 30 922 27 q 922 18 927 13 q 927 10 928 8 q 930 6 931 3 q 936 1 943 1 q 951 1 955 6 q 960 10 961 16 z m 1047 -5 l 1047 58 l 1059 58 l 1074 13 q 1074 10 1076 8 q 1077 6 1077 3 q 1077 4 1080 13 l 1093 58 l 1105 58 l 1105 -5 l 1098 -5 l 1098 46 l 1080 -5 l 1072 -5 l 1054 48 l 1054 -5 z m 610 21 l 631 21 l 624 39 q 622 42 622 44 q 622 46 619 49 q 619 45 616 39 z m 352 -5 l 352 3 l 363 3 l 363 -5 z m 844 -5 l 844 58 l 852 58 l 852 1 l 883 1 l 883 -5 z m 787 -5 l 787 58 l 832 58 l 832 49 l 795 49 l 795 30 l 829 30 l 829 22 l 795 22 l 795 1 l 832 1 l 832 -5 z m 565 -5 l 565 21 l 541 58 l 552 58 l 564 39 q 567 30 570 28 q 571 30 572 33 q 574 36 577 39 l 589 58 l 598 58 l 573 21 l 573 -5 z m 376 -5 l 376 58 l 400 58 q 403 58 406 56 q 408 55 409 55 q 415 54 417 49 q 420 46 420 40 q 420 36 417 34 q 415 28 411 28 q 415 27 420 22 q 423 16 423 13 q 423 10 422 8 q 421 7 421 6 q 420 0 415 0 q 414 -3 412 -3 q 411 -3 409 -5 l 400 -5 z m 205 -5 l 187 58 l 196 58 l 205 16 q 207 12 207 9 q 207 6 208 3 q 210 10 210 15 l 222 58 l 232 58 l 241 25 q 243 18 244 14 q 246 9 246 3 q 247 6 247 9 q 247 12 249 16 l 259 58 l 267 58 l 249 -5 l 241 -5 l 229 42 q 228 46 228 49 q 226 46 226 42 l 213 -5 z m 123 -5 l 105 58 l 115 58 l 123 16 q 123 9 127 3 q 129 10 129 15 l 141 58 l 150 58 l 160 25 q 162 18 162 14 q 163 9 163 3 q 166 6 166 9 q 166 12 168 16 l 177 58 l 186 58 l 168 -5 l 160 -5 l 148 42 q 147 46 147 49 q 144 46 144 42 l 130 -5 z m 384 30 l 397 30 q 403 30 405 33 q 409 33 409 34 q 411 36 411 40 q 411 45 409 46 l 408 46 q 406 46 406 47 q 406 48 405 48 q 403 49 396 49 l 384 49 z m 285 -5 l 268 58 l 277 58 l 286 16 q 288 12 288 9 q 288 6 291 3 q 291 9 292 11 q 292 13 292 15 l 304 58 l 313 58 l 324 25 q 325 18 326 14 q 327 9 327 3 q 330 6 330 9 q 330 12 331 16 l 342 58 l 349 58 l 331 -5 l 324 -5 l 312 42 q 310 46 310 49 q 307 46 307 42 l 294 -5 z m 664 28 l 682 28 q 685 28 688 29 q 690 30 693 30 q 696 30 696 34 q 697 36 697 40 q 697 45 694 48 q 693 49 684 49 l 664 49 z m 384 1 l 400 1 q 403 1 405 3 l 409 3 q 411 6 414 7 l 414 13 q 414 16 411 19 q 411 22 408 22 l 397 22 l 384 22 z m 435 -5 l 435 58 l 442 58 l 442 -5 z m 985 25 q 985 12 990 7 q 996 1 1006 1 q 1017 1 1021 7 q 1027 12 1027 27 q 1027 34 1026 39 q 1023 46 1018 48 q 1014 49 1006 49 q 997 49 993 45 q 985 39 985 25 z m 976 25 q 976 42 985 49 q 991 58 1006 58 q 1011 58 1014 56 q 1018 55 1021 54 q 1026 52 1028 49 q 1030 46 1033 42 q 1035 39 1035 27 q 1035 13 1032 9 q 1027 1 1021 -3 q 1015 -6 1006 -6 q 1002 -6 998 -6 q 994 -5 990 -3 q 987 0 984 3 q 982 6 981 9 q 979 13 978 17 q 976 21 976 25 z m 592 -5 l 616 58 l 625 58 l 651 -5 l 642 -5 l 634 13 l 609 13 l 600 -5 z m 459 -5 l 459 58 l 466 58 l 466 1 l 495 1 l 495 -5 z m 892 -5 l 892 3 l 903 3 l 903 -5 z m 748 19 l 748 27 l 774 27 l 774 3 q 768 -3 762 -5 q 759 -5 755 -6 q 751 -6 748 -6 q 739 -6 733 -3 q 729 0 726 2 q 723 4 721 9 q 720 13 718 17 q 717 21 717 25 q 717 31 718 34 q 720 37 721 42 q 724 51 732 54 q 735 55 740 56 q 744 58 748 58 q 756 58 760 55 q 766 54 768 49 q 772 45 774 40 l 766 39 q 766 40 762 45 q 762 48 756 49 l 748 49 l 739 49 q 735 48 732 45 q 732 43 727 39 q 727 36 726 33 q 726 30 726 27 q 726 16 729 13 q 735 4 736 3 q 741 1 748 1 q 754 1 759 3 q 762 6 764 6 q 765 6 766 7 l 766 19 z m 657 -5 l 657 58 l 684 58 q 688 58 691 56 q 694 55 697 55 q 702 54 703 49 q 706 46 706 40 q 706 33 702 28 q 700 27 696 26 q 693 25 688 22 q 691 22 692 22 q 693 21 694 21 q 696 18 696 16 q 697 13 700 10 l 712 -5 l 702 -5 l 693 7 q 690 10 689 12 q 688 15 687 16 q 687 19 686 19 q 684 19 682 21 l 681 21 q 679 21 679 22 q 679 22 678 22 l 675 22 l 664 22 l 664 -5 z m 505 -5 l 505 58 l 514 58 l 514 1 l 544 1 l 544 -5 z m 961 16 l 969 15 q 966 3 960 0 q 954 -6 943 -6 q 934 -6 928 -3 q 924 0 922 3 q 921 6 918 9 q 915 21 915 27 q 915 33 918 45 q 925 52 928 54 q 933 55 936 56 q 939 58 943 58 q 948 58 952 56 q 957 55 960 54 q 963 51 965 48 q 967 45 969 40 l 960 39 q 960 45 954 48 q 951 49 943 49 q 934 49 931 48 q 928 46 928 44 q 927 42 924 39 q 924 36 923 33 q 922 30 922 27 q 922 18 927 13 q 927 10 928 8 q 930 6 931 3 q 936 1 943 1 q 951 1 955 6 q 960 10 961 16 z m 1047 -5 l 1047 58 l 1059 58 l 1074 13 q 1074 10 1076 8 q 1077 6 1077 3 q 1077 4 1080 13 l 1093 58 l 1105 58 l 1105 -5 l 1098 -5 l 1098 46 l 1080 -5 l 1072 -5 l 1054 48 l 1054 -5 z m 610 21 l 631 21 l 624 39 q 622 42 622 44 q 622 46 619 49 q 619 45 616 39 z m 352 -5 l 352 3 l 363 3 l 363 -5 z m 844 -5 l 844 58 l 852 58 l 852 1 l 883 1 l 883 -5 z m 787 -5 l 787 58 l 832 58 l 832 49 l 795 49 l 795 30 l 829 30 l 829 22 l 795 22 l 795 1 l 832 1 l 832 -5 z m 565 -5 l 565 21 l 541 58 l 552 58 l 564 39 q 567 30 570 28 q 571 30 572 33 q 574 36 577 39 l 589 58 l 598 58 l 573 21 l 573 -5 z m 376 -5 l 376 58 l 400 58 q 403 58 406 56 q 408 55 409 55 q 415 54 417 49 q 420 46 420 40 q 420 36 417 34 q 415 28 411 28 q 415 27 420 22 q 423 16 423 13 q 423 10 422 8 q 421 7 421 6 q 420 0 415 0 q 414 -3 412 -3 q 411 -3 409 -5 l 400 -5 z m 205 -5 l 187 58 l 196 58 l 205 16 q 207 12 207 9 q 207 6 208 3 q 210 10 210 15 l 222 58 l 232 58 l 241 25 q 243 18 244 14 q 246 9 246 3 q 247 6 247 9 q 247 12 249 16 l 259 58 l 267 58 l 249 -5 l 241 -5 l 229 42 q 228 46 228 49 q 226 46 226 42 l 213 -5 z m 123 -5 l 105 58 l 115 58 l 123 16 q 123 9 127 3 q 129 10 129 15 l 141 58 l 150 58 l 160 25 q 162 18 162 14 q 163 9 163 3 q 166 6 166 9 q 166 12 168 16 l 177 58 l 186 58 l 168 -5 l 160 -5 l 148 42 q 147 46 147 49 q 144 46 144 42 l 130 -5 z m 384 30 l 397 30 q 403 30 405 33 q 409 33 409 34 q 411 36 411 40 q 411 45 409 46 l 408 46 q 406 46 406 47 q 406 48 405 48 q 403 49 396 49 l 384 49 z m 285 -5 l 268 58 l 277 58 l 286 16 q 288 12 288 9 q 288 6 291 3 q 291 9 292 11 q 292 13 292 15 l 304 58 l 313 58 l 324 25 q 325 18 326 14 q 327 9 327 3 q 330 6 330 9 q 330 12 331 16 l 342 58 l 349 58 l 331 -5 l 324 -5 l 312 42 q 310 46 310 49 q 307 46 307 42 l 294 -5 z m 664 28 l 682 28 q 685 28 688 29 q 690 30 693 30 q 696 30 696 34 q 697 36 697 40 q 697 45 694 48 q 693 49 684 49 l 664 49 z m 384 1 l 400 1 q 403 1 405 3 l 409 3 q 411 6 414 7 l 414 13 q 414 16 411 19 q 411 22 408 22 l 397 22 l 384 22 z m 435 -5 l 435 58 l 442 58 l 442 -5 z m 985 25 q 985 12 990 7 q 996 1 1006 1 q 1017 1 1021 7 q 1027 12 1027 27 q 1027 34 1026 39 q 1023 46 1018 48 q 1014 49 1006 49 q 997 49 993 45 q 985 39 985 25 z m 976 25 q 976 42 985 49 q 991 58 1006 58 q 1011 58 1014 56 q 1018 55 1021 54 q 1026 52 1028 49 q 1030 46 1033 42 q 1035 39 1035 27 q 1035 13 1032 9 q 1027 1 1021 -3 q 1015 -6 1006 -6 q 1002 -6 998 -6 q 994 -5 990 -3 q 987 0 984 3 q 982 6 981 9 q 979 13 978 17 q 976 21 976 25 z m 592 -5 l 616 58 l 625 58 l 651 -5 l 642 -5 l 634 13 l 609 13 l 600 -5 z m 459 -5 l 459 58 l 466 58 l 466 1 l 495 1 l 495 -5 z m 892 -5 l 892 3 l 903 3 l 903 -5 z m 748 19 l 748 27 l 774 27 l 774 3 q 768 -3 762 -5 q 759 -5 755 -6 q 751 -6 748 -6 q 739 -6 733 -3 q 729 0 726 2 q 723 4 721 9 q 720 13 718 17 q 717 21 717 25 q 717 31 718 34 q 720 37 721 42 q 724 51 732 54 q 735 55 740 56 q 744 58 748 58 q 756 58 760 55 q 766 54 768 49 q 772 45 774 40 l 766 39 q 766 40 762 45 q 762 48 756 49 l 748 49 l 739 49 q 735 48 732 45 q 732 43 727 39 q 727 36 726 33 q 726 30 726 27 q 726 16 729 13 q 735 4 736 3 q 741 1 748 1 q 754 1 759 3 q 762 6 764 6 q 765 6 766 7 l 766 19 z m 657 -5 l 657 58 l 684 58 q 688 58 691 56 q 694 55 697 55 q 702 54 703 49 q 706 46 706 40 q 706 33 702 28 q 700 27 696 26 q 693 25 688 22 q 691 22 692 22 q 693 21 694 21 q 696 18 696 16 q 697 13 700 10 l 712 -5 l 702 -5 l 693 7 q 690 10 689 12 q 688 15 687 16 q 687 19 686 19 q 684 19 682 21 l 681 21 q 679 21 679 22 q 679 22 678 22 l 675 22 l 664 22 l 664 -5 z m 505 -5 l 505 58 l 514 58 l 514 1 l 544 1 l 544 -5 z m 961 16 l 969 15 q 966 3 960 0 q 954 -6 943 -6 q 934 -6 928 -3 q 924 0 922 3 q 921 6 918 9 q 915 21 915 27 q 915 33 918 45 q 925 52 928 54 q 933 55 936 56 q 939 58 943 58 q 948 58 952 56 q 957 55 960 54 q 963 51 965 48 q 967 45 969 40 l 960 39 q 960 45 954 48 q 951 49 943 49 q 934 49 931 48 q 928 46 928 44 q 927 42 924 39 q 924 36 923 33 q 922 30 922 27 q 922 18 927 13 q 927 10 928 8 q 930 6 931 3 q 936 1 943 1 q 951 1 955 6 q 960 10 961 16 z m 1047 -5 l 1047 58 l 1059 58 l 1074 13 q 1074 10 1076 8 q 1077 6 1077 3 q 1077 4 1080 13 l 1093 58 l 1105 58 l 1105 -5 l 1098 -5 l 1098 46 l 1080 -5 l 1072 -5 l 1054 48 l 1054 -5 z m 175 111 l 187 106 q 184 93 174 84 q 162 75 148 75 q 135 75 123 81 q 111 90 109 99 q 103 109 103 124 q 103 141 109 151 q 114 162 124 166 q 135 172 148 172 q 165 172 171 165 q 181 162 186 145 l 174 144 q 168 156 163 157 q 157 163 148 163 q 136 163 130 157 q 121 151 118 144 q 117 138 117 124 q 117 111 121 105 q 124 94 130 91 q 138 85 147 85 q 159 85 166 93 q 169 96 172 100 q 174 105 175 111 z m 199 123 q 199 135 202 144 q 205 153 213 159 q 219 166 227 169 q 235 172 244 172 q 258 172 268 166 q 277 162 285 150 q 291 135 291 124 q 291 117 290 111 q 288 105 285 99 q 277 87 267 81 q 255 75 244 75 q 237 75 232 76 q 226 78 220 81 q 210 87 205 99 q 199 109 199 123 z m 213 123 q 213 105 220 94 q 231 85 244 85 q 259 85 267 97 q 277 108 277 124 q 277 130 276 134 q 274 139 273 144 q 270 154 261 157 q 256 163 244 163 q 232 163 222 153 q 213 145 213 123 z m 306 78 l 306 171 l 324 171 l 346 105 q 351 96 351 91 q 354 94 357 106 l 381 171 l 396 171 l 396 78 l 384 78 l 384 156 l 357 78 l 345 78 l 318 157 l 318 78 z m 417 78 l 417 171 l 453 171 l 466 171 q 474 171 478 166 q 480 165 486 157 q 487 154 488 151 q 489 148 489 144 q 489 135 481 124 q 474 117 453 117 l 429 117 l 429 78 z m 429 126 l 454 126 q 468 126 469 132 q 475 133 475 144 q 475 151 474 153 q 468 159 463 159 q 462 162 453 162 l 429 162 z m 505 78 l 505 171 l 517 171 l 517 87 l 564 87 l 564 78 z m 579 78 l 579 171 l 648 171 l 648 162 l 591 162 l 591 132 l 643 132 l 643 120 l 591 120 l 591 87 l 649 87 l 649 78 z m 690 78 l 690 162 l 658 162 l 658 171 l 735 171 l 735 162 l 703 162 l 703 78 z m 748 78 l 748 171 l 817 171 l 817 162 l 760 162 l 760 132 l 813 132 l 813 120 l 760 120 l 760 87 l 819 87 l 819 78 z m 870 106 l 882 108 q 882 100 885 97 q 888 91 895 88 q 898 87 909 87 q 912 87 916 87 q 919 87 922 88 q 927 88 930 94 q 931 97 931 103 q 931 108 930 111 q 928 112 926 113 q 924 114 921 117 q 919 117 904 120 q 897 123 892 124 q 888 124 885 126 q 879 129 876 136 q 873 138 872 141 q 871 144 871 147 q 871 156 877 162 q 879 165 882 166 q 885 168 889 171 q 892 172 907 172 q 918 172 924 169 q 928 166 931 164 q 934 163 936 159 q 942 154 942 145 l 930 144 q 927 156 922 157 q 918 162 907 162 q 892 162 889 157 q 885 153 885 147 q 885 142 889 139 q 889 139 907 132 q 915 130 920 128 q 925 127 928 126 q 933 124 935 122 q 937 120 940 117 q 943 112 943 103 q 943 93 940 88 q 934 82 928 79 q 924 78 920 76 q 915 75 909 75 q 903 75 897 76 q 891 78 888 79 q 880 81 873 91 q 870 97 870 106 z m 961 78 l 961 171 l 1029 171 l 1029 162 l 975 162 l 975 132 l 1027 132 l 1027 120 l 975 120 l 975 87 l 1032 87 l 1032 78 z m 1074 78 l 1074 162 l 1044 162 l 1044 171 l 1117 171 l 1117 162 l 1086 162 l 1086 78 z m 112 190 l 112 283 l 150 283 l 163 283 q 166 283 175 280 q 177 279 179 276 q 181 273 183 270 q 186 267 186 259 q 186 246 177 237 q 172 229 150 229 l 127 229 l 127 190 z m 127 241 l 150 241 q 163 241 168 244 q 174 250 174 256 q 174 259 172 262 q 171 265 169 268 q 165 273 162 273 q 160 274 150 274 l 127 274 z m 201 190 l 201 283 l 268 283 l 268 274 l 214 274 l 214 244 l 265 244 l 265 234 l 214 234 l 214 202 l 271 202 l 271 190 z m 288 190 l 288 283 l 331 283 q 345 283 351 282 q 358 279 361 274 q 364 262 364 259 q 364 249 358 243 q 352 237 337 234 q 340 231 342 231 q 343 231 345 229 q 352 222 355 216 l 372 190 l 357 190 l 343 210 q 342 214 340 217 q 337 220 336 223 q 333 225 332 227 q 331 229 330 229 q 327 231 324 231 q 322 234 316 234 l 303 234 l 303 190 z m 303 243 l 327 243 q 339 243 342 244 q 346 249 349 250 q 351 253 351 259 q 351 265 346 270 q 342 274 331 274 l 303 274 z m 381 222 l 391 222 q 391 219 392 216 q 394 213 396 210 q 397 208 400 206 q 402 204 405 204 q 414 201 420 201 q 423 201 426 201 q 429 201 430 202 q 439 205 441 208 q 441 210 442 212 q 442 214 442 216 q 442 222 441 223 q 436 226 430 229 q 429 231 425 231 q 421 231 415 234 q 402 235 396 240 q 388 246 385 249 q 384 253 384 261 q 384 264 384 268 q 385 271 388 274 q 390 280 400 283 q 403 286 417 286 q 429 286 435 283 q 444 279 447 273 q 453 264 453 259 l 441 256 q 438 267 433 270 q 427 276 417 276 q 405 276 400 270 q 396 267 396 261 q 396 255 400 253 q 402 250 417 247 q 430 241 439 241 q 442 238 445 236 q 448 234 450 231 q 454 226 454 217 q 454 210 450 204 q 447 199 444 197 q 442 195 439 192 q 427 189 420 189 q 409 189 397 192 q 393 195 390 197 q 387 199 384 204 q 382 208 382 212 q 381 216 381 222 z m 468 237 q 468 258 480 273 q 493 286 513 286 q 519 286 524 284 q 529 283 537 280 q 543 277 546 272 q 549 268 552 262 q 558 252 558 237 q 558 223 552 211 q 546 201 537 195 q 525 189 513 189 q 499 189 489 196 q 475 204 474 214 q 468 222 468 237 z m 480 237 q 480 219 489 210 q 498 201 513 201 q 528 201 537 210 q 544 220 544 237 q 544 243 544 249 q 543 255 540 259 q 535 267 531 270 q 523 276 513 276 q 505 276 500 274 q 496 271 489 267 q 480 258 480 237 z m 573 190 l 573 283 l 586 283 l 636 211 l 636 283 l 648 283 l 648 190 l 636 190 l 585 264 l 585 190 z m 658 190 l 694 283 l 708 283 l 747 190 l 732 190 l 721 220 l 682 220 l 670 190 z m 684 229 l 717 229 l 708 255 q 705 261 704 266 q 702 271 700 274 q 700 270 698 266 q 697 261 696 256 z m 754 190 l 754 283 l 768 283 l 768 202 l 814 202 l 814 190 z m 922 283 l 934 283 l 934 231 q 934 214 931 208 q 928 199 921 195 q 913 189 898 189 q 883 189 877 195 q 873 196 870 200 q 867 204 864 208 q 862 211 862 231 l 862 283 l 873 283 l 873 231 q 873 216 876 211 q 879 205 883 204 q 886 202 889 202 q 892 201 897 201 q 909 201 916 205 q 922 211 922 231 z m 951 222 l 963 222 q 963 219 964 216 q 966 213 967 210 q 969 208 971 206 q 973 204 976 204 q 985 201 990 201 q 1000 201 1005 202 q 1008 204 1012 208 q 1014 210 1014 216 q 1014 222 1012 223 q 1009 225 1008 226 q 1008 228 1005 229 q 1002 231 998 231 q 993 231 987 234 q 981 235 976 236 q 970 237 969 240 q 961 243 960 249 q 955 253 955 261 q 955 267 960 274 q 961 280 970 283 q 976 286 988 286 q 993 286 998 286 q 1003 286 1006 283 q 1015 279 1020 273 q 1021 270 1022 266 q 1024 262 1024 259 l 1012 256 q 1009 261 1008 264 q 1008 268 1005 270 q 1000 276 988 276 q 975 276 973 270 q 967 268 967 261 q 967 256 970 253 q 973 250 988 247 q 1005 241 1009 241 q 1014 238 1017 236 q 1020 234 1021 231 q 1026 228 1026 217 q 1026 208 1021 204 q 1018 199 1016 197 q 1014 195 1009 192 q 1000 189 993 189 q 985 189 980 190 q 975 190 970 192 q 967 195 964 197 q 960 199 957 204 q 954 208 952 212 q 951 216 951 222 z m 1044 190 l 1044 283 l 1111 283 l 1111 274 l 1057 274 l 1057 244 l 1107 244 l 1107 234 l 1057 234 l 1057 202 l 1113 202 l 1113 190 z m 307 388 q 307 403 285 406 q 282 406 278 407 q 273 408 267 408 l 258 397 l 234 372 q 228 364 222 358 q 217 352 210 348 q 219 345 232 343 q 235 343 240 343 q 246 343 250 345 q 273 346 285 357 q 307 375 307 388 z m 324 433 q 324 439 316 439 q 313 439 291 432 l 274 417 q 271 414 268 408 l 294 412 q 300 412 310 420 q 324 429 324 433 z m 343 460 q 343 457 339 457 q 336 457 335 458 q 334 459 331 459 q 316 456 297 436 q 300 439 304 440 q 307 442 310 444 q 321 445 330 444 q 336 444 336 436 l 336 430 q 328 417 294 409 q 321 406 321 391 q 321 373 292 354 q 282 348 270 344 q 259 340 247 339 q 228 334 217 336 q 208 336 198 340 q 189 334 181 334 l 178 334 q 169 337 163 339 l 168 339 q 180 339 187 345 l 187 346 q 177 340 165 340 q 148 340 139 349 q 124 360 124 381 q 124 387 126 392 q 127 397 130 405 q 141 427 166 444 q 174 451 182 454 q 190 456 198 457 q 214 457 220 451 q 213 456 205 456 q 196 456 186 450 q 171 444 169 441 q 154 433 139 415 q 126 394 126 379 q 126 372 128 368 q 129 363 132 358 q 138 349 148 346 q 153 345 156 344 q 159 343 162 343 q 168 343 172 344 q 177 346 183 349 q 166 361 166 382 q 169 402 190 417 l 187 412 q 184 412 181 406 q 172 397 172 387 q 172 367 195 354 q 207 361 207 363 q 210 367 213 370 q 216 373 219 376 q 222 379 222 384 q 223 388 226 393 l 226 391 q 226 384 225 379 l 243 400 q 289 453 319 462 q 306 466 298 466 q 279 465 256 453 q 229 439 229 420 q 229 414 234 409 q 235 408 235 406 q 226 412 226 421 q 226 438 246 454 q 270 472 297 469 q 306 469 324 463 l 330 463 q 337 463 342 460 z m 346 363 q 345 357 334 346 q 324 340 316 340 q 309 340 309 349 q 309 357 318 369 l 316 369 q 315 367 310 367 q 310 367 309 369 q 313 369 324 379 l 325 379 l 330 385 q 334 390 334 393 l 339 393 q 343 393 343 391 q 343 385 334 375 l 324 364 q 315 351 315 346 q 315 342 321 342 q 328 342 339 357 q 340 358 342 359 q 343 360 346 363 z m 354 405 q 348 396 339 396 q 334 396 328 400 l 333 400 q 343 400 346 411 l 346 414 l 354 411 q 355 409 354 405 z m 406 433 q 406 426 360 370 l 358 370 q 345 354 345 345 q 345 340 349 340 q 358 340 369 355 q 370 357 372 358 q 373 358 375 361 q 375 354 363 345 q 355 339 346 339 q 337 340 337 348 q 336 355 367 394 l 385 417 l 394 426 q 399 432 402 441 q 406 438 406 433 z m 432 433 q 432 427 384 370 q 369 352 369 345 q 369 340 375 340 q 381 340 394 355 l 400 361 q 399 354 387 345 q 379 339 370 339 q 361 340 361 348 q 361 357 391 394 l 409 417 l 418 426 q 426 435 427 441 q 432 438 432 433 z m 403 333 q 379 328 366 315 q 355 301 355 298 q 355 292 361 292 q 363 291 372 294 q 375 297 378 300 q 382 304 387 309 z m 447 430 q 444 409 427 393 q 427 391 426 391 q 426 391 426 390 q 421 384 416 378 q 411 373 406 366 q 403 363 403 360 q 402 363 405 369 q 396 355 396 348 q 396 343 400 343 q 402 343 408 346 q 430 364 439 397 l 439 393 l 439 388 q 442 385 442 381 q 442 378 435 366 l 423 346 l 409 328 q 414 331 426 337 l 424 336 q 421 333 416 329 q 411 325 406 318 l 394 303 l 388 295 q 379 286 369 283 q 360 283 355 289 q 346 292 352 303 q 354 304 356 307 q 357 310 360 313 l 361 315 l 351 313 q 376 331 393 333 q 394 333 396 334 q 397 334 399 334 l 400 334 l 403 334 l 412 348 q 406 342 402 341 q 397 340 394 340 q 387 340 387 348 q 387 366 418 394 l 421 396 l 436 411 q 439 417 442 422 q 445 426 447 430 z m 618 453 q 609 456 603 456 q 588 456 575 452 q 562 448 549 441 q 543 438 539 434 q 535 430 531 427 q 549 426 579 408 q 612 441 636 450 z m 649 447 q 643 445 636 443 q 630 441 622 433 q 618 430 600 412 l 589 402 l 604 393 q 607 397 613 404 q 619 411 627 420 z m 663 472 q 663 471 661 469 q 661 459 657 448 l 658 447 l 657 447 q 649 429 637 417 l 613 388 q 616 387 618 387 q 619 387 622 385 q 622 382 621 382 q 618 382 616 383 q 615 384 612 385 q 594 366 592 349 q 589 343 589 340 q 589 334 595 334 q 607 334 621 354 l 627 363 q 642 384 646 400 l 646 405 q 646 403 648 402 l 648 400 q 645 379 633 361 l 613 322 q 613 328 618 342 q 600 328 591 328 q 577 328 580 346 q 580 355 586 366 q 592 378 601 391 l 586 399 l 573 385 q 568 379 560 370 q 552 361 540 346 q 516 322 498 322 l 493 322 q 489 322 480 327 q 480 327 483 327 q 496 324 510 337 q 498 331 481 331 q 465 331 454 339 l 456 339 q 441 349 441 370 q 441 385 447 393 q 456 417 481 433 q 490 441 498 443 q 507 445 516 447 q 531 447 537 441 l 535 441 q 532 444 522 444 q 507 444 484 430 q 468 418 456 405 q 442 384 442 367 q 442 343 465 336 q 474 333 478 333 q 510 334 547 375 l 576 405 q 553 418 525 418 l 523 418 q 520 412 520 405 q 522 405 528 396 q 517 402 517 411 q 517 415 519 418 q 504 415 499 412 q 472 402 475 381 q 475 367 484 357 l 487 354 q 469 372 469 385 q 469 405 487 418 q 502 429 525 429 q 546 453 577 457 q 585 459 601 459 q 609 459 624 456 l 642 451 l 651 451 l 652 450 q 658 460 661 475 l 663 475 z m 682 375 q 682 370 681 367 q 673 360 668 354 q 663 348 658 340 l 660 340 l 661 340 q 660 339 658 339 q 657 339 657 337 q 649 337 649 340 q 649 346 663 360 q 673 373 673 376 q 675 381 669 385 q 651 360 637 354 l 631 351 l 628 352 q 634 352 648 367 q 661 379 666 387 q 666 388 665 388 q 664 388 664 390 q 664 391 675 400 q 675 402 676 402 l 678 400 q 678 399 670 388 q 682 384 682 375 z m 726 379 q 726 388 720 385 q 714 385 711 382 q 706 379 697 367 q 688 355 688 348 q 687 345 691 345 q 700 348 706 355 q 712 367 712 372 q 712 375 711 375 q 717 375 717 367 l 715 364 q 718 367 720 371 q 723 375 726 378 z m 754 393 q 748 393 741 385 q 735 378 729 369 q 723 360 715 348 q 708 333 702 324 q 696 316 694 313 q 675 289 664 289 q 655 288 651 295 q 651 303 651 303 q 651 310 657 316 q 654 315 649 315 q 664 330 682 334 q 684 334 684 335 q 685 336 688 336 l 690 334 q 661 325 655 307 q 654 304 654 300 q 654 298 655 297 q 655 295 657 295 q 669 294 685 318 l 696 333 l 702 342 q 697 340 694 340 q 682 340 682 352 q 682 366 702 384 q 711 393 718 393 q 729 393 729 381 l 730 381 l 738 390 q 745 397 751 397 q 756 397 759 393 z m 781 382 q 781 373 765 364 q 763 363 762 363 l 760 363 q 756 363 751 370 q 754 367 759 367 q 769 373 772 384 l 772 387 l 772 388 l 772 390 q 766 390 753 376 l 753 375 q 748 369 748 365 q 747 361 747 358 q 745 360 745 367 q 742 361 741 357 q 738 351 738 346 q 738 345 739 343 q 739 340 745 340 q 760 346 771 355 q 774 358 778 361 q 775 357 772 353 q 769 349 762 345 q 750 337 741 340 q 741 339 739 340 q 730 340 730 349 q 730 364 747 379 q 756 393 771 393 q 774 393 775 391 q 781 387 781 382 z m 841 433 q 841 427 793 370 q 780 354 780 345 q 780 340 784 340 q 793 340 804 355 q 805 357 806 358 q 808 358 810 361 q 810 354 798 345 q 790 339 780 339 q 772 342 772 348 q 772 360 801 394 l 819 417 l 828 426 q 837 435 837 441 q 841 438 841 433 z m 922 387 q 897 396 895 415 q 888 411 880 407 q 873 403 868 399 q 840 372 840 349 q 840 340 844 339 l 847 339 l 850 339 q 873 339 892 354 q 898 360 906 368 q 915 375 922 387 z m 952 430 l 940 430 q 922 429 897 417 q 900 396 925 391 l 936 405 z m 979 457 q 960 457 944 454 q 928 451 916 444 q 924 451 935 456 q 946 460 960 463 q 930 465 907 445 q 903 442 897 430 q 907 433 917 434 q 927 436 939 435 q 942 435 946 435 q 951 435 958 433 q 961 438 966 444 q 972 450 979 457 z m 1074 459 q 1071 454 1067 450 q 1063 447 1056 444 q 1044 436 1033 436 l 1030 436 q 1029 436 1027 438 q 1029 439 1029 440 q 1029 442 1032 445 q 1018 456 994 456 l 988 448 l 973 430 q 985 429 996 428 q 1006 426 1015 426 q 1036 426 1044 430 q 1038 424 1021 421 q 1008 418 994 423 l 970 427 q 964 420 959 414 q 954 409 951 403 l 940 388 l 948 388 q 985 391 991 406 l 993 406 q 988 397 973 390 q 966 387 959 386 q 952 384 946 384 l 939 384 q 928 372 922 363 q 915 354 909 348 q 889 327 873 327 q 865 328 856 328 q 871 328 888 343 q 867 334 855 334 l 846 336 l 858 324 q 846 330 838 337 q 837 337 831 340 q 813 354 811 375 q 811 382 811 388 q 811 394 814 400 q 819 414 826 424 q 834 433 844 444 q 870 466 889 466 q 900 466 907 460 l 906 459 q 901 463 892 463 q 873 460 852 444 q 834 429 825 414 q 813 393 813 375 q 816 348 837 340 q 834 349 835 358 q 838 381 852 397 q 868 418 897 430 q 900 433 900 439 l 913 453 q 933 469 964 469 q 972 469 977 469 q 982 469 990 468 l 991 468 q 1002 475 1010 479 q 1018 483 1027 481 q 1033 481 1036 478 q 1020 475 1020 475 q 1017 474 1013 472 q 1009 471 1005 468 q 1011 466 1017 466 q 1023 465 1030 462 q 1045 457 1054 457 q 1068 457 1074 459 z m 982 354 q 978 358 978 364 q 978 367 978 370 q 979 372 979 375 q 964 355 966 346 q 966 343 969 343 q 972 343 982 354 z m 1002 385 q 1002 388 999 388 q 996 388 993 387 q 991 385 988 379 q 981 364 981 360 q 981 355 982 354 l 987 358 l 987 360 l 987 358 q 988 360 988 360 q 988 361 990 363 q 993 372 993 375 q 993 376 991 378 q 994 372 994 370 q 999 375 1002 385 z m 1008 381 q 1008 373 997 358 q 984 345 978 340 l 966 340 q 957 340 957 348 q 957 360 973 379 q 984 393 997 393 q 1008 393 1008 381 z m 1057 384 q 1059 381 1051 367 q 1042 355 1039 352 l 1021 336 q 1011 325 1008 313 q 1009 331 1021 345 q 1027 351 1030 356 q 1033 360 1036 366 q 1038 367 1039 372 l 1039 367 q 1039 367 1038 364 q 1041 367 1047 379 q 1047 381 1048 382 q 1048 382 1048 384 q 1048 391 1041 388 q 1041 388 1029 379 q 1026 372 1020 366 q 1015 361 1009 354 q 1002 345 1000 340 q 999 339 993 327 q 993 330 992 334 q 991 337 993 340 q 996 351 1006 361 l 1015 372 q 1023 382 1023 388 q 1023 390 1022 392 q 1021 393 1021 394 q 1030 391 1030 385 q 1039 393 1050 393 q 1056 390 1057 384 z m 1116 405 l 1093 405 q 1092 402 1084 393 q 1075 384 1063 367 q 1060 367 1057 360 q 1051 352 1051 345 q 1051 340 1054 340 q 1062 340 1075 355 l 1077 357 q 1078 358 1078 359 q 1078 360 1080 361 q 1080 354 1069 345 q 1062 339 1051 339 q 1044 342 1042 348 q 1042 351 1048 363 l 1066 384 l 1083 405 l 1057 408 q 1051 409 1042 409 l 1029 409 q 1011 409 993 402 l 991 402 q 1006 417 1038 417 q 1039 417 1050 414 q 1062 412 1083 409 l 1087 408 q 1092 415 1096 420 q 1099 426 1102 430 q 1105 429 1105 423 q 1105 418 1102 415 l 1096 406 l 1108 405 l 1117 405 l 1119 405 l 1123 405 z m 1126 385 q 1126 381 1116 376 l 1114 375 q 1119 379 1119 387 l 1119 393 l 1114 393 q 1107 393 1105 387 q 1105 384 1110 361 q 1111 340 1086 340 q 1072 340 1069 349 q 1068 351 1068 354 q 1068 366 1086 369 l 1092 367 l 1089 367 q 1083 367 1080 364 q 1075 357 1075 354 q 1075 342 1087 342 q 1099 342 1099 358 q 1099 366 1098 370 q 1096 375 1096 381 q 1096 396 1110 396 q 1113 396 1114 395 q 1116 394 1119 394 q 1125 391 1125 390 q 1126 388 1126 385 z"},"r":{"x_min":0,"x_max":511,"ha":511,"o":"m 175 590 q 234 598 258 566 q 282 535 271 476 q 266 451 258 430 q 249 410 239 393 q 258 398 276 405 q 293 412 307 418 q 321 423 334 428 q 346 432 350 433 q 363 436 374 421 q 384 406 390 386 q 397 366 399 348 q 401 329 396 324 l 396 325 q 358 280 332 244 q 306 207 289 178 q 272 150 264 128 q 255 106 253 90 q 251 75 254 64 q 256 54 261 48 q 266 42 272 40 q 279 37 284 37 q 312 36 346 56 q 380 77 414 109 q 449 141 482 179 q 515 217 542 252 q 569 288 586 315 q 604 342 608 352 q 613 365 624 370 q 634 375 645 373 q 656 371 665 362 q 674 354 677 340 q 674 326 652 289 q 630 252 594 205 q 558 158 512 108 q 465 58 414 18 q 364 -21 312 -44 q 261 -66 215 -59 q 158 -50 133 -8 q 108 33 117 94 q 124 142 152 196 q 181 249 234 303 q 233 303 232 302 l 230 300 q 220 293 195 286 q 170 279 139 279 q 117 279 96 286 q 74 292 58 308 q 41 324 32 350 q 23 376 25 414 q 28 435 40 464 q 52 492 71 518 q 90 545 116 566 q 142 586 174 590 z m 114 386 q 114 381 119 378 q 131 394 144 416 q 157 439 165 471 q 169 485 170 494 q 170 502 166 502 q 161 502 146 485 l 146 486 q 128 465 121 449 q 114 433 112 420 q 110 409 111 400 q 112 392 114 386 z"}}}
